M48
; DRILL file {KiCad (6.0.0)} date Wed Apr 27 09:06:18 2022
; FORMAT={-:-/ absolute / metric / decimal}
; #@! TF.CreationDate,2022-04-27T09:06:18-05:00
; #@! TF.GenerationSoftware,Kicad,Pcbnew,(6.0.0)
; #@! TF.FileFunction,Plated,1,2,PTH
FMAT,2
METRIC
; #@! TA.AperFunction,Plated,PTH,ViaDrill
T1C0.400
; #@! TA.AperFunction,Plated,PTH,ComponentDrill
T2C1.000
%
G90
G05
T1
X16.806Y-38.1
X28.88Y-19.672
T2
X15.801Y-14.607
X15.801Y-17.148
X15.801Y-19.688
X17.094Y-29.339
X17.094Y-31.879
X17.094Y-34.419
X18.341Y-14.607
X18.341Y-17.148
X18.341Y-19.688
X19.634Y-29.339
X19.634Y-31.879
X19.634Y-34.419
X23.285Y-26.809
X23.285Y-29.349
X23.285Y-31.889
X23.285Y-34.429
X23.285Y-36.969
X25.825Y-26.809
X25.825Y-29.349
X25.825Y-31.889
X25.825Y-34.429
X25.825Y-36.969
X32.46Y-27.0
X32.46Y-29.54
X32.46Y-32.08
X32.46Y-34.62
X32.46Y-37.16
X35.0Y-27.0
X35.0Y-29.54
X35.0Y-32.08
X35.0Y-34.62
X35.0Y-37.16
X38.866Y-32.239
X38.866Y-34.779
X38.866Y-37.319
X41.406Y-32.239
X41.406Y-34.779
X41.406Y-37.319
T0
M30
