%TF.GenerationSoftware,KiCad,Pcbnew,(6.0.0)*%
%TF.CreationDate,2022-04-27T09:06:16-05:00*%
%TF.ProjectId,adapters,61646170-7465-4727-932e-6b696361645f,rev?*%
%TF.SameCoordinates,Original*%
%TF.FileFunction,Copper,L1,Top*%
%TF.FilePolarity,Positive*%
%FSLAX46Y46*%
G04 Gerber Fmt 4.6, Leading zero omitted, Abs format (unit mm)*
G04 Created by KiCad (PCBNEW (6.0.0)) date 2022-04-27 09:06:16*
%MOMM*%
%LPD*%
G01*
G04 APERTURE LIST*
%TA.AperFunction,EtchedComponent*%
%ADD10C,0.010000*%
%TD*%
%TA.AperFunction,SMDPad,CuDef*%
%ADD11R,2.400000X0.740000*%
%TD*%
%TA.AperFunction,ComponentPad*%
%ADD12R,1.700000X1.700000*%
%TD*%
%TA.AperFunction,ComponentPad*%
%ADD13O,1.700000X1.700000*%
%TD*%
%TA.AperFunction,ViaPad*%
%ADD14C,0.800000*%
%TD*%
%TA.AperFunction,Conductor*%
%ADD15C,0.250000*%
%TD*%
%TA.AperFunction,Conductor*%
%ADD16C,0.500000*%
%TD*%
G04 APERTURE END LIST*
D10*
%TO.C,Ref\u002A\u002A*%
X35773818Y-13291176D02*
X35831958Y-13291181D01*
X35831958Y-13291181D02*
X35885427Y-13291191D01*
X35885427Y-13291191D02*
X35934430Y-13291208D01*
X35934430Y-13291208D02*
X35979172Y-13291233D01*
X35979172Y-13291233D02*
X36019859Y-13291269D01*
X36019859Y-13291269D02*
X36056693Y-13291317D01*
X36056693Y-13291317D02*
X36089882Y-13291378D01*
X36089882Y-13291378D02*
X36119628Y-13291455D01*
X36119628Y-13291455D02*
X36146138Y-13291549D01*
X36146138Y-13291549D02*
X36169615Y-13291661D01*
X36169615Y-13291661D02*
X36190265Y-13291793D01*
X36190265Y-13291793D02*
X36208292Y-13291947D01*
X36208292Y-13291947D02*
X36223901Y-13292125D01*
X36223901Y-13292125D02*
X36237297Y-13292327D01*
X36237297Y-13292327D02*
X36248685Y-13292557D01*
X36248685Y-13292557D02*
X36258269Y-13292815D01*
X36258269Y-13292815D02*
X36266254Y-13293104D01*
X36266254Y-13293104D02*
X36272846Y-13293424D01*
X36272846Y-13293424D02*
X36278247Y-13293778D01*
X36278247Y-13293778D02*
X36282665Y-13294167D01*
X36282665Y-13294167D02*
X36286303Y-13294593D01*
X36286303Y-13294593D02*
X36289365Y-13295057D01*
X36289365Y-13295057D02*
X36292058Y-13295561D01*
X36292058Y-13295561D02*
X36293665Y-13295902D01*
X36293665Y-13295902D02*
X36326931Y-13304903D01*
X36326931Y-13304903D02*
X36360202Y-13317084D01*
X36360202Y-13317084D02*
X36392092Y-13331833D01*
X36392092Y-13331833D02*
X36421219Y-13348537D01*
X36421219Y-13348537D02*
X36436927Y-13359342D01*
X36436927Y-13359342D02*
X36453258Y-13371884D01*
X36453258Y-13371884D02*
X36467158Y-13383728D01*
X36467158Y-13383728D02*
X36479076Y-13395557D01*
X36479076Y-13395557D02*
X36489460Y-13408055D01*
X36489460Y-13408055D02*
X36498757Y-13421906D01*
X36498757Y-13421906D02*
X36507417Y-13437794D01*
X36507417Y-13437794D02*
X36515888Y-13456403D01*
X36515888Y-13456403D02*
X36524618Y-13478416D01*
X36524618Y-13478416D02*
X36534055Y-13504517D01*
X36534055Y-13504517D02*
X36536273Y-13510885D01*
X36536273Y-13510885D02*
X36540750Y-13523423D01*
X36540750Y-13523423D02*
X36544892Y-13534337D01*
X36544892Y-13534337D02*
X36548318Y-13542670D01*
X36548318Y-13542670D02*
X36550646Y-13547466D01*
X36550646Y-13547466D02*
X36551121Y-13548122D01*
X36551121Y-13548122D02*
X36554576Y-13549921D01*
X36554576Y-13549921D02*
X36561897Y-13552728D01*
X36561897Y-13552728D02*
X36572058Y-13556178D01*
X36572058Y-13556178D02*
X36584036Y-13559908D01*
X36584036Y-13559908D02*
X36585834Y-13560442D01*
X36585834Y-13560442D02*
X36616799Y-13570386D01*
X36616799Y-13570386D02*
X36643154Y-13580649D01*
X36643154Y-13580649D02*
X36665368Y-13591476D01*
X36665368Y-13591476D02*
X36683910Y-13603112D01*
X36683910Y-13603112D02*
X36699249Y-13615801D01*
X36699249Y-13615801D02*
X36706592Y-13623433D01*
X36706592Y-13623433D02*
X36716192Y-13636345D01*
X36716192Y-13636345D02*
X36726351Y-13653902D01*
X36726351Y-13653902D02*
X36736883Y-13675723D01*
X36736883Y-13675723D02*
X36747601Y-13701425D01*
X36747601Y-13701425D02*
X36756982Y-13726785D01*
X36756982Y-13726785D02*
X36761740Y-13740308D01*
X36761740Y-13740308D02*
X36765999Y-13752352D01*
X36765999Y-13752352D02*
X36769437Y-13762008D01*
X36769437Y-13762008D02*
X36771730Y-13768368D01*
X36771730Y-13768368D02*
X36772457Y-13770310D01*
X36772457Y-13770310D02*
X36775780Y-13773278D01*
X36775780Y-13773278D02*
X36782797Y-13776533D01*
X36782797Y-13776533D02*
X36789829Y-13778815D01*
X36789829Y-13778815D02*
X36818431Y-13787254D01*
X36818431Y-13787254D02*
X36844346Y-13795949D01*
X36844346Y-13795949D02*
X36866778Y-13804613D01*
X36866778Y-13804613D02*
X36884284Y-13812632D01*
X36884284Y-13812632D02*
X36894830Y-13818322D01*
X36894830Y-13818322D02*
X36903838Y-13824090D01*
X36903838Y-13824090D02*
X36912564Y-13830905D01*
X36912564Y-13830905D02*
X36922263Y-13839739D01*
X36922263Y-13839739D02*
X36932544Y-13849894D01*
X36932544Y-13849894D02*
X36961271Y-13882104D01*
X36961271Y-13882104D02*
X36985851Y-13916463D01*
X36985851Y-13916463D02*
X37006100Y-13952589D01*
X37006100Y-13952589D02*
X37021830Y-13990105D01*
X37021830Y-13990105D02*
X37032856Y-14028628D01*
X37032856Y-14028628D02*
X37038932Y-14067145D01*
X37038932Y-14067145D02*
X37039008Y-14070462D01*
X37039008Y-14070462D02*
X37039084Y-14078722D01*
X37039084Y-14078722D02*
X37039161Y-14091783D01*
X37039161Y-14091783D02*
X37039238Y-14109508D01*
X37039238Y-14109508D02*
X37039315Y-14131758D01*
X37039315Y-14131758D02*
X37039393Y-14158393D01*
X37039393Y-14158393D02*
X37039470Y-14189276D01*
X37039470Y-14189276D02*
X37039546Y-14224267D01*
X37039546Y-14224267D02*
X37039622Y-14263227D01*
X37039622Y-14263227D02*
X37039698Y-14306018D01*
X37039698Y-14306018D02*
X37039772Y-14352501D01*
X37039772Y-14352501D02*
X37039846Y-14402537D01*
X37039846Y-14402537D02*
X37039918Y-14455987D01*
X37039918Y-14455987D02*
X37039989Y-14512712D01*
X37039989Y-14512712D02*
X37040058Y-14572574D01*
X37040058Y-14572574D02*
X37040126Y-14635433D01*
X37040126Y-14635433D02*
X37040192Y-14701151D01*
X37040192Y-14701151D02*
X37040256Y-14769589D01*
X37040256Y-14769589D02*
X37040318Y-14840609D01*
X37040318Y-14840609D02*
X37040377Y-14914070D01*
X37040377Y-14914070D02*
X37040434Y-14989836D01*
X37040434Y-14989836D02*
X37040488Y-15067766D01*
X37040488Y-15067766D02*
X37040540Y-15147722D01*
X37040540Y-15147722D02*
X37040588Y-15229565D01*
X37040588Y-15229565D02*
X37040633Y-15313156D01*
X37040633Y-15313156D02*
X37040675Y-15398357D01*
X37040675Y-15398357D02*
X37040714Y-15485029D01*
X37040714Y-15485029D02*
X37040749Y-15573032D01*
X37040749Y-15573032D02*
X37040773Y-15641945D01*
X37040773Y-15641945D02*
X37041297Y-17202775D01*
X37041297Y-17202775D02*
X37035964Y-17226514D01*
X37035964Y-17226514D02*
X37024670Y-17268103D01*
X37024670Y-17268103D02*
X37010191Y-17306048D01*
X37010191Y-17306048D02*
X36992254Y-17340866D01*
X36992254Y-17340866D02*
X36970586Y-17373076D01*
X36970586Y-17373076D02*
X36944914Y-17403195D01*
X36944914Y-17403195D02*
X36940347Y-17407926D01*
X36940347Y-17407926D02*
X36909004Y-17436322D01*
X36909004Y-17436322D02*
X36874968Y-17460425D01*
X36874968Y-17460425D02*
X36838356Y-17480179D01*
X36838356Y-17480179D02*
X36799283Y-17495525D01*
X36799283Y-17495525D02*
X36757866Y-17506404D01*
X36757866Y-17506404D02*
X36737427Y-17509987D01*
X36737427Y-17509987D02*
X36721268Y-17511826D01*
X36721268Y-17511826D02*
X36702910Y-17513016D01*
X36702910Y-17513016D02*
X36684168Y-17513508D01*
X36684168Y-17513508D02*
X36666859Y-17513255D01*
X36666859Y-17513255D02*
X36653144Y-17512249D01*
X36653144Y-17512249D02*
X36608461Y-17504655D01*
X36608461Y-17504655D02*
X36566358Y-17492940D01*
X36566358Y-17492940D02*
X36527019Y-17477189D01*
X36527019Y-17477189D02*
X36490626Y-17457484D01*
X36490626Y-17457484D02*
X36457362Y-17433908D01*
X36457362Y-17433908D02*
X36433379Y-17412564D01*
X36433379Y-17412564D02*
X36421748Y-17400327D01*
X36421748Y-17400327D02*
X36411936Y-17387975D01*
X36411936Y-17387975D02*
X36403526Y-17374674D01*
X36403526Y-17374674D02*
X36396103Y-17359587D01*
X36396103Y-17359587D02*
X36389249Y-17341881D01*
X36389249Y-17341881D02*
X36382548Y-17320718D01*
X36382548Y-17320718D02*
X36376331Y-17298131D01*
X36376331Y-17298131D02*
X36372441Y-17283799D01*
X36372441Y-17283799D02*
X36368761Y-17271185D01*
X36368761Y-17271185D02*
X36365550Y-17261111D01*
X36365550Y-17261111D02*
X36363072Y-17254400D01*
X36363072Y-17254400D02*
X36361676Y-17251911D01*
X36361676Y-17251911D02*
X36357815Y-17250416D01*
X36357815Y-17250416D02*
X36350531Y-17248259D01*
X36350531Y-17248259D02*
X36341356Y-17245890D01*
X36341356Y-17245890D02*
X36340791Y-17245755D01*
X36340791Y-17245755D02*
X36310486Y-17237949D01*
X36310486Y-17237949D02*
X36284621Y-17230040D01*
X36284621Y-17230040D02*
X36262563Y-17221739D01*
X36262563Y-17221739D02*
X36243675Y-17212756D01*
X36243675Y-17212756D02*
X36227322Y-17202804D01*
X36227322Y-17202804D02*
X36212870Y-17191593D01*
X36212870Y-17191593D02*
X36204558Y-17183857D01*
X36204558Y-17183857D02*
X36194294Y-17172907D01*
X36194294Y-17172907D02*
X36185587Y-17161701D01*
X36185587Y-17161701D02*
X36178056Y-17149440D01*
X36178056Y-17149440D02*
X36171316Y-17135324D01*
X36171316Y-17135324D02*
X36164984Y-17118555D01*
X36164984Y-17118555D02*
X36158677Y-17098331D01*
X36158677Y-17098331D02*
X36152235Y-17074709D01*
X36152235Y-17074709D02*
X36140064Y-17027924D01*
X36140064Y-17027924D02*
X36100012Y-17016991D01*
X36100012Y-17016991D02*
X36072354Y-17008986D01*
X36072354Y-17008986D02*
X36049007Y-17001126D01*
X36049007Y-17001126D02*
X36029230Y-16993024D01*
X36029230Y-16993024D02*
X36012282Y-16984293D01*
X36012282Y-16984293D02*
X35997422Y-16974547D01*
X35997422Y-16974547D02*
X35983909Y-16963398D01*
X35983909Y-16963398D02*
X35971003Y-16950459D01*
X35971003Y-16950459D02*
X35969556Y-16948874D01*
X35969556Y-16948874D02*
X35960890Y-16938043D01*
X35960890Y-16938043D02*
X36233896Y-16938043D01*
X36233896Y-16938043D02*
X36235735Y-16959011D01*
X36235735Y-16959011D02*
X36241038Y-16992293D01*
X36241038Y-16992293D02*
X36250782Y-17023311D01*
X36250782Y-17023311D02*
X36264744Y-17051822D01*
X36264744Y-17051822D02*
X36282703Y-17077582D01*
X36282703Y-17077582D02*
X36304438Y-17100349D01*
X36304438Y-17100349D02*
X36329729Y-17119879D01*
X36329729Y-17119879D02*
X36358354Y-17135929D01*
X36358354Y-17135929D02*
X36390091Y-17148256D01*
X36390091Y-17148256D02*
X36413400Y-17154401D01*
X36413400Y-17154401D02*
X36426787Y-17156419D01*
X36426787Y-17156419D02*
X36443588Y-17157640D01*
X36443588Y-17157640D02*
X36462200Y-17158063D01*
X36462200Y-17158063D02*
X36481020Y-17157691D01*
X36481020Y-17157691D02*
X36498447Y-17156526D01*
X36498447Y-17156526D02*
X36512877Y-17154568D01*
X36512877Y-17154568D02*
X36514186Y-17154309D01*
X36514186Y-17154309D02*
X36544309Y-17146008D01*
X36544309Y-17146008D02*
X36571606Y-17133866D01*
X36571606Y-17133866D02*
X36596889Y-17117455D01*
X36596889Y-17117455D02*
X36617034Y-17100183D01*
X36617034Y-17100183D02*
X36636725Y-17079712D01*
X36636725Y-17079712D02*
X36652388Y-17059409D01*
X36652388Y-17059409D02*
X36664853Y-17037953D01*
X36664853Y-17037953D02*
X36674952Y-17014027D01*
X36674952Y-17014027D02*
X36679094Y-17001625D01*
X36679094Y-17001625D02*
X36686057Y-16979255D01*
X36686057Y-16979255D02*
X36685877Y-13844895D01*
X36685877Y-13844895D02*
X36680326Y-13824884D01*
X36680326Y-13824884D02*
X36670182Y-13796635D01*
X36670182Y-13796635D02*
X36655876Y-13768993D01*
X36655876Y-13768993D02*
X36638034Y-13742662D01*
X36638034Y-13742662D02*
X36617282Y-13718349D01*
X36617282Y-13718349D02*
X36594243Y-13696759D01*
X36594243Y-13696759D02*
X36569544Y-13678598D01*
X36569544Y-13678598D02*
X36543810Y-13664572D01*
X36543810Y-13664572D02*
X36535096Y-13660932D01*
X36535096Y-13660932D02*
X36522408Y-13656566D01*
X36522408Y-13656566D02*
X36508143Y-13652481D01*
X36508143Y-13652481D02*
X36493825Y-13649038D01*
X36493825Y-13649038D02*
X36480980Y-13646600D01*
X36480980Y-13646600D02*
X36471131Y-13645526D01*
X36471131Y-13645526D02*
X36469974Y-13645505D01*
X36469974Y-13645505D02*
X36463119Y-13645505D01*
X36463119Y-13645505D02*
X36465093Y-16750655D01*
X36465093Y-16750655D02*
X36459383Y-16770975D01*
X36459383Y-16770975D02*
X36447861Y-16803357D01*
X36447861Y-16803357D02*
X36432261Y-16832788D01*
X36432261Y-16832788D02*
X36412395Y-16859576D01*
X36412395Y-16859576D02*
X36396252Y-16876540D01*
X36396252Y-16876540D02*
X36371518Y-16897428D01*
X36371518Y-16897428D02*
X36345690Y-16913614D01*
X36345690Y-16913614D02*
X36318143Y-16925372D01*
X36318143Y-16925372D02*
X36288250Y-16932971D01*
X36288250Y-16932971D02*
X36258100Y-16936527D01*
X36258100Y-16936527D02*
X36233896Y-16938043D01*
X36233896Y-16938043D02*
X35960890Y-16938043D01*
X35960890Y-16938043D02*
X35944272Y-16917277D01*
X35944272Y-16917277D02*
X35922884Y-16882589D01*
X35922884Y-16882589D02*
X35905336Y-16844697D01*
X35905336Y-16844697D02*
X35891572Y-16803488D01*
X35891572Y-16803488D02*
X35886560Y-16783675D01*
X35886560Y-16783675D02*
X35885506Y-16778867D01*
X35885506Y-16778867D02*
X35884599Y-16774030D01*
X35884599Y-16774030D02*
X35883825Y-16768748D01*
X35883825Y-16768748D02*
X35883171Y-16762604D01*
X35883171Y-16762604D02*
X35882622Y-16755183D01*
X35882622Y-16755183D02*
X35882165Y-16746067D01*
X35882165Y-16746067D02*
X35881787Y-16734840D01*
X35881787Y-16734840D02*
X35881474Y-16721087D01*
X35881474Y-16721087D02*
X35881213Y-16704392D01*
X35881213Y-16704392D02*
X35880988Y-16684337D01*
X35880988Y-16684337D02*
X35880788Y-16660507D01*
X35880788Y-16660507D02*
X35880599Y-16632486D01*
X35880599Y-16632486D02*
X35880405Y-16599857D01*
X35880405Y-16599857D02*
X35880378Y-16595080D01*
X35880378Y-16595080D02*
X35880196Y-16566577D01*
X35880196Y-16566577D02*
X35879982Y-16539625D01*
X35879982Y-16539625D02*
X35879741Y-16514644D01*
X35879741Y-16514644D02*
X35879481Y-16492054D01*
X35879481Y-16492054D02*
X35879207Y-16472278D01*
X35879207Y-16472278D02*
X35878925Y-16455735D01*
X35878925Y-16455735D02*
X35878641Y-16442846D01*
X35878641Y-16442846D02*
X35878362Y-16434034D01*
X35878362Y-16434034D02*
X35878093Y-16429718D01*
X35878093Y-16429718D02*
X35877993Y-16429345D01*
X35877993Y-16429345D02*
X35875239Y-16429952D01*
X35875239Y-16429952D02*
X35868233Y-16431663D01*
X35868233Y-16431663D02*
X35857641Y-16434311D01*
X35857641Y-16434311D02*
X35844128Y-16437727D01*
X35844128Y-16437727D02*
X35828361Y-16441744D01*
X35828361Y-16441744D02*
X35812723Y-16445753D01*
X35812723Y-16445753D02*
X35774484Y-16455339D01*
X35774484Y-16455339D02*
X35740240Y-16463328D01*
X35740240Y-16463328D02*
X35709196Y-16469809D01*
X35709196Y-16469809D02*
X35680553Y-16474873D01*
X35680553Y-16474873D02*
X35653517Y-16478609D01*
X35653517Y-16478609D02*
X35627290Y-16481106D01*
X35627290Y-16481106D02*
X35601075Y-16482454D01*
X35601075Y-16482454D02*
X35574077Y-16482743D01*
X35574077Y-16482743D02*
X35545499Y-16482062D01*
X35545499Y-16482062D02*
X35514544Y-16480500D01*
X35514544Y-16480500D02*
X35507560Y-16480062D01*
X35507560Y-16480062D02*
X35427961Y-16472572D01*
X35427961Y-16472572D02*
X35350045Y-16460524D01*
X35350045Y-16460524D02*
X35273983Y-16443976D01*
X35273983Y-16443976D02*
X35199948Y-16422982D01*
X35199948Y-16422982D02*
X35128112Y-16397598D01*
X35128112Y-16397598D02*
X35058648Y-16367883D01*
X35058648Y-16367883D02*
X34991727Y-16333890D01*
X34991727Y-16333890D02*
X34927522Y-16295676D01*
X34927522Y-16295676D02*
X34913244Y-16286353D01*
X34913244Y-16286353D02*
X34854092Y-16244419D01*
X34854092Y-16244419D02*
X34796175Y-16198128D01*
X34796175Y-16198128D02*
X34740255Y-16148184D01*
X34740255Y-16148184D02*
X34687093Y-16095289D01*
X34687093Y-16095289D02*
X34637450Y-16040145D01*
X34637450Y-16040145D02*
X34609856Y-16006506D01*
X34609856Y-16006506D02*
X34601623Y-15996988D01*
X34601623Y-15996988D02*
X34590760Y-15985686D01*
X34590760Y-15985686D02*
X34578628Y-15973960D01*
X34578628Y-15973960D02*
X34566588Y-15963168D01*
X34566588Y-15963168D02*
X34565583Y-15962312D01*
X34565583Y-15962312D02*
X34551378Y-15949815D01*
X34551378Y-15949815D02*
X34534633Y-15934328D01*
X34534633Y-15934328D02*
X34516167Y-15916672D01*
X34516167Y-15916672D02*
X34496801Y-15897667D01*
X34496801Y-15897667D02*
X34477355Y-15878134D01*
X34477355Y-15878134D02*
X34458647Y-15858895D01*
X34458647Y-15858895D02*
X34441498Y-15840768D01*
X34441498Y-15840768D02*
X34426727Y-15824576D01*
X34426727Y-15824576D02*
X34418099Y-15814665D01*
X34418099Y-15814665D02*
X34405776Y-15800827D01*
X34405776Y-15800827D02*
X34392540Y-15787174D01*
X34392540Y-15787174D02*
X34379810Y-15775127D01*
X34379810Y-15775127D02*
X34371366Y-15767931D01*
X34371366Y-15767931D02*
X34311160Y-15716841D01*
X34311160Y-15716841D02*
X34287143Y-15693825D01*
X34287143Y-15693825D02*
X34482714Y-15693825D01*
X34482714Y-15693825D02*
X34484364Y-15696799D01*
X34484364Y-15696799D02*
X34488986Y-15702918D01*
X34488986Y-15702918D02*
X34496081Y-15711617D01*
X34496081Y-15711617D02*
X34505153Y-15722327D01*
X34505153Y-15722327D02*
X34515705Y-15734483D01*
X34515705Y-15734483D02*
X34527240Y-15747516D01*
X34527240Y-15747516D02*
X34539262Y-15760861D01*
X34539262Y-15760861D02*
X34551273Y-15773950D01*
X34551273Y-15773950D02*
X34562777Y-15786216D01*
X34562777Y-15786216D02*
X34572707Y-15796513D01*
X34572707Y-15796513D02*
X34624636Y-15846724D01*
X34624636Y-15846724D02*
X34677265Y-15892155D01*
X34677265Y-15892155D02*
X34731028Y-15933101D01*
X34731028Y-15933101D02*
X34786361Y-15969854D01*
X34786361Y-15969854D02*
X34843695Y-16002709D01*
X34843695Y-16002709D02*
X34903467Y-16031958D01*
X34903467Y-16031958D02*
X34950151Y-16051704D01*
X34950151Y-16051704D02*
X35006668Y-16072069D01*
X35006668Y-16072069D02*
X35065927Y-16089584D01*
X35065927Y-16089584D02*
X35126534Y-16103918D01*
X35126534Y-16103918D02*
X35187095Y-16114744D01*
X35187095Y-16114744D02*
X35246215Y-16121734D01*
X35246215Y-16121734D02*
X35248524Y-16121928D01*
X35248524Y-16121928D02*
X35261969Y-16123057D01*
X35261969Y-16123057D02*
X35274052Y-16124097D01*
X35274052Y-16124097D02*
X35283640Y-16124948D01*
X35283640Y-16124948D02*
X35289600Y-16125512D01*
X35289600Y-16125512D02*
X35290434Y-16125601D01*
X35290434Y-16125601D02*
X35298840Y-16126185D01*
X35298840Y-16126185D02*
X35311460Y-16126577D01*
X35311460Y-16126577D02*
X35327429Y-16126787D01*
X35327429Y-16126787D02*
X35345883Y-16126827D01*
X35345883Y-16126827D02*
X35365961Y-16126707D01*
X35365961Y-16126707D02*
X35386797Y-16126438D01*
X35386797Y-16126438D02*
X35407530Y-16126030D01*
X35407530Y-16126030D02*
X35427296Y-16125496D01*
X35427296Y-16125496D02*
X35445231Y-16124845D01*
X35445231Y-16124845D02*
X35460471Y-16124089D01*
X35460471Y-16124089D02*
X35471187Y-16123325D01*
X35471187Y-16123325D02*
X35538509Y-16115655D01*
X35538509Y-16115655D02*
X35602760Y-16104697D01*
X35602760Y-16104697D02*
X35664930Y-16090217D01*
X35664930Y-16090217D02*
X35726007Y-16071983D01*
X35726007Y-16071983D02*
X35786979Y-16049762D01*
X35786979Y-16049762D02*
X35792084Y-16047724D01*
X35792084Y-16047724D02*
X35828197Y-16032424D01*
X35828197Y-16032424D02*
X35862418Y-16016193D01*
X35862418Y-16016193D02*
X35896039Y-15998341D01*
X35896039Y-15998341D02*
X35930355Y-15978178D01*
X35930355Y-15978178D02*
X35966659Y-15955014D01*
X35966659Y-15955014D02*
X35970519Y-15952459D01*
X35970519Y-15952459D02*
X36006714Y-15928429D01*
X36006714Y-15928429D02*
X36006714Y-15506798D01*
X36006714Y-15506798D02*
X35997704Y-15514708D01*
X35997704Y-15514708D02*
X35993634Y-15518511D01*
X35993634Y-15518511D02*
X35986529Y-15525394D01*
X35986529Y-15525394D02*
X35976929Y-15534827D01*
X35976929Y-15534827D02*
X35965371Y-15546277D01*
X35965371Y-15546277D02*
X35952393Y-15559214D01*
X35952393Y-15559214D02*
X35938533Y-15573106D01*
X35938533Y-15573106D02*
X35934839Y-15576821D01*
X35934839Y-15576821D02*
X35907898Y-15603512D01*
X35907898Y-15603512D02*
X35883225Y-15626974D01*
X35883225Y-15626974D02*
X35859923Y-15647952D01*
X35859923Y-15647952D02*
X35837099Y-15667194D01*
X35837099Y-15667194D02*
X35813858Y-15685445D01*
X35813858Y-15685445D02*
X35789304Y-15703453D01*
X35789304Y-15703453D02*
X35762544Y-15721963D01*
X35762544Y-15721963D02*
X35753984Y-15727705D01*
X35753984Y-15727705D02*
X35691920Y-15766060D01*
X35691920Y-15766060D02*
X35627739Y-15799804D01*
X35627739Y-15799804D02*
X35561482Y-15828926D01*
X35561482Y-15828926D02*
X35493192Y-15853413D01*
X35493192Y-15853413D02*
X35422911Y-15873253D01*
X35422911Y-15873253D02*
X35350679Y-15888433D01*
X35350679Y-15888433D02*
X35276540Y-15898942D01*
X35276540Y-15898942D02*
X35200536Y-15904767D01*
X35200536Y-15904767D02*
X35143114Y-15906054D01*
X35143114Y-15906054D02*
X35065812Y-15903773D01*
X35065812Y-15903773D02*
X34990656Y-15896915D01*
X34990656Y-15896915D02*
X34917544Y-15885457D01*
X34917544Y-15885457D02*
X34846370Y-15869376D01*
X34846370Y-15869376D02*
X34777031Y-15848650D01*
X34777031Y-15848650D02*
X34709422Y-15823256D01*
X34709422Y-15823256D02*
X34655434Y-15799044D01*
X34655434Y-15799044D02*
X34624003Y-15783473D01*
X34624003Y-15783473D02*
X34596226Y-15768741D01*
X34596226Y-15768741D02*
X34570920Y-15754137D01*
X34570920Y-15754137D02*
X34546899Y-15738951D01*
X34546899Y-15738951D02*
X34522979Y-15722475D01*
X34522979Y-15722475D02*
X34502399Y-15707344D01*
X34502399Y-15707344D02*
X34494047Y-15701178D01*
X34494047Y-15701178D02*
X34487454Y-15696546D01*
X34487454Y-15696546D02*
X34483482Y-15694042D01*
X34483482Y-15694042D02*
X34482714Y-15693825D01*
X34482714Y-15693825D02*
X34287143Y-15693825D01*
X34287143Y-15693825D02*
X34253554Y-15661637D01*
X34253554Y-15661637D02*
X34198954Y-15602787D01*
X34198954Y-15602787D02*
X34147766Y-15540761D01*
X34147766Y-15540761D02*
X34100397Y-15476025D01*
X34100397Y-15476025D02*
X34057253Y-15409049D01*
X34057253Y-15409049D02*
X34051172Y-15398840D01*
X34051172Y-15398840D02*
X34031411Y-15363388D01*
X34031411Y-15363388D02*
X34011533Y-15324085D01*
X34011533Y-15324085D02*
X33992064Y-15282118D01*
X33992064Y-15282118D02*
X33973528Y-15238676D01*
X33973528Y-15238676D02*
X33956451Y-15194946D01*
X33956451Y-15194946D02*
X33941360Y-15152116D01*
X33941360Y-15152116D02*
X33939487Y-15146420D01*
X33939487Y-15146420D02*
X33917475Y-15071415D01*
X33917475Y-15071415D02*
X33899350Y-14993848D01*
X33899350Y-14993848D02*
X33885136Y-14914310D01*
X33885136Y-14914310D02*
X33874861Y-14833388D01*
X33874861Y-14833388D02*
X33868549Y-14751673D01*
X33868549Y-14751673D02*
X33866226Y-14669753D01*
X33866226Y-14669753D02*
X33866940Y-14635334D01*
X33866940Y-14635334D02*
X34436256Y-14635334D01*
X34436256Y-14635334D02*
X34436422Y-14697612D01*
X34436422Y-14697612D02*
X34440239Y-14759270D01*
X34440239Y-14759270D02*
X34447742Y-14819440D01*
X34447742Y-14819440D02*
X34452460Y-14846472D01*
X34452460Y-14846472D02*
X34467018Y-14910470D01*
X34467018Y-14910470D02*
X34485640Y-14971452D01*
X34485640Y-14971452D02*
X34508319Y-15029400D01*
X34508319Y-15029400D02*
X34535049Y-15084299D01*
X34535049Y-15084299D02*
X34565824Y-15136133D01*
X34565824Y-15136133D02*
X34570190Y-15142748D01*
X34570190Y-15142748D02*
X34606121Y-15192936D01*
X34606121Y-15192936D02*
X34644252Y-15239017D01*
X34644252Y-15239017D02*
X34685288Y-15281740D01*
X34685288Y-15281740D02*
X34729935Y-15321854D01*
X34729935Y-15321854D02*
X34765297Y-15349985D01*
X34765297Y-15349985D02*
X34775081Y-15357316D01*
X34775081Y-15357316D02*
X34783288Y-15363311D01*
X34783288Y-15363311D02*
X34789144Y-15367417D01*
X34789144Y-15367417D02*
X34791871Y-15369077D01*
X34791871Y-15369077D02*
X34791967Y-15369078D01*
X34791967Y-15369078D02*
X34790938Y-15366840D01*
X34790938Y-15366840D02*
X34787653Y-15361301D01*
X34787653Y-15361301D02*
X34782672Y-15353386D01*
X34782672Y-15353386D02*
X34778583Y-15347085D01*
X34778583Y-15347085D02*
X34756037Y-15309171D01*
X34756037Y-15309171D02*
X34735262Y-15267018D01*
X34735262Y-15267018D02*
X34716453Y-15221218D01*
X34716453Y-15221218D02*
X34699808Y-15172361D01*
X34699808Y-15172361D02*
X34685523Y-15121040D01*
X34685523Y-15121040D02*
X34681648Y-15103465D01*
X34681648Y-15103465D02*
X35012678Y-15103465D01*
X35012678Y-15103465D02*
X35012841Y-15128700D01*
X35012841Y-15128700D02*
X35013587Y-15150502D01*
X35013587Y-15150502D02*
X35015075Y-15170499D01*
X35015075Y-15170499D02*
X35017461Y-15190321D01*
X35017461Y-15190321D02*
X35020903Y-15211595D01*
X35020903Y-15211595D02*
X35025351Y-15234920D01*
X35025351Y-15234920D02*
X35028632Y-15250371D01*
X35028632Y-15250371D02*
X35032423Y-15266694D01*
X35032423Y-15266694D02*
X35036504Y-15283102D01*
X35036504Y-15283102D02*
X35040659Y-15298813D01*
X35040659Y-15298813D02*
X35044672Y-15313040D01*
X35044672Y-15313040D02*
X35048324Y-15324999D01*
X35048324Y-15324999D02*
X35051398Y-15333904D01*
X35051398Y-15333904D02*
X35053678Y-15338972D01*
X35053678Y-15338972D02*
X35054357Y-15339773D01*
X35054357Y-15339773D02*
X35058172Y-15341195D01*
X35058172Y-15341195D02*
X35066057Y-15343487D01*
X35066057Y-15343487D02*
X35077119Y-15346434D01*
X35077119Y-15346434D02*
X35090466Y-15349821D01*
X35090466Y-15349821D02*
X35105204Y-15353433D01*
X35105204Y-15353433D02*
X35120441Y-15357055D01*
X35120441Y-15357055D02*
X35135285Y-15360473D01*
X35135285Y-15360473D02*
X35148841Y-15363472D01*
X35148841Y-15363472D02*
X35160218Y-15365836D01*
X35160218Y-15365836D02*
X35168523Y-15367352D01*
X35168523Y-15367352D02*
X35169784Y-15367541D01*
X35169784Y-15367541D02*
X35200583Y-15370934D01*
X35200583Y-15370934D02*
X35231871Y-15372368D01*
X35231871Y-15372368D02*
X35265138Y-15371871D01*
X35265138Y-15371871D02*
X35295641Y-15369989D01*
X35295641Y-15369989D02*
X35353004Y-15363164D01*
X35353004Y-15363164D02*
X35407749Y-15352007D01*
X35407749Y-15352007D02*
X35459949Y-15336493D01*
X35459949Y-15336493D02*
X35509677Y-15316597D01*
X35509677Y-15316597D02*
X35557007Y-15292295D01*
X35557007Y-15292295D02*
X35590388Y-15271555D01*
X35590388Y-15271555D02*
X35637619Y-15236910D01*
X35637619Y-15236910D02*
X35681298Y-15198707D01*
X35681298Y-15198707D02*
X35721299Y-15157136D01*
X35721299Y-15157136D02*
X35757496Y-15112390D01*
X35757496Y-15112390D02*
X35789763Y-15064661D01*
X35789763Y-15064661D02*
X35817975Y-15014139D01*
X35817975Y-15014139D02*
X35842005Y-14961017D01*
X35842005Y-14961017D02*
X35861727Y-14905487D01*
X35861727Y-14905487D02*
X35877015Y-14847741D01*
X35877015Y-14847741D02*
X35880897Y-14829101D01*
X35880897Y-14829101D02*
X35886156Y-14800152D01*
X35886156Y-14800152D02*
X35890105Y-14773410D01*
X35890105Y-14773410D02*
X35892890Y-14747322D01*
X35892890Y-14747322D02*
X35894654Y-14720337D01*
X35894654Y-14720337D02*
X35895540Y-14690901D01*
X35895540Y-14690901D02*
X35895714Y-14669125D01*
X35895714Y-14669125D02*
X35895655Y-14647898D01*
X35895655Y-14647898D02*
X35895381Y-14630621D01*
X35895381Y-14630621D02*
X35894826Y-14616165D01*
X35894826Y-14616165D02*
X35893923Y-14603401D01*
X35893923Y-14603401D02*
X35892606Y-14591202D01*
X35892606Y-14591202D02*
X35890807Y-14578440D01*
X35890807Y-14578440D02*
X35890091Y-14573875D01*
X35890091Y-14573875D02*
X35887201Y-14557806D01*
X35887201Y-14557806D02*
X35883182Y-14538242D01*
X35883182Y-14538242D02*
X35878357Y-14516558D01*
X35878357Y-14516558D02*
X35873047Y-14494125D01*
X35873047Y-14494125D02*
X35867575Y-14472319D01*
X35867575Y-14472319D02*
X35862263Y-14452512D01*
X35862263Y-14452512D02*
X35858800Y-14440530D01*
X35858800Y-14440530D02*
X35855363Y-14429105D01*
X35855363Y-14429105D02*
X35830256Y-14422141D01*
X35830256Y-14422141D02*
X35796496Y-14413318D01*
X35796496Y-14413318D02*
X35766138Y-14406630D01*
X35766138Y-14406630D02*
X35738050Y-14401924D01*
X35738050Y-14401924D02*
X35711098Y-14399048D01*
X35711098Y-14399048D02*
X35684148Y-14397849D01*
X35684148Y-14397849D02*
X35656067Y-14398175D01*
X35656067Y-14398175D02*
X35653059Y-14398289D01*
X35653059Y-14398289D02*
X35594863Y-14402869D01*
X35594863Y-14402869D02*
X35539051Y-14411880D01*
X35539051Y-14411880D02*
X35485373Y-14425413D01*
X35485373Y-14425413D02*
X35433576Y-14443557D01*
X35433576Y-14443557D02*
X35383408Y-14466400D01*
X35383408Y-14466400D02*
X35334618Y-14494032D01*
X35334618Y-14494032D02*
X35286954Y-14526543D01*
X35286954Y-14526543D02*
X35282470Y-14529893D01*
X35282470Y-14529893D02*
X35239777Y-14565152D01*
X35239777Y-14565152D02*
X35199978Y-14604340D01*
X35199978Y-14604340D02*
X35163359Y-14647024D01*
X35163359Y-14647024D02*
X35130205Y-14692775D01*
X35130205Y-14692775D02*
X35100803Y-14741160D01*
X35100803Y-14741160D02*
X35075438Y-14791750D01*
X35075438Y-14791750D02*
X35054395Y-14844111D01*
X35054395Y-14844111D02*
X35037962Y-14897814D01*
X35037962Y-14897814D02*
X35037596Y-14899237D01*
X35037596Y-14899237D02*
X35027885Y-14941379D01*
X35027885Y-14941379D02*
X35020724Y-14982602D01*
X35020724Y-14982602D02*
X35015929Y-15024413D01*
X35015929Y-15024413D02*
X35013316Y-15068316D01*
X35013316Y-15068316D02*
X35012678Y-15103465D01*
X35012678Y-15103465D02*
X34681648Y-15103465D01*
X34681648Y-15103465D02*
X34673794Y-15067845D01*
X34673794Y-15067845D02*
X34664818Y-15013367D01*
X34664818Y-15013367D02*
X34662992Y-14999325D01*
X34662992Y-14999325D02*
X34661694Y-14985623D01*
X34661694Y-14985623D02*
X34660597Y-14967864D01*
X34660597Y-14967864D02*
X34659716Y-14947070D01*
X34659716Y-14947070D02*
X34659065Y-14924260D01*
X34659065Y-14924260D02*
X34658658Y-14900455D01*
X34658658Y-14900455D02*
X34658510Y-14876675D01*
X34658510Y-14876675D02*
X34658635Y-14853940D01*
X34658635Y-14853940D02*
X34659047Y-14833271D01*
X34659047Y-14833271D02*
X34659760Y-14815688D01*
X34659760Y-14815688D02*
X34660305Y-14807469D01*
X34660305Y-14807469D02*
X34667588Y-14741445D01*
X34667588Y-14741445D02*
X34678751Y-14678486D01*
X34678751Y-14678486D02*
X34693915Y-14618241D01*
X34693915Y-14618241D02*
X34713197Y-14560359D01*
X34713197Y-14560359D02*
X34736719Y-14504490D01*
X34736719Y-14504490D02*
X34764599Y-14450284D01*
X34764599Y-14450284D02*
X34796958Y-14397388D01*
X34796958Y-14397388D02*
X34803489Y-14387653D01*
X34803489Y-14387653D02*
X34840614Y-14337448D01*
X34840614Y-14337448D02*
X34881310Y-14290594D01*
X34881310Y-14290594D02*
X34925306Y-14247265D01*
X34925306Y-14247265D02*
X34972334Y-14207636D01*
X34972334Y-14207636D02*
X35022123Y-14171882D01*
X35022123Y-14171882D02*
X35074404Y-14140177D01*
X35074404Y-14140177D02*
X35128908Y-14112697D01*
X35128908Y-14112697D02*
X35185364Y-14089615D01*
X35185364Y-14089615D02*
X35243504Y-14071107D01*
X35243504Y-14071107D02*
X35303057Y-14057347D01*
X35303057Y-14057347D02*
X35317104Y-14054842D01*
X35317104Y-14054842D02*
X35341942Y-14050995D01*
X35341942Y-14050995D02*
X35365487Y-14048123D01*
X35365487Y-14048123D02*
X35388956Y-14046151D01*
X35388956Y-14046151D02*
X35413570Y-14045006D01*
X35413570Y-14045006D02*
X35440546Y-14044614D01*
X35440546Y-14044614D02*
X35471106Y-14044898D01*
X35471106Y-14044898D02*
X35477770Y-14045030D01*
X35477770Y-14045030D02*
X35506688Y-14045845D01*
X35506688Y-14045845D02*
X35531753Y-14047046D01*
X35531753Y-14047046D02*
X35554187Y-14048768D01*
X35554187Y-14048768D02*
X35575209Y-14051143D01*
X35575209Y-14051143D02*
X35596041Y-14054304D01*
X35596041Y-14054304D02*
X35617904Y-14058384D01*
X35617904Y-14058384D02*
X35636704Y-14062345D01*
X35636704Y-14062345D02*
X35673343Y-14071548D01*
X35673343Y-14071548D02*
X35710950Y-14083202D01*
X35710950Y-14083202D02*
X35748451Y-14096869D01*
X35748451Y-14096869D02*
X35784766Y-14112106D01*
X35784766Y-14112106D02*
X35818821Y-14128475D01*
X35818821Y-14128475D02*
X35849537Y-14145534D01*
X35849537Y-14145534D02*
X35866379Y-14156229D01*
X35866379Y-14156229D02*
X35872446Y-14160107D01*
X35872446Y-14160107D02*
X35876362Y-14162218D01*
X35876362Y-14162218D02*
X35877174Y-14162318D01*
X35877174Y-14162318D02*
X35875591Y-14158774D01*
X35875591Y-14158774D02*
X35871163Y-14151993D01*
X35871163Y-14151993D02*
X35864365Y-14142579D01*
X35864365Y-14142579D02*
X35855674Y-14131138D01*
X35855674Y-14131138D02*
X35845568Y-14118274D01*
X35845568Y-14118274D02*
X35834523Y-14104591D01*
X35834523Y-14104591D02*
X35823017Y-14090695D01*
X35823017Y-14090695D02*
X35811526Y-14077190D01*
X35811526Y-14077190D02*
X35800527Y-14064680D01*
X35800527Y-14064680D02*
X35797687Y-14061534D01*
X35797687Y-14061534D02*
X35765707Y-14029153D01*
X35765707Y-14029153D02*
X35729522Y-13997542D01*
X35729522Y-13997542D02*
X35690005Y-13967294D01*
X35690005Y-13967294D02*
X35648027Y-13938999D01*
X35648027Y-13938999D02*
X35604460Y-13913248D01*
X35604460Y-13913248D02*
X35560177Y-13890633D01*
X35560177Y-13890633D02*
X35519835Y-13873214D01*
X35519835Y-13873214D02*
X35465114Y-13854378D01*
X35465114Y-13854378D02*
X35408106Y-13839771D01*
X35408106Y-13839771D02*
X35349368Y-13829414D01*
X35349368Y-13829414D02*
X35289452Y-13823326D01*
X35289452Y-13823326D02*
X35228915Y-13821525D01*
X35228915Y-13821525D02*
X35168310Y-13824030D01*
X35168310Y-13824030D02*
X35108193Y-13830861D01*
X35108193Y-13830861D02*
X35049118Y-13842036D01*
X35049118Y-13842036D02*
X34998802Y-13855367D01*
X34998802Y-13855367D02*
X34949388Y-13872457D01*
X34949388Y-13872457D02*
X34899638Y-13893768D01*
X34899638Y-13893768D02*
X34850774Y-13918687D01*
X34850774Y-13918687D02*
X34804020Y-13946599D01*
X34804020Y-13946599D02*
X34769062Y-13970596D01*
X34769062Y-13970596D02*
X34719671Y-14009854D01*
X34719671Y-14009854D02*
X34673666Y-14052797D01*
X34673666Y-14052797D02*
X34631224Y-14099169D01*
X34631224Y-14099169D02*
X34592523Y-14148716D01*
X34592523Y-14148716D02*
X34557741Y-14201183D01*
X34557741Y-14201183D02*
X34527055Y-14256314D01*
X34527055Y-14256314D02*
X34500644Y-14313855D01*
X34500644Y-14313855D02*
X34478686Y-14373550D01*
X34478686Y-14373550D02*
X34471371Y-14397345D01*
X34471371Y-14397345D02*
X34457299Y-14453441D01*
X34457299Y-14453441D02*
X34446731Y-14512382D01*
X34446731Y-14512382D02*
X34439705Y-14573302D01*
X34439705Y-14573302D02*
X34436256Y-14635334D01*
X34436256Y-14635334D02*
X33866940Y-14635334D01*
X33866940Y-14635334D02*
X33867918Y-14588217D01*
X33867918Y-14588217D02*
X33873651Y-14507654D01*
X33873651Y-14507654D02*
X33883450Y-14428654D01*
X33883450Y-14428654D02*
X33897341Y-14351805D01*
X33897341Y-14351805D02*
X33903622Y-14323613D01*
X33903622Y-14323613D02*
X33924872Y-14243398D01*
X33924872Y-14243398D02*
X33950331Y-14165972D01*
X33950331Y-14165972D02*
X33980091Y-14091154D01*
X33980091Y-14091154D02*
X34014243Y-14018762D01*
X34014243Y-14018762D02*
X34052879Y-13948617D01*
X34052879Y-13948617D02*
X34096090Y-13880537D01*
X34096090Y-13880537D02*
X34143968Y-13814342D01*
X34143968Y-13814342D02*
X34190849Y-13756551D01*
X34190849Y-13756551D02*
X34242008Y-13700283D01*
X34242008Y-13700283D02*
X34296962Y-13646704D01*
X34296962Y-13646704D02*
X34355286Y-13596097D01*
X34355286Y-13596097D02*
X34416558Y-13548747D01*
X34416558Y-13548747D02*
X34480354Y-13504936D01*
X34480354Y-13504936D02*
X34546250Y-13464949D01*
X34546250Y-13464949D02*
X34613824Y-13429069D01*
X34613824Y-13429069D02*
X34682651Y-13397580D01*
X34682651Y-13397580D02*
X34752309Y-13370765D01*
X34752309Y-13370765D02*
X34781164Y-13361138D01*
X34781164Y-13361138D02*
X34817041Y-13350186D01*
X34817041Y-13350186D02*
X34852396Y-13340413D01*
X34852396Y-13340413D02*
X34888049Y-13331652D01*
X34888049Y-13331652D02*
X34924818Y-13323738D01*
X34924818Y-13323738D02*
X34963523Y-13316504D01*
X34963523Y-13316504D02*
X35004984Y-13309784D01*
X35004984Y-13309784D02*
X35050019Y-13303411D01*
X35050019Y-13303411D02*
X35091044Y-13298224D01*
X35091044Y-13298224D02*
X35149464Y-13291175D01*
X35149464Y-13291175D02*
X35710804Y-13291175D01*
X35710804Y-13291175D02*
X35773818Y-13291176D01*
X35773818Y-13291176D02*
X35773818Y-13291176D01*
G36*
X35922884Y-16882589D02*
G01*
X35905336Y-16844697D01*
X35891572Y-16803488D01*
X35886560Y-16783675D01*
X35885506Y-16778867D01*
X35884599Y-16774030D01*
X35883825Y-16768748D01*
X35883171Y-16762604D01*
X35882622Y-16755183D01*
X35882165Y-16746067D01*
X35881787Y-16734840D01*
X35881474Y-16721087D01*
X35881213Y-16704392D01*
X35880988Y-16684337D01*
X35880788Y-16660507D01*
X35880599Y-16632486D01*
X35880405Y-16599857D01*
X35880378Y-16595080D01*
X35880196Y-16566577D01*
X35879982Y-16539625D01*
X35879741Y-16514644D01*
X35879481Y-16492054D01*
X35879207Y-16472278D01*
X35878925Y-16455735D01*
X35878641Y-16442846D01*
X35878362Y-16434034D01*
X35878093Y-16429718D01*
X35877993Y-16429345D01*
X35875239Y-16429952D01*
X35868233Y-16431663D01*
X35857641Y-16434311D01*
X35844128Y-16437727D01*
X35828361Y-16441744D01*
X35812723Y-16445753D01*
X35774484Y-16455339D01*
X35740240Y-16463328D01*
X35709196Y-16469809D01*
X35680553Y-16474873D01*
X35653517Y-16478609D01*
X35627290Y-16481106D01*
X35601075Y-16482454D01*
X35574077Y-16482743D01*
X35545499Y-16482062D01*
X35514544Y-16480500D01*
X35507560Y-16480062D01*
X35427961Y-16472572D01*
X35350045Y-16460524D01*
X35273983Y-16443976D01*
X35199948Y-16422982D01*
X35128112Y-16397598D01*
X35058648Y-16367883D01*
X34991727Y-16333890D01*
X34927522Y-16295676D01*
X34913244Y-16286353D01*
X34854092Y-16244419D01*
X34796175Y-16198128D01*
X34740255Y-16148184D01*
X34687093Y-16095289D01*
X34637450Y-16040145D01*
X34609856Y-16006506D01*
X34601623Y-15996988D01*
X34590760Y-15985686D01*
X34578628Y-15973960D01*
X34566588Y-15963168D01*
X34565583Y-15962312D01*
X34551378Y-15949815D01*
X34534633Y-15934328D01*
X34516167Y-15916672D01*
X34496801Y-15897667D01*
X34477355Y-15878134D01*
X34458647Y-15858895D01*
X34441498Y-15840768D01*
X34426727Y-15824576D01*
X34418099Y-15814665D01*
X34405776Y-15800827D01*
X34392540Y-15787174D01*
X34379810Y-15775127D01*
X34371366Y-15767931D01*
X34311160Y-15716841D01*
X34287143Y-15693825D01*
X34482714Y-15693825D01*
X34484364Y-15696799D01*
X34488986Y-15702918D01*
X34496081Y-15711617D01*
X34505153Y-15722327D01*
X34515705Y-15734483D01*
X34527240Y-15747516D01*
X34539262Y-15760861D01*
X34551273Y-15773950D01*
X34562777Y-15786216D01*
X34572707Y-15796513D01*
X34624636Y-15846724D01*
X34677265Y-15892155D01*
X34731028Y-15933101D01*
X34786361Y-15969854D01*
X34843695Y-16002709D01*
X34903467Y-16031958D01*
X34950151Y-16051704D01*
X35006668Y-16072069D01*
X35065927Y-16089584D01*
X35126534Y-16103918D01*
X35187095Y-16114744D01*
X35246215Y-16121734D01*
X35248524Y-16121928D01*
X35261969Y-16123057D01*
X35274052Y-16124097D01*
X35283640Y-16124948D01*
X35289600Y-16125512D01*
X35290434Y-16125601D01*
X35298840Y-16126185D01*
X35311460Y-16126577D01*
X35327429Y-16126787D01*
X35345883Y-16126827D01*
X35365961Y-16126707D01*
X35386797Y-16126438D01*
X35407530Y-16126030D01*
X35427296Y-16125496D01*
X35445231Y-16124845D01*
X35460471Y-16124089D01*
X35471187Y-16123325D01*
X35538509Y-16115655D01*
X35602760Y-16104697D01*
X35664930Y-16090217D01*
X35726007Y-16071983D01*
X35786979Y-16049762D01*
X35792084Y-16047724D01*
X35828197Y-16032424D01*
X35862418Y-16016193D01*
X35896039Y-15998341D01*
X35930355Y-15978178D01*
X35966659Y-15955014D01*
X35970519Y-15952459D01*
X36006714Y-15928429D01*
X36006714Y-15506798D01*
X35997704Y-15514708D01*
X35993634Y-15518511D01*
X35986529Y-15525394D01*
X35976929Y-15534827D01*
X35965371Y-15546277D01*
X35952393Y-15559214D01*
X35938533Y-15573106D01*
X35934839Y-15576821D01*
X35907898Y-15603512D01*
X35883225Y-15626974D01*
X35859923Y-15647952D01*
X35837099Y-15667194D01*
X35813858Y-15685445D01*
X35789304Y-15703453D01*
X35762544Y-15721963D01*
X35753984Y-15727705D01*
X35691920Y-15766060D01*
X35627739Y-15799804D01*
X35561482Y-15828926D01*
X35493192Y-15853413D01*
X35422911Y-15873253D01*
X35350679Y-15888433D01*
X35276540Y-15898942D01*
X35200536Y-15904767D01*
X35143114Y-15906054D01*
X35065812Y-15903773D01*
X34990656Y-15896915D01*
X34917544Y-15885457D01*
X34846370Y-15869376D01*
X34777031Y-15848650D01*
X34709422Y-15823256D01*
X34655434Y-15799044D01*
X34624003Y-15783473D01*
X34596226Y-15768741D01*
X34570920Y-15754137D01*
X34546899Y-15738951D01*
X34522979Y-15722475D01*
X34502399Y-15707344D01*
X34494047Y-15701178D01*
X34487454Y-15696546D01*
X34483482Y-15694042D01*
X34482714Y-15693825D01*
X34287143Y-15693825D01*
X34253554Y-15661637D01*
X34198954Y-15602787D01*
X34147766Y-15540761D01*
X34100397Y-15476025D01*
X34057253Y-15409049D01*
X34051172Y-15398840D01*
X34031411Y-15363388D01*
X34011533Y-15324085D01*
X33992064Y-15282118D01*
X33973528Y-15238676D01*
X33956451Y-15194946D01*
X33941360Y-15152116D01*
X33939487Y-15146420D01*
X33917475Y-15071415D01*
X33899350Y-14993848D01*
X33885136Y-14914310D01*
X33874861Y-14833388D01*
X33868549Y-14751673D01*
X33866226Y-14669753D01*
X33866940Y-14635334D01*
X34436256Y-14635334D01*
X34436422Y-14697612D01*
X34440239Y-14759270D01*
X34447742Y-14819440D01*
X34452460Y-14846472D01*
X34467018Y-14910470D01*
X34485640Y-14971452D01*
X34508319Y-15029400D01*
X34535049Y-15084299D01*
X34565824Y-15136133D01*
X34570190Y-15142748D01*
X34606121Y-15192936D01*
X34644252Y-15239017D01*
X34685288Y-15281740D01*
X34729935Y-15321854D01*
X34765297Y-15349985D01*
X34775081Y-15357316D01*
X34783288Y-15363311D01*
X34789144Y-15367417D01*
X34791871Y-15369077D01*
X34791967Y-15369078D01*
X34790938Y-15366840D01*
X34787653Y-15361301D01*
X34782672Y-15353386D01*
X34778583Y-15347085D01*
X34756037Y-15309171D01*
X34735262Y-15267018D01*
X34716453Y-15221218D01*
X34699808Y-15172361D01*
X34685523Y-15121040D01*
X34681648Y-15103465D01*
X35012678Y-15103465D01*
X35012841Y-15128700D01*
X35013587Y-15150502D01*
X35015075Y-15170499D01*
X35017461Y-15190321D01*
X35020903Y-15211595D01*
X35025351Y-15234920D01*
X35028632Y-15250371D01*
X35032423Y-15266694D01*
X35036504Y-15283102D01*
X35040659Y-15298813D01*
X35044672Y-15313040D01*
X35048324Y-15324999D01*
X35051398Y-15333904D01*
X35053678Y-15338972D01*
X35054357Y-15339773D01*
X35058172Y-15341195D01*
X35066057Y-15343487D01*
X35077119Y-15346434D01*
X35090466Y-15349821D01*
X35105204Y-15353433D01*
X35120441Y-15357055D01*
X35135285Y-15360473D01*
X35148841Y-15363472D01*
X35160218Y-15365836D01*
X35168523Y-15367352D01*
X35169784Y-15367541D01*
X35200583Y-15370934D01*
X35231871Y-15372368D01*
X35265138Y-15371871D01*
X35295641Y-15369989D01*
X35353004Y-15363164D01*
X35407749Y-15352007D01*
X35459949Y-15336493D01*
X35509677Y-15316597D01*
X35557007Y-15292295D01*
X35590388Y-15271555D01*
X35637619Y-15236910D01*
X35681298Y-15198707D01*
X35721299Y-15157136D01*
X35757496Y-15112390D01*
X35789763Y-15064661D01*
X35817975Y-15014139D01*
X35842005Y-14961017D01*
X35861727Y-14905487D01*
X35877015Y-14847741D01*
X35880897Y-14829101D01*
X35886156Y-14800152D01*
X35890105Y-14773410D01*
X35892890Y-14747322D01*
X35894654Y-14720337D01*
X35895540Y-14690901D01*
X35895714Y-14669125D01*
X35895655Y-14647898D01*
X35895381Y-14630621D01*
X35894826Y-14616165D01*
X35893923Y-14603401D01*
X35892606Y-14591202D01*
X35890807Y-14578440D01*
X35890091Y-14573875D01*
X35887201Y-14557806D01*
X35883182Y-14538242D01*
X35878357Y-14516558D01*
X35873047Y-14494125D01*
X35867575Y-14472319D01*
X35862263Y-14452512D01*
X35858800Y-14440530D01*
X35855363Y-14429105D01*
X35830256Y-14422141D01*
X35796496Y-14413318D01*
X35766138Y-14406630D01*
X35738050Y-14401924D01*
X35711098Y-14399048D01*
X35684148Y-14397849D01*
X35656067Y-14398175D01*
X35653059Y-14398289D01*
X35594863Y-14402869D01*
X35539051Y-14411880D01*
X35485373Y-14425413D01*
X35433576Y-14443557D01*
X35383408Y-14466400D01*
X35334618Y-14494032D01*
X35286954Y-14526543D01*
X35282470Y-14529893D01*
X35239777Y-14565152D01*
X35199978Y-14604340D01*
X35163359Y-14647024D01*
X35130205Y-14692775D01*
X35100803Y-14741160D01*
X35075438Y-14791750D01*
X35054395Y-14844111D01*
X35037962Y-14897814D01*
X35037596Y-14899237D01*
X35027885Y-14941379D01*
X35020724Y-14982602D01*
X35015929Y-15024413D01*
X35013316Y-15068316D01*
X35012678Y-15103465D01*
X34681648Y-15103465D01*
X34673794Y-15067845D01*
X34664818Y-15013367D01*
X34662992Y-14999325D01*
X34661694Y-14985623D01*
X34660597Y-14967864D01*
X34659716Y-14947070D01*
X34659065Y-14924260D01*
X34658658Y-14900455D01*
X34658510Y-14876675D01*
X34658635Y-14853940D01*
X34659047Y-14833271D01*
X34659760Y-14815688D01*
X34660305Y-14807469D01*
X34667588Y-14741445D01*
X34678751Y-14678486D01*
X34693915Y-14618241D01*
X34713197Y-14560359D01*
X34736719Y-14504490D01*
X34764599Y-14450284D01*
X34796958Y-14397388D01*
X34803489Y-14387653D01*
X34840614Y-14337448D01*
X34881310Y-14290594D01*
X34925306Y-14247265D01*
X34972334Y-14207636D01*
X35022123Y-14171882D01*
X35074404Y-14140177D01*
X35128908Y-14112697D01*
X35185364Y-14089615D01*
X35243504Y-14071107D01*
X35303057Y-14057347D01*
X35317104Y-14054842D01*
X35341942Y-14050995D01*
X35365487Y-14048123D01*
X35388956Y-14046151D01*
X35413570Y-14045006D01*
X35440546Y-14044614D01*
X35471106Y-14044898D01*
X35477770Y-14045030D01*
X35506688Y-14045845D01*
X35531753Y-14047046D01*
X35554187Y-14048768D01*
X35575209Y-14051143D01*
X35596041Y-14054304D01*
X35617904Y-14058384D01*
X35636704Y-14062345D01*
X35673343Y-14071548D01*
X35710950Y-14083202D01*
X35748451Y-14096869D01*
X35784766Y-14112106D01*
X35818821Y-14128475D01*
X35849537Y-14145534D01*
X35866379Y-14156229D01*
X35872446Y-14160107D01*
X35876362Y-14162218D01*
X35877174Y-14162318D01*
X35875591Y-14158774D01*
X35871163Y-14151993D01*
X35864365Y-14142579D01*
X35855674Y-14131138D01*
X35845568Y-14118274D01*
X35834523Y-14104591D01*
X35823017Y-14090695D01*
X35811526Y-14077190D01*
X35800527Y-14064680D01*
X35797687Y-14061534D01*
X35765707Y-14029153D01*
X35729522Y-13997542D01*
X35690005Y-13967294D01*
X35648027Y-13938999D01*
X35604460Y-13913248D01*
X35560177Y-13890633D01*
X35519835Y-13873214D01*
X35465114Y-13854378D01*
X35408106Y-13839771D01*
X35349368Y-13829414D01*
X35289452Y-13823326D01*
X35228915Y-13821525D01*
X35168310Y-13824030D01*
X35108193Y-13830861D01*
X35049118Y-13842036D01*
X34998802Y-13855367D01*
X34949388Y-13872457D01*
X34899638Y-13893768D01*
X34850774Y-13918687D01*
X34804020Y-13946599D01*
X34769062Y-13970596D01*
X34719671Y-14009854D01*
X34673666Y-14052797D01*
X34631224Y-14099169D01*
X34592523Y-14148716D01*
X34557741Y-14201183D01*
X34527055Y-14256314D01*
X34500644Y-14313855D01*
X34478686Y-14373550D01*
X34471371Y-14397345D01*
X34457299Y-14453441D01*
X34446731Y-14512382D01*
X34439705Y-14573302D01*
X34436256Y-14635334D01*
X33866940Y-14635334D01*
X33867918Y-14588217D01*
X33873651Y-14507654D01*
X33883450Y-14428654D01*
X33897341Y-14351805D01*
X33903622Y-14323613D01*
X33924872Y-14243398D01*
X33950331Y-14165972D01*
X33980091Y-14091154D01*
X34014243Y-14018762D01*
X34052879Y-13948617D01*
X34096090Y-13880537D01*
X34143968Y-13814342D01*
X34190849Y-13756551D01*
X34242008Y-13700283D01*
X34296962Y-13646704D01*
X34355286Y-13596097D01*
X34416558Y-13548747D01*
X34480354Y-13504936D01*
X34546250Y-13464949D01*
X34613824Y-13429069D01*
X34682651Y-13397580D01*
X34752309Y-13370765D01*
X34781164Y-13361138D01*
X34817041Y-13350186D01*
X34852396Y-13340413D01*
X34888049Y-13331652D01*
X34924818Y-13323738D01*
X34963523Y-13316504D01*
X35004984Y-13309784D01*
X35050019Y-13303411D01*
X35091044Y-13298224D01*
X35149464Y-13291175D01*
X35710804Y-13291175D01*
X35773818Y-13291176D01*
X35831958Y-13291181D01*
X35885427Y-13291191D01*
X35934430Y-13291208D01*
X35979172Y-13291233D01*
X36019859Y-13291269D01*
X36056693Y-13291317D01*
X36089882Y-13291378D01*
X36119628Y-13291455D01*
X36146138Y-13291549D01*
X36169615Y-13291661D01*
X36190265Y-13291793D01*
X36208292Y-13291947D01*
X36223901Y-13292125D01*
X36237297Y-13292327D01*
X36248685Y-13292557D01*
X36258269Y-13292815D01*
X36266254Y-13293104D01*
X36272846Y-13293424D01*
X36278247Y-13293778D01*
X36282665Y-13294167D01*
X36286303Y-13294593D01*
X36289365Y-13295057D01*
X36292058Y-13295561D01*
X36293665Y-13295902D01*
X36326931Y-13304903D01*
X36360202Y-13317084D01*
X36392092Y-13331833D01*
X36421219Y-13348537D01*
X36436927Y-13359342D01*
X36453258Y-13371884D01*
X36467158Y-13383728D01*
X36479076Y-13395557D01*
X36489460Y-13408055D01*
X36498757Y-13421906D01*
X36507417Y-13437794D01*
X36515888Y-13456403D01*
X36524618Y-13478416D01*
X36534055Y-13504517D01*
X36536273Y-13510885D01*
X36540750Y-13523423D01*
X36544892Y-13534337D01*
X36548318Y-13542670D01*
X36550646Y-13547466D01*
X36551121Y-13548122D01*
X36554576Y-13549921D01*
X36561897Y-13552728D01*
X36572058Y-13556178D01*
X36584036Y-13559908D01*
X36585834Y-13560442D01*
X36616799Y-13570386D01*
X36643154Y-13580649D01*
X36665368Y-13591476D01*
X36683910Y-13603112D01*
X36699249Y-13615801D01*
X36706592Y-13623433D01*
X36716192Y-13636345D01*
X36726351Y-13653902D01*
X36736883Y-13675723D01*
X36747601Y-13701425D01*
X36756982Y-13726785D01*
X36761740Y-13740308D01*
X36765999Y-13752352D01*
X36769437Y-13762008D01*
X36771730Y-13768368D01*
X36772457Y-13770310D01*
X36775780Y-13773278D01*
X36782797Y-13776533D01*
X36789829Y-13778815D01*
X36818431Y-13787254D01*
X36844346Y-13795949D01*
X36866778Y-13804613D01*
X36884284Y-13812632D01*
X36894830Y-13818322D01*
X36903838Y-13824090D01*
X36912564Y-13830905D01*
X36922263Y-13839739D01*
X36932544Y-13849894D01*
X36961271Y-13882104D01*
X36985851Y-13916463D01*
X37006100Y-13952589D01*
X37021830Y-13990105D01*
X37032856Y-14028628D01*
X37038932Y-14067145D01*
X37039008Y-14070462D01*
X37039084Y-14078722D01*
X37039161Y-14091783D01*
X37039238Y-14109508D01*
X37039315Y-14131758D01*
X37039393Y-14158393D01*
X37039470Y-14189276D01*
X37039546Y-14224267D01*
X37039622Y-14263227D01*
X37039698Y-14306018D01*
X37039772Y-14352501D01*
X37039846Y-14402537D01*
X37039918Y-14455987D01*
X37039989Y-14512712D01*
X37040058Y-14572574D01*
X37040126Y-14635433D01*
X37040192Y-14701151D01*
X37040256Y-14769589D01*
X37040318Y-14840609D01*
X37040377Y-14914070D01*
X37040434Y-14989836D01*
X37040488Y-15067766D01*
X37040540Y-15147722D01*
X37040588Y-15229565D01*
X37040633Y-15313156D01*
X37040675Y-15398357D01*
X37040714Y-15485029D01*
X37040749Y-15573032D01*
X37040773Y-15641945D01*
X37041297Y-17202775D01*
X37035964Y-17226514D01*
X37024670Y-17268103D01*
X37010191Y-17306048D01*
X36992254Y-17340866D01*
X36970586Y-17373076D01*
X36944914Y-17403195D01*
X36940347Y-17407926D01*
X36909004Y-17436322D01*
X36874968Y-17460425D01*
X36838356Y-17480179D01*
X36799283Y-17495525D01*
X36757866Y-17506404D01*
X36737427Y-17509987D01*
X36721268Y-17511826D01*
X36702910Y-17513016D01*
X36684168Y-17513508D01*
X36666859Y-17513255D01*
X36653144Y-17512249D01*
X36608461Y-17504655D01*
X36566358Y-17492940D01*
X36527019Y-17477189D01*
X36490626Y-17457484D01*
X36457362Y-17433908D01*
X36433379Y-17412564D01*
X36421748Y-17400327D01*
X36411936Y-17387975D01*
X36403526Y-17374674D01*
X36396103Y-17359587D01*
X36389249Y-17341881D01*
X36382548Y-17320718D01*
X36376331Y-17298131D01*
X36372441Y-17283799D01*
X36368761Y-17271185D01*
X36365550Y-17261111D01*
X36363072Y-17254400D01*
X36361676Y-17251911D01*
X36357815Y-17250416D01*
X36350531Y-17248259D01*
X36341356Y-17245890D01*
X36340791Y-17245755D01*
X36310486Y-17237949D01*
X36284621Y-17230040D01*
X36262563Y-17221739D01*
X36243675Y-17212756D01*
X36227322Y-17202804D01*
X36212870Y-17191593D01*
X36204558Y-17183857D01*
X36194294Y-17172907D01*
X36185587Y-17161701D01*
X36178056Y-17149440D01*
X36171316Y-17135324D01*
X36164984Y-17118555D01*
X36158677Y-17098331D01*
X36152235Y-17074709D01*
X36140064Y-17027924D01*
X36100012Y-17016991D01*
X36072354Y-17008986D01*
X36049007Y-17001126D01*
X36029230Y-16993024D01*
X36012282Y-16984293D01*
X35997422Y-16974547D01*
X35983909Y-16963398D01*
X35971003Y-16950459D01*
X35969556Y-16948874D01*
X35960890Y-16938043D01*
X36233896Y-16938043D01*
X36235735Y-16959011D01*
X36241038Y-16992293D01*
X36250782Y-17023311D01*
X36264744Y-17051822D01*
X36282703Y-17077582D01*
X36304438Y-17100349D01*
X36329729Y-17119879D01*
X36358354Y-17135929D01*
X36390091Y-17148256D01*
X36413400Y-17154401D01*
X36426787Y-17156419D01*
X36443588Y-17157640D01*
X36462200Y-17158063D01*
X36481020Y-17157691D01*
X36498447Y-17156526D01*
X36512877Y-17154568D01*
X36514186Y-17154309D01*
X36544309Y-17146008D01*
X36571606Y-17133866D01*
X36596889Y-17117455D01*
X36617034Y-17100183D01*
X36636725Y-17079712D01*
X36652388Y-17059409D01*
X36664853Y-17037953D01*
X36674952Y-17014027D01*
X36679094Y-17001625D01*
X36686057Y-16979255D01*
X36685877Y-13844895D01*
X36680326Y-13824884D01*
X36670182Y-13796635D01*
X36655876Y-13768993D01*
X36638034Y-13742662D01*
X36617282Y-13718349D01*
X36594243Y-13696759D01*
X36569544Y-13678598D01*
X36543810Y-13664572D01*
X36535096Y-13660932D01*
X36522408Y-13656566D01*
X36508143Y-13652481D01*
X36493825Y-13649038D01*
X36480980Y-13646600D01*
X36471131Y-13645526D01*
X36469974Y-13645505D01*
X36463119Y-13645505D01*
X36465093Y-16750655D01*
X36459383Y-16770975D01*
X36447861Y-16803357D01*
X36432261Y-16832788D01*
X36412395Y-16859576D01*
X36396252Y-16876540D01*
X36371518Y-16897428D01*
X36345690Y-16913614D01*
X36318143Y-16925372D01*
X36288250Y-16932971D01*
X36258100Y-16936527D01*
X36233896Y-16938043D01*
X35960890Y-16938043D01*
X35944272Y-16917277D01*
X35922884Y-16882589D01*
G37*
X35922884Y-16882589D02*
X35905336Y-16844697D01*
X35891572Y-16803488D01*
X35886560Y-16783675D01*
X35885506Y-16778867D01*
X35884599Y-16774030D01*
X35883825Y-16768748D01*
X35883171Y-16762604D01*
X35882622Y-16755183D01*
X35882165Y-16746067D01*
X35881787Y-16734840D01*
X35881474Y-16721087D01*
X35881213Y-16704392D01*
X35880988Y-16684337D01*
X35880788Y-16660507D01*
X35880599Y-16632486D01*
X35880405Y-16599857D01*
X35880378Y-16595080D01*
X35880196Y-16566577D01*
X35879982Y-16539625D01*
X35879741Y-16514644D01*
X35879481Y-16492054D01*
X35879207Y-16472278D01*
X35878925Y-16455735D01*
X35878641Y-16442846D01*
X35878362Y-16434034D01*
X35878093Y-16429718D01*
X35877993Y-16429345D01*
X35875239Y-16429952D01*
X35868233Y-16431663D01*
X35857641Y-16434311D01*
X35844128Y-16437727D01*
X35828361Y-16441744D01*
X35812723Y-16445753D01*
X35774484Y-16455339D01*
X35740240Y-16463328D01*
X35709196Y-16469809D01*
X35680553Y-16474873D01*
X35653517Y-16478609D01*
X35627290Y-16481106D01*
X35601075Y-16482454D01*
X35574077Y-16482743D01*
X35545499Y-16482062D01*
X35514544Y-16480500D01*
X35507560Y-16480062D01*
X35427961Y-16472572D01*
X35350045Y-16460524D01*
X35273983Y-16443976D01*
X35199948Y-16422982D01*
X35128112Y-16397598D01*
X35058648Y-16367883D01*
X34991727Y-16333890D01*
X34927522Y-16295676D01*
X34913244Y-16286353D01*
X34854092Y-16244419D01*
X34796175Y-16198128D01*
X34740255Y-16148184D01*
X34687093Y-16095289D01*
X34637450Y-16040145D01*
X34609856Y-16006506D01*
X34601623Y-15996988D01*
X34590760Y-15985686D01*
X34578628Y-15973960D01*
X34566588Y-15963168D01*
X34565583Y-15962312D01*
X34551378Y-15949815D01*
X34534633Y-15934328D01*
X34516167Y-15916672D01*
X34496801Y-15897667D01*
X34477355Y-15878134D01*
X34458647Y-15858895D01*
X34441498Y-15840768D01*
X34426727Y-15824576D01*
X34418099Y-15814665D01*
X34405776Y-15800827D01*
X34392540Y-15787174D01*
X34379810Y-15775127D01*
X34371366Y-15767931D01*
X34311160Y-15716841D01*
X34287143Y-15693825D01*
X34482714Y-15693825D01*
X34484364Y-15696799D01*
X34488986Y-15702918D01*
X34496081Y-15711617D01*
X34505153Y-15722327D01*
X34515705Y-15734483D01*
X34527240Y-15747516D01*
X34539262Y-15760861D01*
X34551273Y-15773950D01*
X34562777Y-15786216D01*
X34572707Y-15796513D01*
X34624636Y-15846724D01*
X34677265Y-15892155D01*
X34731028Y-15933101D01*
X34786361Y-15969854D01*
X34843695Y-16002709D01*
X34903467Y-16031958D01*
X34950151Y-16051704D01*
X35006668Y-16072069D01*
X35065927Y-16089584D01*
X35126534Y-16103918D01*
X35187095Y-16114744D01*
X35246215Y-16121734D01*
X35248524Y-16121928D01*
X35261969Y-16123057D01*
X35274052Y-16124097D01*
X35283640Y-16124948D01*
X35289600Y-16125512D01*
X35290434Y-16125601D01*
X35298840Y-16126185D01*
X35311460Y-16126577D01*
X35327429Y-16126787D01*
X35345883Y-16126827D01*
X35365961Y-16126707D01*
X35386797Y-16126438D01*
X35407530Y-16126030D01*
X35427296Y-16125496D01*
X35445231Y-16124845D01*
X35460471Y-16124089D01*
X35471187Y-16123325D01*
X35538509Y-16115655D01*
X35602760Y-16104697D01*
X35664930Y-16090217D01*
X35726007Y-16071983D01*
X35786979Y-16049762D01*
X35792084Y-16047724D01*
X35828197Y-16032424D01*
X35862418Y-16016193D01*
X35896039Y-15998341D01*
X35930355Y-15978178D01*
X35966659Y-15955014D01*
X35970519Y-15952459D01*
X36006714Y-15928429D01*
X36006714Y-15506798D01*
X35997704Y-15514708D01*
X35993634Y-15518511D01*
X35986529Y-15525394D01*
X35976929Y-15534827D01*
X35965371Y-15546277D01*
X35952393Y-15559214D01*
X35938533Y-15573106D01*
X35934839Y-15576821D01*
X35907898Y-15603512D01*
X35883225Y-15626974D01*
X35859923Y-15647952D01*
X35837099Y-15667194D01*
X35813858Y-15685445D01*
X35789304Y-15703453D01*
X35762544Y-15721963D01*
X35753984Y-15727705D01*
X35691920Y-15766060D01*
X35627739Y-15799804D01*
X35561482Y-15828926D01*
X35493192Y-15853413D01*
X35422911Y-15873253D01*
X35350679Y-15888433D01*
X35276540Y-15898942D01*
X35200536Y-15904767D01*
X35143114Y-15906054D01*
X35065812Y-15903773D01*
X34990656Y-15896915D01*
X34917544Y-15885457D01*
X34846370Y-15869376D01*
X34777031Y-15848650D01*
X34709422Y-15823256D01*
X34655434Y-15799044D01*
X34624003Y-15783473D01*
X34596226Y-15768741D01*
X34570920Y-15754137D01*
X34546899Y-15738951D01*
X34522979Y-15722475D01*
X34502399Y-15707344D01*
X34494047Y-15701178D01*
X34487454Y-15696546D01*
X34483482Y-15694042D01*
X34482714Y-15693825D01*
X34287143Y-15693825D01*
X34253554Y-15661637D01*
X34198954Y-15602787D01*
X34147766Y-15540761D01*
X34100397Y-15476025D01*
X34057253Y-15409049D01*
X34051172Y-15398840D01*
X34031411Y-15363388D01*
X34011533Y-15324085D01*
X33992064Y-15282118D01*
X33973528Y-15238676D01*
X33956451Y-15194946D01*
X33941360Y-15152116D01*
X33939487Y-15146420D01*
X33917475Y-15071415D01*
X33899350Y-14993848D01*
X33885136Y-14914310D01*
X33874861Y-14833388D01*
X33868549Y-14751673D01*
X33866226Y-14669753D01*
X33866940Y-14635334D01*
X34436256Y-14635334D01*
X34436422Y-14697612D01*
X34440239Y-14759270D01*
X34447742Y-14819440D01*
X34452460Y-14846472D01*
X34467018Y-14910470D01*
X34485640Y-14971452D01*
X34508319Y-15029400D01*
X34535049Y-15084299D01*
X34565824Y-15136133D01*
X34570190Y-15142748D01*
X34606121Y-15192936D01*
X34644252Y-15239017D01*
X34685288Y-15281740D01*
X34729935Y-15321854D01*
X34765297Y-15349985D01*
X34775081Y-15357316D01*
X34783288Y-15363311D01*
X34789144Y-15367417D01*
X34791871Y-15369077D01*
X34791967Y-15369078D01*
X34790938Y-15366840D01*
X34787653Y-15361301D01*
X34782672Y-15353386D01*
X34778583Y-15347085D01*
X34756037Y-15309171D01*
X34735262Y-15267018D01*
X34716453Y-15221218D01*
X34699808Y-15172361D01*
X34685523Y-15121040D01*
X34681648Y-15103465D01*
X35012678Y-15103465D01*
X35012841Y-15128700D01*
X35013587Y-15150502D01*
X35015075Y-15170499D01*
X35017461Y-15190321D01*
X35020903Y-15211595D01*
X35025351Y-15234920D01*
X35028632Y-15250371D01*
X35032423Y-15266694D01*
X35036504Y-15283102D01*
X35040659Y-15298813D01*
X35044672Y-15313040D01*
X35048324Y-15324999D01*
X35051398Y-15333904D01*
X35053678Y-15338972D01*
X35054357Y-15339773D01*
X35058172Y-15341195D01*
X35066057Y-15343487D01*
X35077119Y-15346434D01*
X35090466Y-15349821D01*
X35105204Y-15353433D01*
X35120441Y-15357055D01*
X35135285Y-15360473D01*
X35148841Y-15363472D01*
X35160218Y-15365836D01*
X35168523Y-15367352D01*
X35169784Y-15367541D01*
X35200583Y-15370934D01*
X35231871Y-15372368D01*
X35265138Y-15371871D01*
X35295641Y-15369989D01*
X35353004Y-15363164D01*
X35407749Y-15352007D01*
X35459949Y-15336493D01*
X35509677Y-15316597D01*
X35557007Y-15292295D01*
X35590388Y-15271555D01*
X35637619Y-15236910D01*
X35681298Y-15198707D01*
X35721299Y-15157136D01*
X35757496Y-15112390D01*
X35789763Y-15064661D01*
X35817975Y-15014139D01*
X35842005Y-14961017D01*
X35861727Y-14905487D01*
X35877015Y-14847741D01*
X35880897Y-14829101D01*
X35886156Y-14800152D01*
X35890105Y-14773410D01*
X35892890Y-14747322D01*
X35894654Y-14720337D01*
X35895540Y-14690901D01*
X35895714Y-14669125D01*
X35895655Y-14647898D01*
X35895381Y-14630621D01*
X35894826Y-14616165D01*
X35893923Y-14603401D01*
X35892606Y-14591202D01*
X35890807Y-14578440D01*
X35890091Y-14573875D01*
X35887201Y-14557806D01*
X35883182Y-14538242D01*
X35878357Y-14516558D01*
X35873047Y-14494125D01*
X35867575Y-14472319D01*
X35862263Y-14452512D01*
X35858800Y-14440530D01*
X35855363Y-14429105D01*
X35830256Y-14422141D01*
X35796496Y-14413318D01*
X35766138Y-14406630D01*
X35738050Y-14401924D01*
X35711098Y-14399048D01*
X35684148Y-14397849D01*
X35656067Y-14398175D01*
X35653059Y-14398289D01*
X35594863Y-14402869D01*
X35539051Y-14411880D01*
X35485373Y-14425413D01*
X35433576Y-14443557D01*
X35383408Y-14466400D01*
X35334618Y-14494032D01*
X35286954Y-14526543D01*
X35282470Y-14529893D01*
X35239777Y-14565152D01*
X35199978Y-14604340D01*
X35163359Y-14647024D01*
X35130205Y-14692775D01*
X35100803Y-14741160D01*
X35075438Y-14791750D01*
X35054395Y-14844111D01*
X35037962Y-14897814D01*
X35037596Y-14899237D01*
X35027885Y-14941379D01*
X35020724Y-14982602D01*
X35015929Y-15024413D01*
X35013316Y-15068316D01*
X35012678Y-15103465D01*
X34681648Y-15103465D01*
X34673794Y-15067845D01*
X34664818Y-15013367D01*
X34662992Y-14999325D01*
X34661694Y-14985623D01*
X34660597Y-14967864D01*
X34659716Y-14947070D01*
X34659065Y-14924260D01*
X34658658Y-14900455D01*
X34658510Y-14876675D01*
X34658635Y-14853940D01*
X34659047Y-14833271D01*
X34659760Y-14815688D01*
X34660305Y-14807469D01*
X34667588Y-14741445D01*
X34678751Y-14678486D01*
X34693915Y-14618241D01*
X34713197Y-14560359D01*
X34736719Y-14504490D01*
X34764599Y-14450284D01*
X34796958Y-14397388D01*
X34803489Y-14387653D01*
X34840614Y-14337448D01*
X34881310Y-14290594D01*
X34925306Y-14247265D01*
X34972334Y-14207636D01*
X35022123Y-14171882D01*
X35074404Y-14140177D01*
X35128908Y-14112697D01*
X35185364Y-14089615D01*
X35243504Y-14071107D01*
X35303057Y-14057347D01*
X35317104Y-14054842D01*
X35341942Y-14050995D01*
X35365487Y-14048123D01*
X35388956Y-14046151D01*
X35413570Y-14045006D01*
X35440546Y-14044614D01*
X35471106Y-14044898D01*
X35477770Y-14045030D01*
X35506688Y-14045845D01*
X35531753Y-14047046D01*
X35554187Y-14048768D01*
X35575209Y-14051143D01*
X35596041Y-14054304D01*
X35617904Y-14058384D01*
X35636704Y-14062345D01*
X35673343Y-14071548D01*
X35710950Y-14083202D01*
X35748451Y-14096869D01*
X35784766Y-14112106D01*
X35818821Y-14128475D01*
X35849537Y-14145534D01*
X35866379Y-14156229D01*
X35872446Y-14160107D01*
X35876362Y-14162218D01*
X35877174Y-14162318D01*
X35875591Y-14158774D01*
X35871163Y-14151993D01*
X35864365Y-14142579D01*
X35855674Y-14131138D01*
X35845568Y-14118274D01*
X35834523Y-14104591D01*
X35823017Y-14090695D01*
X35811526Y-14077190D01*
X35800527Y-14064680D01*
X35797687Y-14061534D01*
X35765707Y-14029153D01*
X35729522Y-13997542D01*
X35690005Y-13967294D01*
X35648027Y-13938999D01*
X35604460Y-13913248D01*
X35560177Y-13890633D01*
X35519835Y-13873214D01*
X35465114Y-13854378D01*
X35408106Y-13839771D01*
X35349368Y-13829414D01*
X35289452Y-13823326D01*
X35228915Y-13821525D01*
X35168310Y-13824030D01*
X35108193Y-13830861D01*
X35049118Y-13842036D01*
X34998802Y-13855367D01*
X34949388Y-13872457D01*
X34899638Y-13893768D01*
X34850774Y-13918687D01*
X34804020Y-13946599D01*
X34769062Y-13970596D01*
X34719671Y-14009854D01*
X34673666Y-14052797D01*
X34631224Y-14099169D01*
X34592523Y-14148716D01*
X34557741Y-14201183D01*
X34527055Y-14256314D01*
X34500644Y-14313855D01*
X34478686Y-14373550D01*
X34471371Y-14397345D01*
X34457299Y-14453441D01*
X34446731Y-14512382D01*
X34439705Y-14573302D01*
X34436256Y-14635334D01*
X33866940Y-14635334D01*
X33867918Y-14588217D01*
X33873651Y-14507654D01*
X33883450Y-14428654D01*
X33897341Y-14351805D01*
X33903622Y-14323613D01*
X33924872Y-14243398D01*
X33950331Y-14165972D01*
X33980091Y-14091154D01*
X34014243Y-14018762D01*
X34052879Y-13948617D01*
X34096090Y-13880537D01*
X34143968Y-13814342D01*
X34190849Y-13756551D01*
X34242008Y-13700283D01*
X34296962Y-13646704D01*
X34355286Y-13596097D01*
X34416558Y-13548747D01*
X34480354Y-13504936D01*
X34546250Y-13464949D01*
X34613824Y-13429069D01*
X34682651Y-13397580D01*
X34752309Y-13370765D01*
X34781164Y-13361138D01*
X34817041Y-13350186D01*
X34852396Y-13340413D01*
X34888049Y-13331652D01*
X34924818Y-13323738D01*
X34963523Y-13316504D01*
X35004984Y-13309784D01*
X35050019Y-13303411D01*
X35091044Y-13298224D01*
X35149464Y-13291175D01*
X35710804Y-13291175D01*
X35773818Y-13291176D01*
X35831958Y-13291181D01*
X35885427Y-13291191D01*
X35934430Y-13291208D01*
X35979172Y-13291233D01*
X36019859Y-13291269D01*
X36056693Y-13291317D01*
X36089882Y-13291378D01*
X36119628Y-13291455D01*
X36146138Y-13291549D01*
X36169615Y-13291661D01*
X36190265Y-13291793D01*
X36208292Y-13291947D01*
X36223901Y-13292125D01*
X36237297Y-13292327D01*
X36248685Y-13292557D01*
X36258269Y-13292815D01*
X36266254Y-13293104D01*
X36272846Y-13293424D01*
X36278247Y-13293778D01*
X36282665Y-13294167D01*
X36286303Y-13294593D01*
X36289365Y-13295057D01*
X36292058Y-13295561D01*
X36293665Y-13295902D01*
X36326931Y-13304903D01*
X36360202Y-13317084D01*
X36392092Y-13331833D01*
X36421219Y-13348537D01*
X36436927Y-13359342D01*
X36453258Y-13371884D01*
X36467158Y-13383728D01*
X36479076Y-13395557D01*
X36489460Y-13408055D01*
X36498757Y-13421906D01*
X36507417Y-13437794D01*
X36515888Y-13456403D01*
X36524618Y-13478416D01*
X36534055Y-13504517D01*
X36536273Y-13510885D01*
X36540750Y-13523423D01*
X36544892Y-13534337D01*
X36548318Y-13542670D01*
X36550646Y-13547466D01*
X36551121Y-13548122D01*
X36554576Y-13549921D01*
X36561897Y-13552728D01*
X36572058Y-13556178D01*
X36584036Y-13559908D01*
X36585834Y-13560442D01*
X36616799Y-13570386D01*
X36643154Y-13580649D01*
X36665368Y-13591476D01*
X36683910Y-13603112D01*
X36699249Y-13615801D01*
X36706592Y-13623433D01*
X36716192Y-13636345D01*
X36726351Y-13653902D01*
X36736883Y-13675723D01*
X36747601Y-13701425D01*
X36756982Y-13726785D01*
X36761740Y-13740308D01*
X36765999Y-13752352D01*
X36769437Y-13762008D01*
X36771730Y-13768368D01*
X36772457Y-13770310D01*
X36775780Y-13773278D01*
X36782797Y-13776533D01*
X36789829Y-13778815D01*
X36818431Y-13787254D01*
X36844346Y-13795949D01*
X36866778Y-13804613D01*
X36884284Y-13812632D01*
X36894830Y-13818322D01*
X36903838Y-13824090D01*
X36912564Y-13830905D01*
X36922263Y-13839739D01*
X36932544Y-13849894D01*
X36961271Y-13882104D01*
X36985851Y-13916463D01*
X37006100Y-13952589D01*
X37021830Y-13990105D01*
X37032856Y-14028628D01*
X37038932Y-14067145D01*
X37039008Y-14070462D01*
X37039084Y-14078722D01*
X37039161Y-14091783D01*
X37039238Y-14109508D01*
X37039315Y-14131758D01*
X37039393Y-14158393D01*
X37039470Y-14189276D01*
X37039546Y-14224267D01*
X37039622Y-14263227D01*
X37039698Y-14306018D01*
X37039772Y-14352501D01*
X37039846Y-14402537D01*
X37039918Y-14455987D01*
X37039989Y-14512712D01*
X37040058Y-14572574D01*
X37040126Y-14635433D01*
X37040192Y-14701151D01*
X37040256Y-14769589D01*
X37040318Y-14840609D01*
X37040377Y-14914070D01*
X37040434Y-14989836D01*
X37040488Y-15067766D01*
X37040540Y-15147722D01*
X37040588Y-15229565D01*
X37040633Y-15313156D01*
X37040675Y-15398357D01*
X37040714Y-15485029D01*
X37040749Y-15573032D01*
X37040773Y-15641945D01*
X37041297Y-17202775D01*
X37035964Y-17226514D01*
X37024670Y-17268103D01*
X37010191Y-17306048D01*
X36992254Y-17340866D01*
X36970586Y-17373076D01*
X36944914Y-17403195D01*
X36940347Y-17407926D01*
X36909004Y-17436322D01*
X36874968Y-17460425D01*
X36838356Y-17480179D01*
X36799283Y-17495525D01*
X36757866Y-17506404D01*
X36737427Y-17509987D01*
X36721268Y-17511826D01*
X36702910Y-17513016D01*
X36684168Y-17513508D01*
X36666859Y-17513255D01*
X36653144Y-17512249D01*
X36608461Y-17504655D01*
X36566358Y-17492940D01*
X36527019Y-17477189D01*
X36490626Y-17457484D01*
X36457362Y-17433908D01*
X36433379Y-17412564D01*
X36421748Y-17400327D01*
X36411936Y-17387975D01*
X36403526Y-17374674D01*
X36396103Y-17359587D01*
X36389249Y-17341881D01*
X36382548Y-17320718D01*
X36376331Y-17298131D01*
X36372441Y-17283799D01*
X36368761Y-17271185D01*
X36365550Y-17261111D01*
X36363072Y-17254400D01*
X36361676Y-17251911D01*
X36357815Y-17250416D01*
X36350531Y-17248259D01*
X36341356Y-17245890D01*
X36340791Y-17245755D01*
X36310486Y-17237949D01*
X36284621Y-17230040D01*
X36262563Y-17221739D01*
X36243675Y-17212756D01*
X36227322Y-17202804D01*
X36212870Y-17191593D01*
X36204558Y-17183857D01*
X36194294Y-17172907D01*
X36185587Y-17161701D01*
X36178056Y-17149440D01*
X36171316Y-17135324D01*
X36164984Y-17118555D01*
X36158677Y-17098331D01*
X36152235Y-17074709D01*
X36140064Y-17027924D01*
X36100012Y-17016991D01*
X36072354Y-17008986D01*
X36049007Y-17001126D01*
X36029230Y-16993024D01*
X36012282Y-16984293D01*
X35997422Y-16974547D01*
X35983909Y-16963398D01*
X35971003Y-16950459D01*
X35969556Y-16948874D01*
X35960890Y-16938043D01*
X36233896Y-16938043D01*
X36235735Y-16959011D01*
X36241038Y-16992293D01*
X36250782Y-17023311D01*
X36264744Y-17051822D01*
X36282703Y-17077582D01*
X36304438Y-17100349D01*
X36329729Y-17119879D01*
X36358354Y-17135929D01*
X36390091Y-17148256D01*
X36413400Y-17154401D01*
X36426787Y-17156419D01*
X36443588Y-17157640D01*
X36462200Y-17158063D01*
X36481020Y-17157691D01*
X36498447Y-17156526D01*
X36512877Y-17154568D01*
X36514186Y-17154309D01*
X36544309Y-17146008D01*
X36571606Y-17133866D01*
X36596889Y-17117455D01*
X36617034Y-17100183D01*
X36636725Y-17079712D01*
X36652388Y-17059409D01*
X36664853Y-17037953D01*
X36674952Y-17014027D01*
X36679094Y-17001625D01*
X36686057Y-16979255D01*
X36685877Y-13844895D01*
X36680326Y-13824884D01*
X36670182Y-13796635D01*
X36655876Y-13768993D01*
X36638034Y-13742662D01*
X36617282Y-13718349D01*
X36594243Y-13696759D01*
X36569544Y-13678598D01*
X36543810Y-13664572D01*
X36535096Y-13660932D01*
X36522408Y-13656566D01*
X36508143Y-13652481D01*
X36493825Y-13649038D01*
X36480980Y-13646600D01*
X36471131Y-13645526D01*
X36469974Y-13645505D01*
X36463119Y-13645505D01*
X36465093Y-16750655D01*
X36459383Y-16770975D01*
X36447861Y-16803357D01*
X36432261Y-16832788D01*
X36412395Y-16859576D01*
X36396252Y-16876540D01*
X36371518Y-16897428D01*
X36345690Y-16913614D01*
X36318143Y-16925372D01*
X36288250Y-16932971D01*
X36258100Y-16936527D01*
X36233896Y-16938043D01*
X35960890Y-16938043D01*
X35944272Y-16917277D01*
X35922884Y-16882589D01*
X37349104Y-13306435D02*
X37391998Y-13311945D01*
X37391998Y-13311945D02*
X37431990Y-13321536D01*
X37431990Y-13321536D02*
X37469363Y-13335326D01*
X37469363Y-13335326D02*
X37504399Y-13353438D01*
X37504399Y-13353438D02*
X37537379Y-13375993D01*
X37537379Y-13375993D02*
X37563814Y-13398567D01*
X37563814Y-13398567D02*
X37587195Y-13423550D01*
X37587195Y-13423550D02*
X37609048Y-13453211D01*
X37609048Y-13453211D02*
X37629246Y-13487344D01*
X37629246Y-13487344D02*
X37647657Y-13525745D01*
X37647657Y-13525745D02*
X37655317Y-13544340D01*
X37655317Y-13544340D02*
X37663968Y-13566366D01*
X37663968Y-13566366D02*
X37697036Y-13575600D01*
X37697036Y-13575600D02*
X37718125Y-13581843D01*
X37718125Y-13581843D02*
X37735304Y-13587895D01*
X37735304Y-13587895D02*
X37749678Y-13594359D01*
X37749678Y-13594359D02*
X37762355Y-13601835D01*
X37762355Y-13601835D02*
X37774441Y-13610922D01*
X37774441Y-13610922D02*
X37787043Y-13622223D01*
X37787043Y-13622223D02*
X37792253Y-13627276D01*
X37792253Y-13627276D02*
X37812355Y-13649122D01*
X37812355Y-13649122D02*
X37830700Y-13673476D01*
X37830700Y-13673476D02*
X37847689Y-13700984D01*
X37847689Y-13700984D02*
X37863721Y-13732292D01*
X37863721Y-13732292D02*
X37878870Y-13767235D01*
X37878870Y-13767235D02*
X37888508Y-13791176D01*
X37888508Y-13791176D02*
X37922336Y-13801023D01*
X37922336Y-13801023D02*
X37941920Y-13806962D01*
X37941920Y-13806962D02*
X37957565Y-13812344D01*
X37957565Y-13812344D02*
X37970307Y-13817640D01*
X37970307Y-13817640D02*
X37981181Y-13823320D01*
X37981181Y-13823320D02*
X37991223Y-13829854D01*
X37991223Y-13829854D02*
X37999344Y-13836005D01*
X37999344Y-13836005D02*
X38025886Y-13859974D01*
X38025886Y-13859974D02*
X38050910Y-13888267D01*
X38050910Y-13888267D02*
X38073906Y-13920229D01*
X38073906Y-13920229D02*
X38094361Y-13955205D01*
X38094361Y-13955205D02*
X38098305Y-13962908D01*
X38098305Y-13962908D02*
X38103877Y-13974276D01*
X38103877Y-13974276D02*
X38108999Y-13985275D01*
X38108999Y-13985275D02*
X38113887Y-13996497D01*
X38113887Y-13996497D02*
X38118758Y-14008531D01*
X38118758Y-14008531D02*
X38123829Y-14021969D01*
X38123829Y-14021969D02*
X38129317Y-14037401D01*
X38129317Y-14037401D02*
X38135439Y-14055418D01*
X38135439Y-14055418D02*
X38142412Y-14076611D01*
X38142412Y-14076611D02*
X38150453Y-14101570D01*
X38150453Y-14101570D02*
X38158348Y-14126373D01*
X38158348Y-14126373D02*
X38166626Y-14152247D01*
X38166626Y-14152247D02*
X38173542Y-14173365D01*
X38173542Y-14173365D02*
X38179141Y-14189853D01*
X38179141Y-14189853D02*
X38183469Y-14201837D01*
X38183469Y-14201837D02*
X38186569Y-14209441D01*
X38186569Y-14209441D02*
X38188487Y-14212792D01*
X38188487Y-14212792D02*
X38189128Y-14212733D01*
X38189128Y-14212733D02*
X38190071Y-14209781D01*
X38190071Y-14209781D02*
X38192372Y-14202244D01*
X38192372Y-14202244D02*
X38195946Y-14190406D01*
X38195946Y-14190406D02*
X38200708Y-14174554D01*
X38200708Y-14174554D02*
X38206573Y-14154972D01*
X38206573Y-14154972D02*
X38213456Y-14131945D01*
X38213456Y-14131945D02*
X38221271Y-14105760D01*
X38221271Y-14105760D02*
X38229934Y-14076700D01*
X38229934Y-14076700D02*
X38239359Y-14045052D01*
X38239359Y-14045052D02*
X38249461Y-14011100D01*
X38249461Y-14011100D02*
X38260156Y-13975130D01*
X38260156Y-13975130D02*
X38271357Y-13937428D01*
X38271357Y-13937428D02*
X38282981Y-13898277D01*
X38282981Y-13898277D02*
X38289024Y-13877915D01*
X38289024Y-13877915D02*
X38301803Y-13834921D01*
X38301803Y-13834921D02*
X38314142Y-13793560D01*
X38314142Y-13793560D02*
X38325961Y-13754100D01*
X38325961Y-13754100D02*
X38337174Y-13716813D01*
X38337174Y-13716813D02*
X38347701Y-13681968D01*
X38347701Y-13681968D02*
X38353752Y-13662042D01*
X38353752Y-13662042D02*
X38963831Y-13662042D01*
X38963831Y-13662042D02*
X38964140Y-13664527D01*
X38964140Y-13664527D02*
X38964406Y-13665391D01*
X38964406Y-13665391D02*
X38965123Y-13668115D01*
X38965123Y-13668115D02*
X38967044Y-13675528D01*
X38967044Y-13675528D02*
X38970108Y-13687399D01*
X38970108Y-13687399D02*
X38974256Y-13703497D01*
X38974256Y-13703497D02*
X38979430Y-13723591D01*
X38979430Y-13723591D02*
X38985570Y-13747449D01*
X38985570Y-13747449D02*
X38992615Y-13774840D01*
X38992615Y-13774840D02*
X39000508Y-13805533D01*
X39000508Y-13805533D02*
X39009189Y-13839297D01*
X39009189Y-13839297D02*
X39018597Y-13875901D01*
X39018597Y-13875901D02*
X39028675Y-13915113D01*
X39028675Y-13915113D02*
X39039361Y-13956702D01*
X39039361Y-13956702D02*
X39050598Y-14000436D01*
X39050598Y-14000436D02*
X39062326Y-14046086D01*
X39062326Y-14046086D02*
X39074485Y-14093419D01*
X39074485Y-14093419D02*
X39087016Y-14142203D01*
X39087016Y-14142203D02*
X39099860Y-14192209D01*
X39099860Y-14192209D02*
X39112957Y-14243205D01*
X39112957Y-14243205D02*
X39126248Y-14294959D01*
X39126248Y-14294959D02*
X39139673Y-14347240D01*
X39139673Y-14347240D02*
X39153173Y-14399817D01*
X39153173Y-14399817D02*
X39166690Y-14452459D01*
X39166690Y-14452459D02*
X39180162Y-14504934D01*
X39180162Y-14504934D02*
X39193532Y-14557012D01*
X39193532Y-14557012D02*
X39206739Y-14608461D01*
X39206739Y-14608461D02*
X39219724Y-14659049D01*
X39219724Y-14659049D02*
X39232429Y-14708546D01*
X39232429Y-14708546D02*
X39244792Y-14756721D01*
X39244792Y-14756721D02*
X39256756Y-14803342D01*
X39256756Y-14803342D02*
X39268261Y-14848177D01*
X39268261Y-14848177D02*
X39279247Y-14890997D01*
X39279247Y-14890997D02*
X39289655Y-14931568D01*
X39289655Y-14931568D02*
X39299426Y-14969661D01*
X39299426Y-14969661D02*
X39308500Y-15005044D01*
X39308500Y-15005044D02*
X39316818Y-15037486D01*
X39316818Y-15037486D02*
X39324321Y-15066755D01*
X39324321Y-15066755D02*
X39330948Y-15092621D01*
X39330948Y-15092621D02*
X39336642Y-15114851D01*
X39336642Y-15114851D02*
X39341342Y-15133216D01*
X39341342Y-15133216D02*
X39344989Y-15147483D01*
X39344989Y-15147483D02*
X39347523Y-15157421D01*
X39347523Y-15157421D02*
X39348518Y-15161341D01*
X39348518Y-15161341D02*
X39350662Y-15169355D01*
X39350662Y-15169355D02*
X39352354Y-15174837D01*
X39352354Y-15174837D02*
X39353209Y-15176581D01*
X39353209Y-15176581D02*
X39354076Y-15174096D01*
X39354076Y-15174096D02*
X39356343Y-15167197D01*
X39356343Y-15167197D02*
X39359873Y-15156309D01*
X39359873Y-15156309D02*
X39364530Y-15141862D01*
X39364530Y-15141862D02*
X39370174Y-15124280D01*
X39370174Y-15124280D02*
X39376671Y-15103992D01*
X39376671Y-15103992D02*
X39383882Y-15081424D01*
X39383882Y-15081424D02*
X39391671Y-15057005D01*
X39391671Y-15057005D02*
X39398840Y-15034488D01*
X39398840Y-15034488D02*
X39443820Y-14893121D01*
X39443820Y-14893121D02*
X39307443Y-14361388D01*
X39307443Y-14361388D02*
X39294321Y-14310256D01*
X39294321Y-14310256D02*
X39281474Y-14260253D01*
X39281474Y-14260253D02*
X39268964Y-14211614D01*
X39268964Y-14211614D02*
X39256850Y-14164578D01*
X39256850Y-14164578D02*
X39245196Y-14119380D01*
X39245196Y-14119380D02*
X39234063Y-14076259D01*
X39234063Y-14076259D02*
X39223512Y-14035452D01*
X39223512Y-14035452D02*
X39213605Y-13997195D01*
X39213605Y-13997195D02*
X39204403Y-13961726D01*
X39204403Y-13961726D02*
X39195967Y-13929282D01*
X39195967Y-13929282D02*
X39188360Y-13900099D01*
X39188360Y-13900099D02*
X39181643Y-13874416D01*
X39181643Y-13874416D02*
X39175877Y-13852470D01*
X39175877Y-13852470D02*
X39171124Y-13834497D01*
X39171124Y-13834497D02*
X39167446Y-13820734D01*
X39167446Y-13820734D02*
X39164903Y-13811419D01*
X39164903Y-13811419D02*
X39163560Y-13806795D01*
X39163560Y-13806795D02*
X39154243Y-13782864D01*
X39154243Y-13782864D02*
X39142585Y-13761463D01*
X39142585Y-13761463D02*
X39127866Y-13741563D01*
X39127866Y-13741563D02*
X39109366Y-13722135D01*
X39109366Y-13722135D02*
X39095879Y-13710045D01*
X39095879Y-13710045D02*
X39071168Y-13691927D01*
X39071168Y-13691927D02*
X39044300Y-13678031D01*
X39044300Y-13678031D02*
X39014835Y-13668177D01*
X39014835Y-13668177D02*
X38982332Y-13662180D01*
X38982332Y-13662180D02*
X38978863Y-13661782D01*
X38978863Y-13661782D02*
X38970171Y-13660925D01*
X38970171Y-13660925D02*
X38965501Y-13660927D01*
X38965501Y-13660927D02*
X38963831Y-13662042D01*
X38963831Y-13662042D02*
X38353752Y-13662042D01*
X38353752Y-13662042D02*
X38357459Y-13649835D01*
X38357459Y-13649835D02*
X38366364Y-13620686D01*
X38366364Y-13620686D02*
X38374334Y-13594791D01*
X38374334Y-13594791D02*
X38381288Y-13572419D01*
X38381288Y-13572419D02*
X38387141Y-13553841D01*
X38387141Y-13553841D02*
X38391813Y-13539328D01*
X38391813Y-13539328D02*
X38395219Y-13529149D01*
X38395219Y-13529149D02*
X38397273Y-13523585D01*
X38397273Y-13523585D02*
X38416332Y-13485071D01*
X38416332Y-13485071D02*
X38439507Y-13449059D01*
X38439507Y-13449059D02*
X38466412Y-13416048D01*
X38466412Y-13416048D02*
X38496659Y-13386535D01*
X38496659Y-13386535D02*
X38514964Y-13371684D01*
X38514964Y-13371684D02*
X38529177Y-13362063D01*
X38529177Y-13362063D02*
X38546786Y-13351883D01*
X38546786Y-13351883D02*
X38566273Y-13341889D01*
X38566273Y-13341889D02*
X38586125Y-13332828D01*
X38586125Y-13332828D02*
X38604826Y-13325446D01*
X38604826Y-13325446D02*
X38616533Y-13321646D01*
X38616533Y-13321646D02*
X38657555Y-13312257D01*
X38657555Y-13312257D02*
X38699061Y-13307263D01*
X38699061Y-13307263D02*
X38740479Y-13306602D01*
X38740479Y-13306602D02*
X38781238Y-13310217D01*
X38781238Y-13310217D02*
X38820767Y-13318048D01*
X38820767Y-13318048D02*
X38858496Y-13330036D01*
X38858496Y-13330036D02*
X38893852Y-13346122D01*
X38893852Y-13346122D02*
X38903251Y-13351353D01*
X38903251Y-13351353D02*
X38938679Y-13374772D01*
X38938679Y-13374772D02*
X38970915Y-13401894D01*
X38970915Y-13401894D02*
X38999661Y-13432355D01*
X38999661Y-13432355D02*
X39024616Y-13465792D01*
X39024616Y-13465792D02*
X39045480Y-13501840D01*
X39045480Y-13501840D02*
X39061955Y-13540135D01*
X39061955Y-13540135D02*
X39064464Y-13547339D01*
X39064464Y-13547339D02*
X39067843Y-13557184D01*
X39067843Y-13557184D02*
X39070670Y-13565043D01*
X39070670Y-13565043D02*
X39072534Y-13569784D01*
X39072534Y-13569784D02*
X39072980Y-13570638D01*
X39072980Y-13570638D02*
X39075683Y-13571635D01*
X39075683Y-13571635D02*
X39082371Y-13573647D01*
X39082371Y-13573647D02*
X39092118Y-13576408D01*
X39092118Y-13576408D02*
X39103994Y-13579650D01*
X39103994Y-13579650D02*
X39107490Y-13580584D01*
X39107490Y-13580584D02*
X39128169Y-13586541D01*
X39128169Y-13586541D02*
X39144993Y-13592547D01*
X39144993Y-13592547D02*
X39159157Y-13599181D01*
X39159157Y-13599181D02*
X39171857Y-13607023D01*
X39171857Y-13607023D02*
X39184291Y-13616653D01*
X39184291Y-13616653D02*
X39187304Y-13619238D01*
X39187304Y-13619238D02*
X39216228Y-13647799D01*
X39216228Y-13647799D02*
X39241542Y-13679834D01*
X39241542Y-13679834D02*
X39263062Y-13715065D01*
X39263062Y-13715065D02*
X39280603Y-13753214D01*
X39280603Y-13753214D02*
X39285845Y-13767425D01*
X39285845Y-13767425D02*
X39295077Y-13794095D01*
X39295077Y-13794095D02*
X39327930Y-13803121D01*
X39327930Y-13803121D02*
X39348067Y-13808977D01*
X39348067Y-13808977D02*
X39364333Y-13814572D01*
X39364333Y-13814572D02*
X39377871Y-13820452D01*
X39377871Y-13820452D02*
X39389827Y-13827166D01*
X39389827Y-13827166D02*
X39401344Y-13835261D01*
X39401344Y-13835261D02*
X39410439Y-13842617D01*
X39410439Y-13842617D02*
X39437571Y-13868435D01*
X39437571Y-13868435D02*
X39462189Y-13897708D01*
X39462189Y-13897708D02*
X39483599Y-13929438D01*
X39483599Y-13929438D02*
X39501102Y-13962632D01*
X39501102Y-13962632D02*
X39510425Y-13985548D01*
X39510425Y-13985548D02*
X39512950Y-13993388D01*
X39512950Y-13993388D02*
X39516400Y-14005205D01*
X39516400Y-14005205D02*
X39520510Y-14020035D01*
X39520510Y-14020035D02*
X39525017Y-14036914D01*
X39525017Y-14036914D02*
X39529657Y-14054881D01*
X39529657Y-14054881D02*
X39532339Y-14065558D01*
X39532339Y-14065558D02*
X39536620Y-14082669D01*
X39536620Y-14082669D02*
X39540588Y-14098309D01*
X39540588Y-14098309D02*
X39544054Y-14111746D01*
X39544054Y-14111746D02*
X39546827Y-14122252D01*
X39546827Y-14122252D02*
X39548719Y-14129096D01*
X39548719Y-14129096D02*
X39549442Y-14131379D01*
X39549442Y-14131379D02*
X39550536Y-14129800D01*
X39550536Y-14129800D02*
X39553117Y-14123369D01*
X39553117Y-14123369D02*
X39557187Y-14112086D01*
X39557187Y-14112086D02*
X39562745Y-14095950D01*
X39562745Y-14095950D02*
X39569792Y-14074961D01*
X39569792Y-14074961D02*
X39578326Y-14049117D01*
X39578326Y-14049117D02*
X39588350Y-14018420D01*
X39588350Y-14018420D02*
X39599863Y-13982867D01*
X39599863Y-13982867D02*
X39612864Y-13942459D01*
X39612864Y-13942459D02*
X39627355Y-13897195D01*
X39627355Y-13897195D02*
X39638931Y-13860904D01*
X39638931Y-13860904D02*
X39653370Y-13815595D01*
X39653370Y-13815595D02*
X39666369Y-13774846D01*
X39666369Y-13774846D02*
X39678025Y-13738375D01*
X39678025Y-13738375D02*
X39688434Y-13705899D01*
X39688434Y-13705899D02*
X39697691Y-13677136D01*
X39697691Y-13677136D02*
X39705894Y-13651804D01*
X39705894Y-13651804D02*
X39713138Y-13629620D01*
X39713138Y-13629620D02*
X39719519Y-13610301D01*
X39719519Y-13610301D02*
X39725134Y-13593567D01*
X39725134Y-13593567D02*
X39730079Y-13579134D01*
X39730079Y-13579134D02*
X39734449Y-13566719D01*
X39734449Y-13566719D02*
X39738341Y-13556042D01*
X39738341Y-13556042D02*
X39741852Y-13546818D01*
X39741852Y-13546818D02*
X39745076Y-13538766D01*
X39745076Y-13538766D02*
X39748111Y-13531604D01*
X39748111Y-13531604D02*
X39751052Y-13525050D01*
X39751052Y-13525050D02*
X39753995Y-13518820D01*
X39753995Y-13518820D02*
X39757038Y-13512632D01*
X39757038Y-13512632D02*
X39758512Y-13509692D01*
X39758512Y-13509692D02*
X39775968Y-13478532D01*
X39775968Y-13478532D02*
X39796076Y-13448739D01*
X39796076Y-13448739D02*
X39818155Y-13421128D01*
X39818155Y-13421128D02*
X39841524Y-13396512D01*
X39841524Y-13396512D02*
X39865502Y-13375707D01*
X39865502Y-13375707D02*
X39878346Y-13366422D01*
X39878346Y-13366422D02*
X39913480Y-13345845D01*
X39913480Y-13345845D02*
X39951582Y-13329128D01*
X39951582Y-13329128D02*
X39992063Y-13316508D01*
X39992063Y-13316508D02*
X40016104Y-13311214D01*
X40016104Y-13311214D02*
X40034116Y-13308751D01*
X40034116Y-13308751D02*
X40055412Y-13307305D01*
X40055412Y-13307305D02*
X40078297Y-13306879D01*
X40078297Y-13306879D02*
X40101077Y-13307476D01*
X40101077Y-13307476D02*
X40122059Y-13309095D01*
X40122059Y-13309095D02*
X40136051Y-13311065D01*
X40136051Y-13311065D02*
X40173739Y-13319958D01*
X40173739Y-13319958D02*
X40209708Y-13332612D01*
X40209708Y-13332612D02*
X40243502Y-13348719D01*
X40243502Y-13348719D02*
X40274670Y-13367971D01*
X40274670Y-13367971D02*
X40302757Y-13390058D01*
X40302757Y-13390058D02*
X40327310Y-13414672D01*
X40327310Y-13414672D02*
X40347874Y-13441506D01*
X40347874Y-13441506D02*
X40360934Y-13463937D01*
X40360934Y-13463937D02*
X40365609Y-13474067D01*
X40365609Y-13474067D02*
X40369098Y-13484088D01*
X40369098Y-13484088D02*
X40371639Y-13495161D01*
X40371639Y-13495161D02*
X40373472Y-13508447D01*
X40373472Y-13508447D02*
X40374833Y-13525108D01*
X40374833Y-13525108D02*
X40375375Y-13534390D01*
X40375375Y-13534390D02*
X40376146Y-13547188D01*
X40376146Y-13547188D02*
X40376964Y-13558080D01*
X40376964Y-13558080D02*
X40377746Y-13566104D01*
X40377746Y-13566104D02*
X40378407Y-13570299D01*
X40378407Y-13570299D02*
X40378566Y-13570664D01*
X40378566Y-13570664D02*
X40381385Y-13571798D01*
X40381385Y-13571798D02*
X40388141Y-13573953D01*
X40388141Y-13573953D02*
X40397866Y-13576833D01*
X40397866Y-13576833D02*
X40409589Y-13580144D01*
X40409589Y-13580144D02*
X40411356Y-13580631D01*
X40411356Y-13580631D02*
X40441600Y-13589389D01*
X40441600Y-13589389D02*
X40467455Y-13597932D01*
X40467455Y-13597932D02*
X40489584Y-13606579D01*
X40489584Y-13606579D02*
X40508651Y-13615652D01*
X40508651Y-13615652D02*
X40525317Y-13625469D01*
X40525317Y-13625469D02*
X40540247Y-13636353D01*
X40540247Y-13636353D02*
X40554102Y-13648622D01*
X40554102Y-13648622D02*
X40556111Y-13650585D01*
X40556111Y-13650585D02*
X40568641Y-13663681D01*
X40568641Y-13663681D02*
X40577809Y-13675049D01*
X40577809Y-13675049D02*
X40584478Y-13685788D01*
X40584478Y-13685788D02*
X40585942Y-13688685D01*
X40585942Y-13688685D02*
X40590225Y-13698264D01*
X40590225Y-13698264D02*
X40593478Y-13707595D01*
X40593478Y-13707595D02*
X40595910Y-13717751D01*
X40595910Y-13717751D02*
X40597727Y-13729806D01*
X40597727Y-13729806D02*
X40599137Y-13744831D01*
X40599137Y-13744831D02*
X40600304Y-13763161D01*
X40600304Y-13763161D02*
X40601357Y-13778153D01*
X40601357Y-13778153D02*
X40602604Y-13788910D01*
X40602604Y-13788910D02*
X40604001Y-13795118D01*
X40604001Y-13795118D02*
X40605015Y-13796580D01*
X40605015Y-13796580D02*
X40608333Y-13797528D01*
X40608333Y-13797528D02*
X40615660Y-13799608D01*
X40615660Y-13799608D02*
X40626113Y-13802570D01*
X40626113Y-13802570D02*
X40638812Y-13806164D01*
X40638812Y-13806164D02*
X40648564Y-13808922D01*
X40648564Y-13808922D02*
X40679236Y-13818221D01*
X40679236Y-13818221D02*
X40705495Y-13827632D01*
X40705495Y-13827632D02*
X40728001Y-13837497D01*
X40728001Y-13837497D02*
X40747414Y-13848158D01*
X40747414Y-13848158D02*
X40764394Y-13859957D01*
X40764394Y-13859957D02*
X40779603Y-13873237D01*
X40779603Y-13873237D02*
X40786768Y-13880559D01*
X40786768Y-13880559D02*
X40801739Y-13899734D01*
X40801739Y-13899734D02*
X40815104Y-13923241D01*
X40815104Y-13923241D02*
X40826582Y-13950505D01*
X40826582Y-13950505D02*
X40835660Y-13980054D01*
X40835660Y-13980054D02*
X40838713Y-13992502D01*
X40838713Y-13992502D02*
X40840926Y-14003427D01*
X40840926Y-14003427D02*
X40842475Y-14014247D01*
X40842475Y-14014247D02*
X40843534Y-14026379D01*
X40843534Y-14026379D02*
X40844278Y-14041242D01*
X40844278Y-14041242D02*
X40844680Y-14053175D01*
X40844680Y-14053175D02*
X40844726Y-14088077D01*
X40844726Y-14088077D02*
X40842522Y-14120222D01*
X40842522Y-14120222D02*
X40837872Y-14151501D01*
X40837872Y-14151501D02*
X40831380Y-14180676D01*
X40831380Y-14180676D02*
X40829986Y-14185413D01*
X40829986Y-14185413D02*
X40827056Y-14194731D01*
X40827056Y-14194731D02*
X40822654Y-14208439D01*
X40822654Y-14208439D02*
X40816843Y-14226344D01*
X40816843Y-14226344D02*
X40809688Y-14248256D01*
X40809688Y-14248256D02*
X40801253Y-14273983D01*
X40801253Y-14273983D02*
X40791600Y-14303334D01*
X40791600Y-14303334D02*
X40780796Y-14336116D01*
X40780796Y-14336116D02*
X40768902Y-14372139D01*
X40768902Y-14372139D02*
X40755983Y-14411210D01*
X40755983Y-14411210D02*
X40742103Y-14453139D01*
X40742103Y-14453139D02*
X40727326Y-14497734D01*
X40727326Y-14497734D02*
X40711716Y-14544803D01*
X40711716Y-14544803D02*
X40695337Y-14594155D01*
X40695337Y-14594155D02*
X40678252Y-14645598D01*
X40678252Y-14645598D02*
X40660526Y-14698941D01*
X40660526Y-14698941D02*
X40642222Y-14753992D01*
X40642222Y-14753992D02*
X40623404Y-14810560D01*
X40623404Y-14810560D02*
X40604136Y-14868453D01*
X40604136Y-14868453D02*
X40584483Y-14927480D01*
X40584483Y-14927480D02*
X40564508Y-14987449D01*
X40564508Y-14987449D02*
X40544274Y-15048169D01*
X40544274Y-15048169D02*
X40523847Y-15109447D01*
X40523847Y-15109447D02*
X40503289Y-15171094D01*
X40503289Y-15171094D02*
X40482664Y-15232917D01*
X40482664Y-15232917D02*
X40462038Y-15294724D01*
X40462038Y-15294724D02*
X40441472Y-15356325D01*
X40441472Y-15356325D02*
X40421032Y-15417527D01*
X40421032Y-15417527D02*
X40400781Y-15478139D01*
X40400781Y-15478139D02*
X40380784Y-15537969D01*
X40380784Y-15537969D02*
X40361103Y-15596827D01*
X40361103Y-15596827D02*
X40341803Y-15654520D01*
X40341803Y-15654520D02*
X40322948Y-15710857D01*
X40322948Y-15710857D02*
X40304602Y-15765647D01*
X40304602Y-15765647D02*
X40286829Y-15818698D01*
X40286829Y-15818698D02*
X40269692Y-15869818D01*
X40269692Y-15869818D02*
X40253255Y-15918816D01*
X40253255Y-15918816D02*
X40237583Y-15965501D01*
X40237583Y-15965501D02*
X40222740Y-16009680D01*
X40222740Y-16009680D02*
X40208788Y-16051163D01*
X40208788Y-16051163D02*
X40195792Y-16089758D01*
X40195792Y-16089758D02*
X40183817Y-16125273D01*
X40183817Y-16125273D02*
X40172925Y-16157517D01*
X40172925Y-16157517D02*
X40163181Y-16186298D01*
X40163181Y-16186298D02*
X40154649Y-16211425D01*
X40154649Y-16211425D02*
X40147392Y-16232707D01*
X40147392Y-16232707D02*
X40141475Y-16249951D01*
X40141475Y-16249951D02*
X40136961Y-16262966D01*
X40136961Y-16262966D02*
X40133915Y-16271562D01*
X40133915Y-16271562D02*
X40132399Y-16275545D01*
X40132399Y-16275545D02*
X40132339Y-16275675D01*
X40132339Y-16275675D02*
X40113189Y-16308753D01*
X40113189Y-16308753D02*
X40089244Y-16340562D01*
X40089244Y-16340562D02*
X40068174Y-16363570D01*
X40068174Y-16363570D02*
X40044038Y-16386136D01*
X40044038Y-16386136D02*
X40019713Y-16404866D01*
X40019713Y-16404866D02*
X39993965Y-16420516D01*
X39993965Y-16420516D02*
X39965565Y-16433844D01*
X39965565Y-16433844D02*
X39936402Y-16444585D01*
X39936402Y-16444585D02*
X39908746Y-16452800D01*
X39908746Y-16452800D02*
X39882585Y-16458429D01*
X39882585Y-16458429D02*
X39855998Y-16461772D01*
X39855998Y-16461772D02*
X39827063Y-16463131D01*
X39827063Y-16463131D02*
X39817984Y-16463197D01*
X39817984Y-16463197D02*
X39775775Y-16460877D01*
X39775775Y-16460877D02*
X39734910Y-16454080D01*
X39734910Y-16454080D02*
X39695714Y-16443026D01*
X39695714Y-16443026D02*
X39658509Y-16427938D01*
X39658509Y-16427938D02*
X39623620Y-16409036D01*
X39623620Y-16409036D02*
X39591371Y-16386543D01*
X39591371Y-16386543D02*
X39562085Y-16360679D01*
X39562085Y-16360679D02*
X39536087Y-16331666D01*
X39536087Y-16331666D02*
X39513701Y-16299726D01*
X39513701Y-16299726D02*
X39495249Y-16265080D01*
X39495249Y-16265080D02*
X39483086Y-16234222D01*
X39483086Y-16234222D02*
X39479403Y-16223456D01*
X39479403Y-16223456D02*
X39476222Y-16214577D01*
X39476222Y-16214577D02*
X39473927Y-16208631D01*
X39473927Y-16208631D02*
X39472983Y-16206688D01*
X39472983Y-16206688D02*
X39470141Y-16205587D01*
X39470141Y-16205587D02*
X39463374Y-16203564D01*
X39463374Y-16203564D02*
X39453690Y-16200904D01*
X39453690Y-16200904D02*
X39442098Y-16197895D01*
X39442098Y-16197895D02*
X39441932Y-16197853D01*
X39441932Y-16197853D02*
X39422746Y-16192550D01*
X39422746Y-16192550D02*
X39407210Y-16187054D01*
X39407210Y-16187054D02*
X39393915Y-16180702D01*
X39393915Y-16180702D02*
X39381452Y-16172830D01*
X39381452Y-16172830D02*
X39369674Y-16163807D01*
X39369674Y-16163807D02*
X39340706Y-16138284D01*
X39340706Y-16138284D02*
X39316229Y-16112415D01*
X39316229Y-16112415D02*
X39295673Y-16085404D01*
X39295673Y-16085404D02*
X39278468Y-16056459D01*
X39278468Y-16056459D02*
X39264045Y-16024783D01*
X39264045Y-16024783D02*
X39257660Y-16007563D01*
X39257660Y-16007563D02*
X39253879Y-15997210D01*
X39253879Y-15997210D02*
X39250404Y-15988707D01*
X39250404Y-15988707D02*
X39247719Y-15983185D01*
X39247719Y-15983185D02*
X39246649Y-15981746D01*
X39246649Y-15981746D02*
X39243123Y-15980424D01*
X39243123Y-15980424D02*
X39235862Y-15978371D01*
X39235862Y-15978371D02*
X39226098Y-15975919D01*
X39226098Y-15975919D02*
X39219814Y-15974456D01*
X39219814Y-15974456D02*
X39202641Y-15970288D01*
X39202641Y-15970288D02*
X39189111Y-15966191D01*
X39189111Y-15966191D02*
X39177832Y-15961565D01*
X39177832Y-15961565D02*
X39167409Y-15955809D01*
X39167409Y-15955809D02*
X39156451Y-15948325D01*
X39156451Y-15948325D02*
X39152732Y-15945564D01*
X39152732Y-15945564D02*
X39122932Y-15920497D01*
X39122932Y-15920497D02*
X39096090Y-15892568D01*
X39096090Y-15892568D02*
X39093387Y-15889082D01*
X39093387Y-15889082D02*
X39359607Y-15889082D01*
X39359607Y-15889082D02*
X39361206Y-15895688D01*
X39361206Y-15895688D02*
X39365661Y-15912993D01*
X39365661Y-15912993D02*
X39370814Y-15931221D01*
X39370814Y-15931221D02*
X39376330Y-15949339D01*
X39376330Y-15949339D02*
X39381877Y-15966311D01*
X39381877Y-15966311D02*
X39387118Y-15981102D01*
X39387118Y-15981102D02*
X39391722Y-15992679D01*
X39391722Y-15992679D02*
X39394265Y-15998087D01*
X39394265Y-15998087D02*
X39403060Y-16012077D01*
X39403060Y-16012077D02*
X39415078Y-16027353D01*
X39415078Y-16027353D02*
X39429143Y-16042654D01*
X39429143Y-16042654D02*
X39444082Y-16056721D01*
X39444082Y-16056721D02*
X39458720Y-16068293D01*
X39458720Y-16068293D02*
X39461356Y-16070096D01*
X39461356Y-16070096D02*
X39485164Y-16083824D01*
X39485164Y-16083824D02*
X39511190Y-16095177D01*
X39511190Y-16095177D02*
X39537265Y-16103235D01*
X39537265Y-16103235D02*
X39542218Y-16104354D01*
X39542218Y-16104354D02*
X39562624Y-16107428D01*
X39562624Y-16107428D02*
X39585730Y-16108890D01*
X39585730Y-16108890D02*
X39609410Y-16108721D01*
X39609410Y-16108721D02*
X39631538Y-16106899D01*
X39631538Y-16106899D02*
X39641518Y-16105331D01*
X39641518Y-16105331D02*
X39673240Y-16096889D01*
X39673240Y-16096889D02*
X39702604Y-16084173D01*
X39702604Y-16084173D02*
X39729257Y-16067443D01*
X39729257Y-16067443D02*
X39752845Y-16046958D01*
X39752845Y-16046958D02*
X39773012Y-16022978D01*
X39773012Y-16022978D02*
X39788387Y-15997770D01*
X39788387Y-15997770D02*
X39789940Y-15993902D01*
X39789940Y-15993902D02*
X39793026Y-15985403D01*
X39793026Y-15985403D02*
X39797580Y-15972467D01*
X39797580Y-15972467D02*
X39803538Y-15955286D01*
X39803538Y-15955286D02*
X39810836Y-15934053D01*
X39810836Y-15934053D02*
X39819410Y-15908959D01*
X39819410Y-15908959D02*
X39829194Y-15880199D01*
X39829194Y-15880199D02*
X39840127Y-15847964D01*
X39840127Y-15847964D02*
X39852142Y-15812447D01*
X39852142Y-15812447D02*
X39865176Y-15773841D01*
X39865176Y-15773841D02*
X39879165Y-15732338D01*
X39879165Y-15732338D02*
X39894044Y-15688130D01*
X39894044Y-15688130D02*
X39909750Y-15641411D01*
X39909750Y-15641411D02*
X39926218Y-15592372D01*
X39926218Y-15592372D02*
X39943383Y-15541207D01*
X39943383Y-15541207D02*
X39961183Y-15488108D01*
X39961183Y-15488108D02*
X39979552Y-15433267D01*
X39979552Y-15433267D02*
X39998427Y-15376878D01*
X39998427Y-15376878D02*
X40017743Y-15319132D01*
X40017743Y-15319132D02*
X40037435Y-15260222D01*
X40037435Y-15260222D02*
X40057441Y-15200341D01*
X40057441Y-15200341D02*
X40077696Y-15139682D01*
X40077696Y-15139682D02*
X40098135Y-15078436D01*
X40098135Y-15078436D02*
X40118694Y-15016797D01*
X40118694Y-15016797D02*
X40139310Y-14954957D01*
X40139310Y-14954957D02*
X40159917Y-14893109D01*
X40159917Y-14893109D02*
X40180452Y-14831445D01*
X40180452Y-14831445D02*
X40200851Y-14770158D01*
X40200851Y-14770158D02*
X40221050Y-14709440D01*
X40221050Y-14709440D02*
X40240983Y-14649485D01*
X40240983Y-14649485D02*
X40260588Y-14590483D01*
X40260588Y-14590483D02*
X40279799Y-14532629D01*
X40279799Y-14532629D02*
X40298554Y-14476115D01*
X40298554Y-14476115D02*
X40316786Y-14421133D01*
X40316786Y-14421133D02*
X40334433Y-14367875D01*
X40334433Y-14367875D02*
X40351431Y-14316535D01*
X40351431Y-14316535D02*
X40367714Y-14267305D01*
X40367714Y-14267305D02*
X40383219Y-14220377D01*
X40383219Y-14220377D02*
X40397881Y-14175945D01*
X40397881Y-14175945D02*
X40411637Y-14134200D01*
X40411637Y-14134200D02*
X40424423Y-14095336D01*
X40424423Y-14095336D02*
X40436173Y-14059544D01*
X40436173Y-14059544D02*
X40446824Y-14027017D01*
X40446824Y-14027017D02*
X40456312Y-13997949D01*
X40456312Y-13997949D02*
X40464572Y-13972531D01*
X40464572Y-13972531D02*
X40471541Y-13950956D01*
X40471541Y-13950956D02*
X40477154Y-13933417D01*
X40477154Y-13933417D02*
X40481347Y-13920106D01*
X40481347Y-13920106D02*
X40484056Y-13911216D01*
X40484056Y-13911216D02*
X40485178Y-13907125D01*
X40485178Y-13907125D02*
X40488443Y-13887829D01*
X40488443Y-13887829D02*
X40490487Y-13866494D01*
X40490487Y-13866494D02*
X40491296Y-13844518D01*
X40491296Y-13844518D02*
X40490858Y-13823297D01*
X40490858Y-13823297D02*
X40489160Y-13804228D01*
X40489160Y-13804228D02*
X40486271Y-13789015D01*
X40486271Y-13789015D02*
X40476324Y-13760392D01*
X40476324Y-13760392D02*
X40462737Y-13734966D01*
X40462737Y-13734966D02*
X40445703Y-13712987D01*
X40445703Y-13712987D02*
X40425413Y-13694703D01*
X40425413Y-13694703D02*
X40403150Y-13680911D01*
X40403150Y-13680911D02*
X40387451Y-13673833D01*
X40387451Y-13673833D02*
X40371593Y-13668609D01*
X40371593Y-13668609D02*
X40354334Y-13664971D01*
X40354334Y-13664971D02*
X40334428Y-13662648D01*
X40334428Y-13662648D02*
X40313092Y-13661457D01*
X40313092Y-13661457D02*
X40296378Y-13660953D01*
X40296378Y-13660953D02*
X40284029Y-13660961D01*
X40284029Y-13660961D02*
X40275335Y-13661717D01*
X40275335Y-13661717D02*
X40269588Y-13663455D01*
X40269588Y-13663455D02*
X40266079Y-13666411D01*
X40266079Y-13666411D02*
X40264099Y-13670819D01*
X40264099Y-13670819D02*
X40262941Y-13676914D01*
X40262941Y-13676914D02*
X40262774Y-13678140D01*
X40262774Y-13678140D02*
X40261288Y-13686894D01*
X40261288Y-13686894D02*
X40258933Y-13698210D01*
X40258933Y-13698210D02*
X40256197Y-13709753D01*
X40256197Y-13709753D02*
X40255976Y-13710617D01*
X40255976Y-13710617D02*
X40254583Y-13715315D01*
X40254583Y-13715315D02*
X40251657Y-13724586D01*
X40251657Y-13724586D02*
X40247260Y-13738236D01*
X40247260Y-13738236D02*
X40241458Y-13756075D01*
X40241458Y-13756075D02*
X40234314Y-13777909D01*
X40234314Y-13777909D02*
X40225893Y-13803546D01*
X40225893Y-13803546D02*
X40216259Y-13832793D01*
X40216259Y-13832793D02*
X40205476Y-13865459D01*
X40205476Y-13865459D02*
X40193609Y-13901350D01*
X40193609Y-13901350D02*
X40180721Y-13940275D01*
X40180721Y-13940275D02*
X40166878Y-13982041D01*
X40166878Y-13982041D02*
X40152142Y-14026456D01*
X40152142Y-14026456D02*
X40136580Y-14073327D01*
X40136580Y-14073327D02*
X40120254Y-14122461D01*
X40120254Y-14122461D02*
X40103229Y-14173668D01*
X40103229Y-14173668D02*
X40085569Y-14226753D01*
X40085569Y-14226753D02*
X40067339Y-14281525D01*
X40067339Y-14281525D02*
X40048603Y-14337792D01*
X40048603Y-14337792D02*
X40029424Y-14395360D01*
X40029424Y-14395360D02*
X40009868Y-14454038D01*
X40009868Y-14454038D02*
X39989998Y-14513633D01*
X39989998Y-14513633D02*
X39969880Y-14573953D01*
X39969880Y-14573953D02*
X39949576Y-14634805D01*
X39949576Y-14634805D02*
X39929151Y-14695998D01*
X39929151Y-14695998D02*
X39908670Y-14757338D01*
X39908670Y-14757338D02*
X39888196Y-14818633D01*
X39888196Y-14818633D02*
X39867795Y-14879691D01*
X39867795Y-14879691D02*
X39847529Y-14940319D01*
X39847529Y-14940319D02*
X39827464Y-15000326D01*
X39827464Y-15000326D02*
X39807664Y-15059518D01*
X39807664Y-15059518D02*
X39788193Y-15117704D01*
X39788193Y-15117704D02*
X39769115Y-15174690D01*
X39769115Y-15174690D02*
X39750495Y-15230285D01*
X39750495Y-15230285D02*
X39732396Y-15284296D01*
X39732396Y-15284296D02*
X39714883Y-15336531D01*
X39714883Y-15336531D02*
X39698020Y-15386797D01*
X39698020Y-15386797D02*
X39681872Y-15434903D01*
X39681872Y-15434903D02*
X39666502Y-15480654D01*
X39666502Y-15480654D02*
X39651976Y-15523860D01*
X39651976Y-15523860D02*
X39638356Y-15564328D01*
X39638356Y-15564328D02*
X39625708Y-15601865D01*
X39625708Y-15601865D02*
X39614096Y-15636280D01*
X39614096Y-15636280D02*
X39603584Y-15667379D01*
X39603584Y-15667379D02*
X39594235Y-15694970D01*
X39594235Y-15694970D02*
X39586116Y-15718861D01*
X39586116Y-15718861D02*
X39579288Y-15738860D01*
X39579288Y-15738860D02*
X39573818Y-15754773D01*
X39573818Y-15754773D02*
X39569769Y-15766410D01*
X39569769Y-15766410D02*
X39567205Y-15773576D01*
X39567205Y-15773576D02*
X39566255Y-15775987D01*
X39566255Y-15775987D02*
X39549508Y-15802777D01*
X39549508Y-15802777D02*
X39529058Y-15826253D01*
X39529058Y-15826253D02*
X39505200Y-15846235D01*
X39505200Y-15846235D02*
X39478227Y-15862541D01*
X39478227Y-15862541D02*
X39448437Y-15874991D01*
X39448437Y-15874991D02*
X39416123Y-15883404D01*
X39416123Y-15883404D02*
X39384325Y-15887430D01*
X39384325Y-15887430D02*
X39359607Y-15889082D01*
X39359607Y-15889082D02*
X39093387Y-15889082D01*
X39093387Y-15889082D02*
X39072749Y-15862470D01*
X39072749Y-15862470D02*
X39053455Y-15830897D01*
X39053455Y-15830897D02*
X39040054Y-15801935D01*
X39040054Y-15801935D02*
X39037467Y-15794553D01*
X39037467Y-15794553D02*
X39033840Y-15783076D01*
X39033840Y-15783076D02*
X39029415Y-15768326D01*
X39029415Y-15768326D02*
X39024432Y-15751124D01*
X39024432Y-15751124D02*
X39019133Y-15732291D01*
X39019133Y-15732291D02*
X39013759Y-15712649D01*
X39013759Y-15712649D02*
X39012690Y-15708676D01*
X39012690Y-15708676D02*
X39007713Y-15690184D01*
X39007713Y-15690184D02*
X39003157Y-15673411D01*
X39003157Y-15673411D02*
X38999186Y-15658948D01*
X38999186Y-15658948D02*
X38995963Y-15647387D01*
X38995963Y-15647387D02*
X38993654Y-15639318D01*
X38993654Y-15639318D02*
X38992422Y-15635334D01*
X38992422Y-15635334D02*
X38992267Y-15635016D01*
X38992267Y-15635016D02*
X38991521Y-15637485D01*
X38991521Y-15637485D02*
X38989478Y-15644540D01*
X38989478Y-15644540D02*
X38986224Y-15655880D01*
X38986224Y-15655880D02*
X38981845Y-15671201D01*
X38981845Y-15671201D02*
X38976426Y-15690202D01*
X38976426Y-15690202D02*
X38970055Y-15712581D01*
X38970055Y-15712581D02*
X38962816Y-15738036D01*
X38962816Y-15738036D02*
X38954795Y-15766264D01*
X38954795Y-15766264D02*
X38946079Y-15796963D01*
X38946079Y-15796963D02*
X38936754Y-15829832D01*
X38936754Y-15829832D02*
X38926905Y-15864567D01*
X38926905Y-15864567D02*
X38916618Y-15900869D01*
X38916618Y-15900869D02*
X38910099Y-15923885D01*
X38910099Y-15923885D02*
X38899454Y-15961449D01*
X38899454Y-15961449D02*
X38889103Y-15997929D01*
X38889103Y-15997929D02*
X38879140Y-16032995D01*
X38879140Y-16032995D02*
X38869660Y-16066317D01*
X38869660Y-16066317D02*
X38860756Y-16097563D01*
X38860756Y-16097563D02*
X38852524Y-16126405D01*
X38852524Y-16126405D02*
X38845057Y-16152512D01*
X38845057Y-16152512D02*
X38838451Y-16175552D01*
X38838451Y-16175552D02*
X38832799Y-16195197D01*
X38832799Y-16195197D02*
X38828196Y-16211116D01*
X38828196Y-16211116D02*
X38824737Y-16222978D01*
X38824737Y-16222978D02*
X38822516Y-16230453D01*
X38822516Y-16230453D02*
X38821882Y-16232495D01*
X38821882Y-16232495D02*
X38807971Y-16267468D01*
X38807971Y-16267468D02*
X38789512Y-16301065D01*
X38789512Y-16301065D02*
X38766969Y-16332727D01*
X38766969Y-16332727D02*
X38740806Y-16361898D01*
X38740806Y-16361898D02*
X38711489Y-16388019D01*
X38711489Y-16388019D02*
X38679481Y-16410535D01*
X38679481Y-16410535D02*
X38667553Y-16417559D01*
X38667553Y-16417559D02*
X38633244Y-16434184D01*
X38633244Y-16434184D02*
X38596011Y-16447481D01*
X38596011Y-16447481D02*
X38557061Y-16457078D01*
X38557061Y-16457078D02*
X38522777Y-16462124D01*
X38522777Y-16462124D02*
X38504847Y-16463699D01*
X38504847Y-16463699D02*
X38489802Y-16464402D01*
X38489802Y-16464402D02*
X38475523Y-16464232D01*
X38475523Y-16464232D02*
X38459890Y-16463190D01*
X38459890Y-16463190D02*
X38448924Y-16462141D01*
X38448924Y-16462141D02*
X38407526Y-16455371D01*
X38407526Y-16455371D02*
X38366375Y-16443659D01*
X38366375Y-16443659D02*
X38325867Y-16427139D01*
X38325867Y-16427139D02*
X38291334Y-16408886D01*
X38291334Y-16408886D02*
X38280713Y-16402201D01*
X38280713Y-16402201D02*
X38270503Y-16394711D01*
X38270503Y-16394711D02*
X38259715Y-16385592D01*
X38259715Y-16385592D02*
X38247359Y-16374022D01*
X38247359Y-16374022D02*
X38236761Y-16363536D01*
X38236761Y-16363536D02*
X38225136Y-16351485D01*
X38225136Y-16351485D02*
X38213690Y-16338964D01*
X38213690Y-16338964D02*
X38203389Y-16327077D01*
X38203389Y-16327077D02*
X38195200Y-16316926D01*
X38195200Y-16316926D02*
X38191657Y-16312063D01*
X38191657Y-16312063D02*
X38181042Y-16295200D01*
X38181042Y-16295200D02*
X38170434Y-16276070D01*
X38170434Y-16276070D02*
X38160655Y-16256317D01*
X38160655Y-16256317D02*
X38152530Y-16237590D01*
X38152530Y-16237590D02*
X38147758Y-16224396D01*
X38147758Y-16224396D02*
X38141955Y-16206138D01*
X38141955Y-16206138D02*
X38121449Y-16200856D01*
X38121449Y-16200856D02*
X38101861Y-16195675D01*
X38101861Y-16195675D02*
X38086269Y-16191106D01*
X38086269Y-16191106D02*
X38073705Y-16186681D01*
X38073705Y-16186681D02*
X38063202Y-16181928D01*
X38063202Y-16181928D02*
X38053791Y-16176380D01*
X38053791Y-16176380D02*
X38044505Y-16169566D01*
X38044505Y-16169566D02*
X38034377Y-16161017D01*
X38034377Y-16161017D02*
X38028493Y-16155764D01*
X38028493Y-16155764D02*
X37998401Y-16126029D01*
X37998401Y-16126029D02*
X37972954Y-16095195D01*
X37972954Y-16095195D02*
X37951745Y-16062673D01*
X37951745Y-16062673D02*
X37934365Y-16027873D01*
X37934365Y-16027873D02*
X37926813Y-16008975D01*
X37926813Y-16008975D02*
X37923005Y-15998897D01*
X37923005Y-15998897D02*
X37919716Y-15990635D01*
X37919716Y-15990635D02*
X37917414Y-15985347D01*
X37917414Y-15985347D02*
X37916734Y-15984119D01*
X37916734Y-15984119D02*
X37913756Y-15982729D01*
X37913756Y-15982729D02*
X37906884Y-15980437D01*
X37906884Y-15980437D02*
X37897155Y-15977567D01*
X37897155Y-15977567D02*
X37886096Y-15974569D01*
X37886096Y-15974569D02*
X37865267Y-15968530D01*
X37865267Y-15968530D02*
X37848076Y-15961981D01*
X37848076Y-15961981D02*
X37833083Y-15954191D01*
X37833083Y-15954191D02*
X37818851Y-15944434D01*
X37818851Y-15944434D02*
X37806570Y-15934306D01*
X37806570Y-15934306D02*
X37776023Y-15904383D01*
X37776023Y-15904383D02*
X37763490Y-15889046D01*
X37763490Y-15889046D02*
X38023474Y-15889046D01*
X38023474Y-15889046D02*
X38024336Y-15892841D01*
X38024336Y-15892841D02*
X38026704Y-15900459D01*
X38026704Y-15900459D02*
X38030245Y-15910984D01*
X38030245Y-15910984D02*
X38034626Y-15923505D01*
X38034626Y-15923505D02*
X38039517Y-15937106D01*
X38039517Y-15937106D02*
X38044585Y-15950873D01*
X38044585Y-15950873D02*
X38049499Y-15963893D01*
X38049499Y-15963893D02*
X38053926Y-15975252D01*
X38053926Y-15975252D02*
X38057535Y-15984035D01*
X38057535Y-15984035D02*
X38059641Y-15988656D01*
X38059641Y-15988656D02*
X38076826Y-16017254D01*
X38076826Y-16017254D02*
X38097664Y-16042403D01*
X38097664Y-16042403D02*
X38121919Y-16063920D01*
X38121919Y-16063920D02*
X38149353Y-16081624D01*
X38149353Y-16081624D02*
X38179730Y-16095333D01*
X38179730Y-16095333D02*
X38210121Y-16104272D01*
X38210121Y-16104272D02*
X38225250Y-16106777D01*
X38225250Y-16106777D02*
X38243485Y-16108397D01*
X38243485Y-16108397D02*
X38262999Y-16109086D01*
X38262999Y-16109086D02*
X38281965Y-16108799D01*
X38281965Y-16108799D02*
X38298555Y-16107490D01*
X38298555Y-16107490D02*
X38304312Y-16106635D01*
X38304312Y-16106635D02*
X38334555Y-16099038D01*
X38334555Y-16099038D02*
X38363391Y-16087438D01*
X38363391Y-16087438D02*
X38390283Y-16072272D01*
X38390283Y-16072272D02*
X38414696Y-16053977D01*
X38414696Y-16053977D02*
X38436093Y-16032989D01*
X38436093Y-16032989D02*
X38453939Y-16009746D01*
X38453939Y-16009746D02*
X38467698Y-15984685D01*
X38467698Y-15984685D02*
X38473970Y-15968335D01*
X38473970Y-15968335D02*
X38475005Y-15964827D01*
X38475005Y-15964827D02*
X38477367Y-15956635D01*
X38477367Y-15956635D02*
X38480998Y-15943963D01*
X38480998Y-15943963D02*
X38485839Y-15927016D01*
X38485839Y-15927016D02*
X38491833Y-15905996D01*
X38491833Y-15905996D02*
X38498922Y-15881107D01*
X38498922Y-15881107D02*
X38507048Y-15852555D01*
X38507048Y-15852555D02*
X38516152Y-15820542D01*
X38516152Y-15820542D02*
X38526178Y-15785272D01*
X38526178Y-15785272D02*
X38537066Y-15746950D01*
X38537066Y-15746950D02*
X38548760Y-15705778D01*
X38548760Y-15705778D02*
X38561201Y-15661962D01*
X38561201Y-15661962D02*
X38574331Y-15615705D01*
X38574331Y-15615705D02*
X38588093Y-15567210D01*
X38588093Y-15567210D02*
X38602428Y-15516682D01*
X38602428Y-15516682D02*
X38617278Y-15464325D01*
X38617278Y-15464325D02*
X38632586Y-15410342D01*
X38632586Y-15410342D02*
X38648294Y-15354938D01*
X38648294Y-15354938D02*
X38664344Y-15298316D01*
X38664344Y-15298316D02*
X38665713Y-15293483D01*
X38665713Y-15293483D02*
X38853375Y-14631331D01*
X38853375Y-14631331D02*
X38784499Y-14375942D01*
X38784499Y-14375942D02*
X38775063Y-14340995D01*
X38775063Y-14340995D02*
X38765984Y-14307460D01*
X38765984Y-14307460D02*
X38757352Y-14275659D01*
X38757352Y-14275659D02*
X38749255Y-14245913D01*
X38749255Y-14245913D02*
X38741781Y-14218545D01*
X38741781Y-14218545D02*
X38735019Y-14193875D01*
X38735019Y-14193875D02*
X38729057Y-14172227D01*
X38729057Y-14172227D02*
X38723983Y-14153923D01*
X38723983Y-14153923D02*
X38719886Y-14139283D01*
X38719886Y-14139283D02*
X38716855Y-14128630D01*
X38716855Y-14128630D02*
X38714977Y-14122286D01*
X38714977Y-14122286D02*
X38714354Y-14120522D01*
X38714354Y-14120522D02*
X38713355Y-14122855D01*
X38713355Y-14122855D02*
X38711185Y-14129448D01*
X38711185Y-14129448D02*
X38708035Y-14139669D01*
X38708035Y-14139669D02*
X38704097Y-14152883D01*
X38704097Y-14152883D02*
X38699562Y-14168459D01*
X38699562Y-14168459D02*
X38694621Y-14185762D01*
X38694621Y-14185762D02*
X38694584Y-14185893D01*
X38694584Y-14185893D02*
X38674677Y-14256256D01*
X38674677Y-14256256D02*
X38654666Y-14326958D01*
X38654666Y-14326958D02*
X38634601Y-14397829D01*
X38634601Y-14397829D02*
X38614529Y-14468696D01*
X38614529Y-14468696D02*
X38594500Y-14539388D01*
X38594500Y-14539388D02*
X38574563Y-14609734D01*
X38574563Y-14609734D02*
X38554766Y-14679562D01*
X38554766Y-14679562D02*
X38535158Y-14748702D01*
X38535158Y-14748702D02*
X38515788Y-14816981D01*
X38515788Y-14816981D02*
X38496704Y-14884228D01*
X38496704Y-14884228D02*
X38477956Y-14950272D01*
X38477956Y-14950272D02*
X38459591Y-15014942D01*
X38459591Y-15014942D02*
X38441660Y-15078065D01*
X38441660Y-15078065D02*
X38424209Y-15139472D01*
X38424209Y-15139472D02*
X38407289Y-15198989D01*
X38407289Y-15198989D02*
X38390948Y-15256447D01*
X38390948Y-15256447D02*
X38375235Y-15311673D01*
X38375235Y-15311673D02*
X38360198Y-15364496D01*
X38360198Y-15364496D02*
X38345886Y-15414744D01*
X38345886Y-15414744D02*
X38332349Y-15462247D01*
X38332349Y-15462247D02*
X38319634Y-15506833D01*
X38319634Y-15506833D02*
X38307790Y-15548331D01*
X38307790Y-15548331D02*
X38296867Y-15586568D01*
X38296867Y-15586568D02*
X38286913Y-15621374D01*
X38286913Y-15621374D02*
X38277977Y-15652578D01*
X38277977Y-15652578D02*
X38270107Y-15680008D01*
X38270107Y-15680008D02*
X38263352Y-15703492D01*
X38263352Y-15703492D02*
X38257761Y-15722859D01*
X38257761Y-15722859D02*
X38253383Y-15737938D01*
X38253383Y-15737938D02*
X38250267Y-15748557D01*
X38250267Y-15748557D02*
X38248460Y-15754545D01*
X38248460Y-15754545D02*
X38248064Y-15755749D01*
X38248064Y-15755749D02*
X38238227Y-15776217D01*
X38238227Y-15776217D02*
X38224348Y-15796985D01*
X38224348Y-15796985D02*
X38207298Y-15817070D01*
X38207298Y-15817070D02*
X38187950Y-15835490D01*
X38187950Y-15835490D02*
X38167176Y-15851263D01*
X38167176Y-15851263D02*
X38158345Y-15856797D01*
X38158345Y-15856797D02*
X38134304Y-15868627D01*
X38134304Y-15868627D02*
X38107184Y-15878049D01*
X38107184Y-15878049D02*
X38078584Y-15884643D01*
X38078584Y-15884643D02*
X38050100Y-15887989D01*
X38050100Y-15887989D02*
X38038530Y-15888325D01*
X38038530Y-15888325D02*
X38030545Y-15888435D01*
X38030545Y-15888435D02*
X38025086Y-15888722D01*
X38025086Y-15888722D02*
X38023474Y-15889046D01*
X38023474Y-15889046D02*
X37763490Y-15889046D01*
X37763490Y-15889046D02*
X37749064Y-15871394D01*
X37749064Y-15871394D02*
X37726199Y-15835999D01*
X37726199Y-15835999D02*
X37714939Y-15814475D01*
X37714939Y-15814475D02*
X37713050Y-15809815D01*
X37713050Y-15809815D02*
X37709643Y-15800548D01*
X37709643Y-15800548D02*
X37704715Y-15786660D01*
X37704715Y-15786660D02*
X37698261Y-15768143D01*
X37698261Y-15768143D02*
X37690277Y-15744983D01*
X37690277Y-15744983D02*
X37680761Y-15717170D01*
X37680761Y-15717170D02*
X37669708Y-15684694D01*
X37669708Y-15684694D02*
X37657114Y-15647542D01*
X37657114Y-15647542D02*
X37642976Y-15605704D01*
X37642976Y-15605704D02*
X37627291Y-15559169D01*
X37627291Y-15559169D02*
X37610053Y-15507926D01*
X37610053Y-15507926D02*
X37591260Y-15451963D01*
X37591260Y-15451963D02*
X37570908Y-15391269D01*
X37570908Y-15391269D02*
X37548993Y-15325834D01*
X37548993Y-15325834D02*
X37525511Y-15255645D01*
X37525511Y-15255645D02*
X37500459Y-15180693D01*
X37500459Y-15180693D02*
X37473833Y-15100966D01*
X37473833Y-15100966D02*
X37445629Y-15016453D01*
X37445629Y-15016453D02*
X37415843Y-14927143D01*
X37415843Y-14927143D02*
X37384473Y-14833024D01*
X37384473Y-14833024D02*
X37369639Y-14788505D01*
X37369639Y-14788505D02*
X37346515Y-14719079D01*
X37346515Y-14719079D02*
X37323776Y-14650791D01*
X37323776Y-14650791D02*
X37301479Y-14583803D01*
X37301479Y-14583803D02*
X37279676Y-14518279D01*
X37279676Y-14518279D02*
X37258421Y-14454380D01*
X37258421Y-14454380D02*
X37237769Y-14392270D01*
X37237769Y-14392270D02*
X37217773Y-14332110D01*
X37217773Y-14332110D02*
X37198487Y-14274064D01*
X37198487Y-14274064D02*
X37179965Y-14218294D01*
X37179965Y-14218294D02*
X37162261Y-14164962D01*
X37162261Y-14164962D02*
X37145429Y-14114232D01*
X37145429Y-14114232D02*
X37129523Y-14066266D01*
X37129523Y-14066266D02*
X37114597Y-14021226D01*
X37114597Y-14021226D02*
X37100704Y-13979275D01*
X37100704Y-13979275D02*
X37087899Y-13940576D01*
X37087899Y-13940576D02*
X37076235Y-13905292D01*
X37076235Y-13905292D02*
X37065767Y-13873584D01*
X37065767Y-13873584D02*
X37056548Y-13845615D01*
X37056548Y-13845615D02*
X37048632Y-13821549D01*
X37048632Y-13821549D02*
X37042073Y-13801547D01*
X37042073Y-13801547D02*
X37036925Y-13785773D01*
X37036925Y-13785773D02*
X37033242Y-13774388D01*
X37033242Y-13774388D02*
X37031078Y-13767556D01*
X37031078Y-13767556D02*
X37030515Y-13765649D01*
X37030515Y-13765649D02*
X37023769Y-13734981D01*
X37023769Y-13734981D02*
X37018511Y-13702379D01*
X37018511Y-13702379D02*
X37014842Y-13669109D01*
X37014842Y-13669109D02*
X37014511Y-13663622D01*
X37014511Y-13663622D02*
X37571722Y-13663622D01*
X37571722Y-13663622D02*
X37572267Y-13666547D01*
X37572267Y-13666547D02*
X37573588Y-13671067D01*
X37573588Y-13671067D02*
X37576361Y-13680090D01*
X37576361Y-13680090D02*
X37580514Y-13693390D01*
X37580514Y-13693390D02*
X37585976Y-13710740D01*
X37585976Y-13710740D02*
X37592673Y-13731915D01*
X37592673Y-13731915D02*
X37600534Y-13756691D01*
X37600534Y-13756691D02*
X37609484Y-13784840D01*
X37609484Y-13784840D02*
X37619453Y-13816138D01*
X37619453Y-13816138D02*
X37630368Y-13850359D01*
X37630368Y-13850359D02*
X37642155Y-13887277D01*
X37642155Y-13887277D02*
X37654743Y-13926667D01*
X37654743Y-13926667D02*
X37668059Y-13968302D01*
X37668059Y-13968302D02*
X37682031Y-14011959D01*
X37682031Y-14011959D02*
X37696586Y-14057410D01*
X37696586Y-14057410D02*
X37711651Y-14104431D01*
X37711651Y-14104431D02*
X37727155Y-14152795D01*
X37727155Y-14152795D02*
X37743024Y-14202277D01*
X37743024Y-14202277D02*
X37759187Y-14252652D01*
X37759187Y-14252652D02*
X37775570Y-14303694D01*
X37775570Y-14303694D02*
X37792101Y-14355177D01*
X37792101Y-14355177D02*
X37808708Y-14406875D01*
X37808708Y-14406875D02*
X37825318Y-14458564D01*
X37825318Y-14458564D02*
X37841859Y-14510017D01*
X37841859Y-14510017D02*
X37858258Y-14561009D01*
X37858258Y-14561009D02*
X37874443Y-14611314D01*
X37874443Y-14611314D02*
X37890341Y-14660707D01*
X37890341Y-14660707D02*
X37905880Y-14708962D01*
X37905880Y-14708962D02*
X37920987Y-14755854D01*
X37920987Y-14755854D02*
X37935590Y-14801156D01*
X37935590Y-14801156D02*
X37949616Y-14844643D01*
X37949616Y-14844643D02*
X37962993Y-14886090D01*
X37962993Y-14886090D02*
X37975649Y-14925272D01*
X37975649Y-14925272D02*
X37987510Y-14961961D01*
X37987510Y-14961961D02*
X37998504Y-14995934D01*
X37998504Y-14995934D02*
X38008559Y-15026963D01*
X38008559Y-15026963D02*
X38017603Y-15054825D01*
X38017603Y-15054825D02*
X38025563Y-15079292D01*
X38025563Y-15079292D02*
X38032365Y-15100140D01*
X38032365Y-15100140D02*
X38037939Y-15117142D01*
X38037939Y-15117142D02*
X38042211Y-15130074D01*
X38042211Y-15130074D02*
X38045109Y-15138709D01*
X38045109Y-15138709D02*
X38046561Y-15142823D01*
X38046561Y-15142823D02*
X38046720Y-15143151D01*
X38046720Y-15143151D02*
X38047752Y-15140210D01*
X38047752Y-15140210D02*
X38050070Y-15132880D01*
X38050070Y-15132880D02*
X38053528Y-15121645D01*
X38053528Y-15121645D02*
X38057980Y-15106990D01*
X38057980Y-15106990D02*
X38063279Y-15089400D01*
X38063279Y-15089400D02*
X38069278Y-15069359D01*
X38069278Y-15069359D02*
X38075832Y-15047351D01*
X38075832Y-15047351D02*
X38082793Y-15023862D01*
X38082793Y-15023862D02*
X38083191Y-15022515D01*
X38083191Y-15022515D02*
X38118006Y-14904735D01*
X38118006Y-14904735D02*
X37951093Y-14382435D01*
X37951093Y-14382435D02*
X37934975Y-14332033D01*
X37934975Y-14332033D02*
X37919167Y-14282660D01*
X37919167Y-14282660D02*
X37903743Y-14234555D01*
X37903743Y-14234555D02*
X37888784Y-14187956D01*
X37888784Y-14187956D02*
X37874364Y-14143103D01*
X37874364Y-14143103D02*
X37860563Y-14100234D01*
X37860563Y-14100234D02*
X37847456Y-14059588D01*
X37847456Y-14059588D02*
X37835123Y-14021405D01*
X37835123Y-14021405D02*
X37823639Y-13985923D01*
X37823639Y-13985923D02*
X37813082Y-13953382D01*
X37813082Y-13953382D02*
X37803529Y-13924019D01*
X37803529Y-13924019D02*
X37795059Y-13898075D01*
X37795059Y-13898075D02*
X37787747Y-13875787D01*
X37787747Y-13875787D02*
X37781672Y-13857395D01*
X37781672Y-13857395D02*
X37776911Y-13843139D01*
X37776911Y-13843139D02*
X37773541Y-13833256D01*
X37773541Y-13833256D02*
X37771696Y-13828129D01*
X37771696Y-13828129D02*
X37755472Y-13791703D01*
X37755472Y-13791703D02*
X37736975Y-13759810D01*
X37736975Y-13759810D02*
X37716185Y-13732427D01*
X37716185Y-13732427D02*
X37693080Y-13709534D01*
X37693080Y-13709534D02*
X37667641Y-13691108D01*
X37667641Y-13691108D02*
X37639847Y-13677128D01*
X37639847Y-13677128D02*
X37619519Y-13670130D01*
X37619519Y-13670130D02*
X37607676Y-13667029D01*
X37607676Y-13667029D02*
X37595750Y-13664372D01*
X37595750Y-13664372D02*
X37585972Y-13662648D01*
X37585972Y-13662648D02*
X37584415Y-13662452D01*
X37584415Y-13662452D02*
X37576622Y-13661697D01*
X37576622Y-13661697D02*
X37572760Y-13661963D01*
X37572760Y-13661963D02*
X37571722Y-13663622D01*
X37571722Y-13663622D02*
X37014511Y-13663622D01*
X37014511Y-13663622D02*
X37012866Y-13636440D01*
X37012866Y-13636440D02*
X37012684Y-13605639D01*
X37012684Y-13605639D02*
X37014398Y-13577974D01*
X37014398Y-13577974D02*
X37014990Y-13572830D01*
X37014990Y-13572830D02*
X37021993Y-13532524D01*
X37021993Y-13532524D02*
X37032499Y-13495819D01*
X37032499Y-13495819D02*
X37046627Y-13462525D01*
X37046627Y-13462525D02*
X37064495Y-13432455D01*
X37064495Y-13432455D02*
X37086221Y-13405419D01*
X37086221Y-13405419D02*
X37111925Y-13381230D01*
X37111925Y-13381230D02*
X37141724Y-13359699D01*
X37141724Y-13359699D02*
X37153626Y-13352475D01*
X37153626Y-13352475D02*
X37182150Y-13338085D01*
X37182150Y-13338085D02*
X37213646Y-13325972D01*
X37213646Y-13325972D02*
X37246880Y-13316429D01*
X37246880Y-13316429D02*
X37280614Y-13309747D01*
X37280614Y-13309747D02*
X37313613Y-13306216D01*
X37313613Y-13306216D02*
X37344640Y-13306128D01*
X37344640Y-13306128D02*
X37349104Y-13306435D01*
X37349104Y-13306435D02*
X37349104Y-13306435D01*
G36*
X39053455Y-15830897D02*
G01*
X39040054Y-15801935D01*
X39037467Y-15794553D01*
X39033840Y-15783076D01*
X39029415Y-15768326D01*
X39024432Y-15751124D01*
X39019133Y-15732291D01*
X39013759Y-15712649D01*
X39012690Y-15708676D01*
X39007713Y-15690184D01*
X39003157Y-15673411D01*
X38999186Y-15658948D01*
X38995963Y-15647387D01*
X38993654Y-15639318D01*
X38992422Y-15635334D01*
X38992267Y-15635016D01*
X38991521Y-15637485D01*
X38989478Y-15644540D01*
X38986224Y-15655880D01*
X38981845Y-15671201D01*
X38976426Y-15690202D01*
X38970055Y-15712581D01*
X38962816Y-15738036D01*
X38954795Y-15766264D01*
X38946079Y-15796963D01*
X38936754Y-15829832D01*
X38926905Y-15864567D01*
X38916618Y-15900869D01*
X38910099Y-15923885D01*
X38899454Y-15961449D01*
X38889103Y-15997929D01*
X38879140Y-16032995D01*
X38869660Y-16066317D01*
X38860756Y-16097563D01*
X38852524Y-16126405D01*
X38845057Y-16152512D01*
X38838451Y-16175552D01*
X38832799Y-16195197D01*
X38828196Y-16211116D01*
X38824737Y-16222978D01*
X38822516Y-16230453D01*
X38821882Y-16232495D01*
X38807971Y-16267468D01*
X38789512Y-16301065D01*
X38766969Y-16332727D01*
X38740806Y-16361898D01*
X38711489Y-16388019D01*
X38679481Y-16410535D01*
X38667553Y-16417559D01*
X38633244Y-16434184D01*
X38596011Y-16447481D01*
X38557061Y-16457078D01*
X38522777Y-16462124D01*
X38504847Y-16463699D01*
X38489802Y-16464402D01*
X38475523Y-16464232D01*
X38459890Y-16463190D01*
X38448924Y-16462141D01*
X38407526Y-16455371D01*
X38366375Y-16443659D01*
X38325867Y-16427139D01*
X38291334Y-16408886D01*
X38280713Y-16402201D01*
X38270503Y-16394711D01*
X38259715Y-16385592D01*
X38247359Y-16374022D01*
X38236761Y-16363536D01*
X38225136Y-16351485D01*
X38213690Y-16338964D01*
X38203389Y-16327077D01*
X38195200Y-16316926D01*
X38191657Y-16312063D01*
X38181042Y-16295200D01*
X38170434Y-16276070D01*
X38160655Y-16256317D01*
X38152530Y-16237590D01*
X38147758Y-16224396D01*
X38141955Y-16206138D01*
X38121449Y-16200856D01*
X38101861Y-16195675D01*
X38086269Y-16191106D01*
X38073705Y-16186681D01*
X38063202Y-16181928D01*
X38053791Y-16176380D01*
X38044505Y-16169566D01*
X38034377Y-16161017D01*
X38028493Y-16155764D01*
X37998401Y-16126029D01*
X37972954Y-16095195D01*
X37951745Y-16062673D01*
X37934365Y-16027873D01*
X37926813Y-16008975D01*
X37923005Y-15998897D01*
X37919716Y-15990635D01*
X37917414Y-15985347D01*
X37916734Y-15984119D01*
X37913756Y-15982729D01*
X37906884Y-15980437D01*
X37897155Y-15977567D01*
X37886096Y-15974569D01*
X37865267Y-15968530D01*
X37848076Y-15961981D01*
X37833083Y-15954191D01*
X37818851Y-15944434D01*
X37806570Y-15934306D01*
X37776023Y-15904383D01*
X37763490Y-15889046D01*
X38023474Y-15889046D01*
X38024336Y-15892841D01*
X38026704Y-15900459D01*
X38030245Y-15910984D01*
X38034626Y-15923505D01*
X38039517Y-15937106D01*
X38044585Y-15950873D01*
X38049499Y-15963893D01*
X38053926Y-15975252D01*
X38057535Y-15984035D01*
X38059641Y-15988656D01*
X38076826Y-16017254D01*
X38097664Y-16042403D01*
X38121919Y-16063920D01*
X38149353Y-16081624D01*
X38179730Y-16095333D01*
X38210121Y-16104272D01*
X38225250Y-16106777D01*
X38243485Y-16108397D01*
X38262999Y-16109086D01*
X38281965Y-16108799D01*
X38298555Y-16107490D01*
X38304312Y-16106635D01*
X38334555Y-16099038D01*
X38363391Y-16087438D01*
X38390283Y-16072272D01*
X38414696Y-16053977D01*
X38436093Y-16032989D01*
X38453939Y-16009746D01*
X38467698Y-15984685D01*
X38473970Y-15968335D01*
X38475005Y-15964827D01*
X38477367Y-15956635D01*
X38480998Y-15943963D01*
X38485839Y-15927016D01*
X38491833Y-15905996D01*
X38498922Y-15881107D01*
X38507048Y-15852555D01*
X38516152Y-15820542D01*
X38526178Y-15785272D01*
X38537066Y-15746950D01*
X38548760Y-15705778D01*
X38561201Y-15661962D01*
X38574331Y-15615705D01*
X38588093Y-15567210D01*
X38602428Y-15516682D01*
X38617278Y-15464325D01*
X38632586Y-15410342D01*
X38648294Y-15354938D01*
X38664344Y-15298316D01*
X38665713Y-15293483D01*
X38853375Y-14631331D01*
X38784499Y-14375942D01*
X38775063Y-14340995D01*
X38765984Y-14307460D01*
X38757352Y-14275659D01*
X38749255Y-14245913D01*
X38741781Y-14218545D01*
X38735019Y-14193875D01*
X38729057Y-14172227D01*
X38723983Y-14153923D01*
X38719886Y-14139283D01*
X38716855Y-14128630D01*
X38714977Y-14122286D01*
X38714354Y-14120522D01*
X38713355Y-14122855D01*
X38711185Y-14129448D01*
X38708035Y-14139669D01*
X38704097Y-14152883D01*
X38699562Y-14168459D01*
X38694621Y-14185762D01*
X38694584Y-14185893D01*
X38674677Y-14256256D01*
X38654666Y-14326958D01*
X38634601Y-14397829D01*
X38614529Y-14468696D01*
X38594500Y-14539388D01*
X38574563Y-14609734D01*
X38554766Y-14679562D01*
X38535158Y-14748702D01*
X38515788Y-14816981D01*
X38496704Y-14884228D01*
X38477956Y-14950272D01*
X38459591Y-15014942D01*
X38441660Y-15078065D01*
X38424209Y-15139472D01*
X38407289Y-15198989D01*
X38390948Y-15256447D01*
X38375235Y-15311673D01*
X38360198Y-15364496D01*
X38345886Y-15414744D01*
X38332349Y-15462247D01*
X38319634Y-15506833D01*
X38307790Y-15548331D01*
X38296867Y-15586568D01*
X38286913Y-15621374D01*
X38277977Y-15652578D01*
X38270107Y-15680008D01*
X38263352Y-15703492D01*
X38257761Y-15722859D01*
X38253383Y-15737938D01*
X38250267Y-15748557D01*
X38248460Y-15754545D01*
X38248064Y-15755749D01*
X38238227Y-15776217D01*
X38224348Y-15796985D01*
X38207298Y-15817070D01*
X38187950Y-15835490D01*
X38167176Y-15851263D01*
X38158345Y-15856797D01*
X38134304Y-15868627D01*
X38107184Y-15878049D01*
X38078584Y-15884643D01*
X38050100Y-15887989D01*
X38038530Y-15888325D01*
X38030545Y-15888435D01*
X38025086Y-15888722D01*
X38023474Y-15889046D01*
X37763490Y-15889046D01*
X37749064Y-15871394D01*
X37726199Y-15835999D01*
X37714939Y-15814475D01*
X37713050Y-15809815D01*
X37709643Y-15800548D01*
X37704715Y-15786660D01*
X37698261Y-15768143D01*
X37690277Y-15744983D01*
X37680761Y-15717170D01*
X37669708Y-15684694D01*
X37657114Y-15647542D01*
X37642976Y-15605704D01*
X37627291Y-15559169D01*
X37610053Y-15507926D01*
X37591260Y-15451963D01*
X37570908Y-15391269D01*
X37548993Y-15325834D01*
X37525511Y-15255645D01*
X37500459Y-15180693D01*
X37473833Y-15100966D01*
X37445629Y-15016453D01*
X37415843Y-14927143D01*
X37384473Y-14833024D01*
X37369639Y-14788505D01*
X37346515Y-14719079D01*
X37323776Y-14650791D01*
X37301479Y-14583803D01*
X37279676Y-14518279D01*
X37258421Y-14454380D01*
X37237769Y-14392270D01*
X37217773Y-14332110D01*
X37198487Y-14274064D01*
X37179965Y-14218294D01*
X37162261Y-14164962D01*
X37145429Y-14114232D01*
X37129523Y-14066266D01*
X37114597Y-14021226D01*
X37100704Y-13979275D01*
X37087899Y-13940576D01*
X37076235Y-13905292D01*
X37065767Y-13873584D01*
X37056548Y-13845615D01*
X37048632Y-13821549D01*
X37042073Y-13801547D01*
X37036925Y-13785773D01*
X37033242Y-13774388D01*
X37031078Y-13767556D01*
X37030515Y-13765649D01*
X37023769Y-13734981D01*
X37018511Y-13702379D01*
X37014842Y-13669109D01*
X37014511Y-13663622D01*
X37571722Y-13663622D01*
X37572267Y-13666547D01*
X37573588Y-13671067D01*
X37576361Y-13680090D01*
X37580514Y-13693390D01*
X37585976Y-13710740D01*
X37592673Y-13731915D01*
X37600534Y-13756691D01*
X37609484Y-13784840D01*
X37619453Y-13816138D01*
X37630368Y-13850359D01*
X37642155Y-13887277D01*
X37654743Y-13926667D01*
X37668059Y-13968302D01*
X37682031Y-14011959D01*
X37696586Y-14057410D01*
X37711651Y-14104431D01*
X37727155Y-14152795D01*
X37743024Y-14202277D01*
X37759187Y-14252652D01*
X37775570Y-14303694D01*
X37792101Y-14355177D01*
X37808708Y-14406875D01*
X37825318Y-14458564D01*
X37841859Y-14510017D01*
X37858258Y-14561009D01*
X37874443Y-14611314D01*
X37890341Y-14660707D01*
X37905880Y-14708962D01*
X37920987Y-14755854D01*
X37935590Y-14801156D01*
X37949616Y-14844643D01*
X37962993Y-14886090D01*
X37975649Y-14925272D01*
X37987510Y-14961961D01*
X37998504Y-14995934D01*
X38008559Y-15026963D01*
X38017603Y-15054825D01*
X38025563Y-15079292D01*
X38032365Y-15100140D01*
X38037939Y-15117142D01*
X38042211Y-15130074D01*
X38045109Y-15138709D01*
X38046561Y-15142823D01*
X38046720Y-15143151D01*
X38047752Y-15140210D01*
X38050070Y-15132880D01*
X38053528Y-15121645D01*
X38057980Y-15106990D01*
X38063279Y-15089400D01*
X38069278Y-15069359D01*
X38075832Y-15047351D01*
X38082793Y-15023862D01*
X38083191Y-15022515D01*
X38118006Y-14904735D01*
X37951093Y-14382435D01*
X37934975Y-14332033D01*
X37919167Y-14282660D01*
X37903743Y-14234555D01*
X37888784Y-14187956D01*
X37874364Y-14143103D01*
X37860563Y-14100234D01*
X37847456Y-14059588D01*
X37835123Y-14021405D01*
X37823639Y-13985923D01*
X37813082Y-13953382D01*
X37803529Y-13924019D01*
X37795059Y-13898075D01*
X37787747Y-13875787D01*
X37781672Y-13857395D01*
X37776911Y-13843139D01*
X37773541Y-13833256D01*
X37771696Y-13828129D01*
X37755472Y-13791703D01*
X37736975Y-13759810D01*
X37716185Y-13732427D01*
X37693080Y-13709534D01*
X37667641Y-13691108D01*
X37639847Y-13677128D01*
X37619519Y-13670130D01*
X37607676Y-13667029D01*
X37595750Y-13664372D01*
X37585972Y-13662648D01*
X37584415Y-13662452D01*
X37576622Y-13661697D01*
X37572760Y-13661963D01*
X37571722Y-13663622D01*
X37014511Y-13663622D01*
X37012866Y-13636440D01*
X37012684Y-13605639D01*
X37014398Y-13577974D01*
X37014990Y-13572830D01*
X37021993Y-13532524D01*
X37032499Y-13495819D01*
X37046627Y-13462525D01*
X37064495Y-13432455D01*
X37086221Y-13405419D01*
X37111925Y-13381230D01*
X37141724Y-13359699D01*
X37153626Y-13352475D01*
X37182150Y-13338085D01*
X37213646Y-13325972D01*
X37246880Y-13316429D01*
X37280614Y-13309747D01*
X37313613Y-13306216D01*
X37344640Y-13306128D01*
X37349104Y-13306435D01*
X37391998Y-13311945D01*
X37431990Y-13321536D01*
X37469363Y-13335326D01*
X37504399Y-13353438D01*
X37537379Y-13375993D01*
X37563814Y-13398567D01*
X37587195Y-13423550D01*
X37609048Y-13453211D01*
X37629246Y-13487344D01*
X37647657Y-13525745D01*
X37655317Y-13544340D01*
X37663968Y-13566366D01*
X37697036Y-13575600D01*
X37718125Y-13581843D01*
X37735304Y-13587895D01*
X37749678Y-13594359D01*
X37762355Y-13601835D01*
X37774441Y-13610922D01*
X37787043Y-13622223D01*
X37792253Y-13627276D01*
X37812355Y-13649122D01*
X37830700Y-13673476D01*
X37847689Y-13700984D01*
X37863721Y-13732292D01*
X37878870Y-13767235D01*
X37888508Y-13791176D01*
X37922336Y-13801023D01*
X37941920Y-13806962D01*
X37957565Y-13812344D01*
X37970307Y-13817640D01*
X37981181Y-13823320D01*
X37991223Y-13829854D01*
X37999344Y-13836005D01*
X38025886Y-13859974D01*
X38050910Y-13888267D01*
X38073906Y-13920229D01*
X38094361Y-13955205D01*
X38098305Y-13962908D01*
X38103877Y-13974276D01*
X38108999Y-13985275D01*
X38113887Y-13996497D01*
X38118758Y-14008531D01*
X38123829Y-14021969D01*
X38129317Y-14037401D01*
X38135439Y-14055418D01*
X38142412Y-14076611D01*
X38150453Y-14101570D01*
X38158348Y-14126373D01*
X38166626Y-14152247D01*
X38173542Y-14173365D01*
X38179141Y-14189853D01*
X38183469Y-14201837D01*
X38186569Y-14209441D01*
X38188487Y-14212792D01*
X38189128Y-14212733D01*
X38190071Y-14209781D01*
X38192372Y-14202244D01*
X38195946Y-14190406D01*
X38200708Y-14174554D01*
X38206573Y-14154972D01*
X38213456Y-14131945D01*
X38221271Y-14105760D01*
X38229934Y-14076700D01*
X38239359Y-14045052D01*
X38249461Y-14011100D01*
X38260156Y-13975130D01*
X38271357Y-13937428D01*
X38282981Y-13898277D01*
X38289024Y-13877915D01*
X38301803Y-13834921D01*
X38314142Y-13793560D01*
X38325961Y-13754100D01*
X38337174Y-13716813D01*
X38347701Y-13681968D01*
X38353752Y-13662042D01*
X38963831Y-13662042D01*
X38964140Y-13664527D01*
X38964406Y-13665391D01*
X38965123Y-13668115D01*
X38967044Y-13675528D01*
X38970108Y-13687399D01*
X38974256Y-13703497D01*
X38979430Y-13723591D01*
X38985570Y-13747449D01*
X38992615Y-13774840D01*
X39000508Y-13805533D01*
X39009189Y-13839297D01*
X39018597Y-13875901D01*
X39028675Y-13915113D01*
X39039361Y-13956702D01*
X39050598Y-14000436D01*
X39062326Y-14046086D01*
X39074485Y-14093419D01*
X39087016Y-14142203D01*
X39099860Y-14192209D01*
X39112957Y-14243205D01*
X39126248Y-14294959D01*
X39139673Y-14347240D01*
X39153173Y-14399817D01*
X39166690Y-14452459D01*
X39180162Y-14504934D01*
X39193532Y-14557012D01*
X39206739Y-14608461D01*
X39219724Y-14659049D01*
X39232429Y-14708546D01*
X39244792Y-14756721D01*
X39256756Y-14803342D01*
X39268261Y-14848177D01*
X39279247Y-14890997D01*
X39289655Y-14931568D01*
X39299426Y-14969661D01*
X39308500Y-15005044D01*
X39316818Y-15037486D01*
X39324321Y-15066755D01*
X39330948Y-15092621D01*
X39336642Y-15114851D01*
X39341342Y-15133216D01*
X39344989Y-15147483D01*
X39347523Y-15157421D01*
X39348518Y-15161341D01*
X39350662Y-15169355D01*
X39352354Y-15174837D01*
X39353209Y-15176581D01*
X39354076Y-15174096D01*
X39356343Y-15167197D01*
X39359873Y-15156309D01*
X39364530Y-15141862D01*
X39370174Y-15124280D01*
X39376671Y-15103992D01*
X39383882Y-15081424D01*
X39391671Y-15057005D01*
X39398840Y-15034488D01*
X39443820Y-14893121D01*
X39307443Y-14361388D01*
X39294321Y-14310256D01*
X39281474Y-14260253D01*
X39268964Y-14211614D01*
X39256850Y-14164578D01*
X39245196Y-14119380D01*
X39234063Y-14076259D01*
X39223512Y-14035452D01*
X39213605Y-13997195D01*
X39204403Y-13961726D01*
X39195967Y-13929282D01*
X39188360Y-13900099D01*
X39181643Y-13874416D01*
X39175877Y-13852470D01*
X39171124Y-13834497D01*
X39167446Y-13820734D01*
X39164903Y-13811419D01*
X39163560Y-13806795D01*
X39154243Y-13782864D01*
X39142585Y-13761463D01*
X39127866Y-13741563D01*
X39109366Y-13722135D01*
X39095879Y-13710045D01*
X39071168Y-13691927D01*
X39044300Y-13678031D01*
X39014835Y-13668177D01*
X38982332Y-13662180D01*
X38978863Y-13661782D01*
X38970171Y-13660925D01*
X38965501Y-13660927D01*
X38963831Y-13662042D01*
X38353752Y-13662042D01*
X38357459Y-13649835D01*
X38366364Y-13620686D01*
X38374334Y-13594791D01*
X38381288Y-13572419D01*
X38387141Y-13553841D01*
X38391813Y-13539328D01*
X38395219Y-13529149D01*
X38397273Y-13523585D01*
X38416332Y-13485071D01*
X38439507Y-13449059D01*
X38466412Y-13416048D01*
X38496659Y-13386535D01*
X38514964Y-13371684D01*
X38529177Y-13362063D01*
X38546786Y-13351883D01*
X38566273Y-13341889D01*
X38586125Y-13332828D01*
X38604826Y-13325446D01*
X38616533Y-13321646D01*
X38657555Y-13312257D01*
X38699061Y-13307263D01*
X38740479Y-13306602D01*
X38781238Y-13310217D01*
X38820767Y-13318048D01*
X38858496Y-13330036D01*
X38893852Y-13346122D01*
X38903251Y-13351353D01*
X38938679Y-13374772D01*
X38970915Y-13401894D01*
X38999661Y-13432355D01*
X39024616Y-13465792D01*
X39045480Y-13501840D01*
X39061955Y-13540135D01*
X39064464Y-13547339D01*
X39067843Y-13557184D01*
X39070670Y-13565043D01*
X39072534Y-13569784D01*
X39072980Y-13570638D01*
X39075683Y-13571635D01*
X39082371Y-13573647D01*
X39092118Y-13576408D01*
X39103994Y-13579650D01*
X39107490Y-13580584D01*
X39128169Y-13586541D01*
X39144993Y-13592547D01*
X39159157Y-13599181D01*
X39171857Y-13607023D01*
X39184291Y-13616653D01*
X39187304Y-13619238D01*
X39216228Y-13647799D01*
X39241542Y-13679834D01*
X39263062Y-13715065D01*
X39280603Y-13753214D01*
X39285845Y-13767425D01*
X39295077Y-13794095D01*
X39327930Y-13803121D01*
X39348067Y-13808977D01*
X39364333Y-13814572D01*
X39377871Y-13820452D01*
X39389827Y-13827166D01*
X39401344Y-13835261D01*
X39410439Y-13842617D01*
X39437571Y-13868435D01*
X39462189Y-13897708D01*
X39483599Y-13929438D01*
X39501102Y-13962632D01*
X39510425Y-13985548D01*
X39512950Y-13993388D01*
X39516400Y-14005205D01*
X39520510Y-14020035D01*
X39525017Y-14036914D01*
X39529657Y-14054881D01*
X39532339Y-14065558D01*
X39536620Y-14082669D01*
X39540588Y-14098309D01*
X39544054Y-14111746D01*
X39546827Y-14122252D01*
X39548719Y-14129096D01*
X39549442Y-14131379D01*
X39550536Y-14129800D01*
X39553117Y-14123369D01*
X39557187Y-14112086D01*
X39562745Y-14095950D01*
X39569792Y-14074961D01*
X39578326Y-14049117D01*
X39588350Y-14018420D01*
X39599863Y-13982867D01*
X39612864Y-13942459D01*
X39627355Y-13897195D01*
X39638931Y-13860904D01*
X39653370Y-13815595D01*
X39666369Y-13774846D01*
X39678025Y-13738375D01*
X39688434Y-13705899D01*
X39697691Y-13677136D01*
X39705894Y-13651804D01*
X39713138Y-13629620D01*
X39719519Y-13610301D01*
X39725134Y-13593567D01*
X39730079Y-13579134D01*
X39734449Y-13566719D01*
X39738341Y-13556042D01*
X39741852Y-13546818D01*
X39745076Y-13538766D01*
X39748111Y-13531604D01*
X39751052Y-13525050D01*
X39753995Y-13518820D01*
X39757038Y-13512632D01*
X39758512Y-13509692D01*
X39775968Y-13478532D01*
X39796076Y-13448739D01*
X39818155Y-13421128D01*
X39841524Y-13396512D01*
X39865502Y-13375707D01*
X39878346Y-13366422D01*
X39913480Y-13345845D01*
X39951582Y-13329128D01*
X39992063Y-13316508D01*
X40016104Y-13311214D01*
X40034116Y-13308751D01*
X40055412Y-13307305D01*
X40078297Y-13306879D01*
X40101077Y-13307476D01*
X40122059Y-13309095D01*
X40136051Y-13311065D01*
X40173739Y-13319958D01*
X40209708Y-13332612D01*
X40243502Y-13348719D01*
X40274670Y-13367971D01*
X40302757Y-13390058D01*
X40327310Y-13414672D01*
X40347874Y-13441506D01*
X40360934Y-13463937D01*
X40365609Y-13474067D01*
X40369098Y-13484088D01*
X40371639Y-13495161D01*
X40373472Y-13508447D01*
X40374833Y-13525108D01*
X40375375Y-13534390D01*
X40376146Y-13547188D01*
X40376964Y-13558080D01*
X40377746Y-13566104D01*
X40378407Y-13570299D01*
X40378566Y-13570664D01*
X40381385Y-13571798D01*
X40388141Y-13573953D01*
X40397866Y-13576833D01*
X40409589Y-13580144D01*
X40411356Y-13580631D01*
X40441600Y-13589389D01*
X40467455Y-13597932D01*
X40489584Y-13606579D01*
X40508651Y-13615652D01*
X40525317Y-13625469D01*
X40540247Y-13636353D01*
X40554102Y-13648622D01*
X40556111Y-13650585D01*
X40568641Y-13663681D01*
X40577809Y-13675049D01*
X40584478Y-13685788D01*
X40585942Y-13688685D01*
X40590225Y-13698264D01*
X40593478Y-13707595D01*
X40595910Y-13717751D01*
X40597727Y-13729806D01*
X40599137Y-13744831D01*
X40600304Y-13763161D01*
X40601357Y-13778153D01*
X40602604Y-13788910D01*
X40604001Y-13795118D01*
X40605015Y-13796580D01*
X40608333Y-13797528D01*
X40615660Y-13799608D01*
X40626113Y-13802570D01*
X40638812Y-13806164D01*
X40648564Y-13808922D01*
X40679236Y-13818221D01*
X40705495Y-13827632D01*
X40728001Y-13837497D01*
X40747414Y-13848158D01*
X40764394Y-13859957D01*
X40779603Y-13873237D01*
X40786768Y-13880559D01*
X40801739Y-13899734D01*
X40815104Y-13923241D01*
X40826582Y-13950505D01*
X40835660Y-13980054D01*
X40838713Y-13992502D01*
X40840926Y-14003427D01*
X40842475Y-14014247D01*
X40843534Y-14026379D01*
X40844278Y-14041242D01*
X40844680Y-14053175D01*
X40844726Y-14088077D01*
X40842522Y-14120222D01*
X40837872Y-14151501D01*
X40831380Y-14180676D01*
X40829986Y-14185413D01*
X40827056Y-14194731D01*
X40822654Y-14208439D01*
X40816843Y-14226344D01*
X40809688Y-14248256D01*
X40801253Y-14273983D01*
X40791600Y-14303334D01*
X40780796Y-14336116D01*
X40768902Y-14372139D01*
X40755983Y-14411210D01*
X40742103Y-14453139D01*
X40727326Y-14497734D01*
X40711716Y-14544803D01*
X40695337Y-14594155D01*
X40678252Y-14645598D01*
X40660526Y-14698941D01*
X40642222Y-14753992D01*
X40623404Y-14810560D01*
X40604136Y-14868453D01*
X40584483Y-14927480D01*
X40564508Y-14987449D01*
X40544274Y-15048169D01*
X40523847Y-15109447D01*
X40503289Y-15171094D01*
X40482664Y-15232917D01*
X40462038Y-15294724D01*
X40441472Y-15356325D01*
X40421032Y-15417527D01*
X40400781Y-15478139D01*
X40380784Y-15537969D01*
X40361103Y-15596827D01*
X40341803Y-15654520D01*
X40322948Y-15710857D01*
X40304602Y-15765647D01*
X40286829Y-15818698D01*
X40269692Y-15869818D01*
X40253255Y-15918816D01*
X40237583Y-15965501D01*
X40222740Y-16009680D01*
X40208788Y-16051163D01*
X40195792Y-16089758D01*
X40183817Y-16125273D01*
X40172925Y-16157517D01*
X40163181Y-16186298D01*
X40154649Y-16211425D01*
X40147392Y-16232707D01*
X40141475Y-16249951D01*
X40136961Y-16262966D01*
X40133915Y-16271562D01*
X40132399Y-16275545D01*
X40132339Y-16275675D01*
X40113189Y-16308753D01*
X40089244Y-16340562D01*
X40068174Y-16363570D01*
X40044038Y-16386136D01*
X40019713Y-16404866D01*
X39993965Y-16420516D01*
X39965565Y-16433844D01*
X39936402Y-16444585D01*
X39908746Y-16452800D01*
X39882585Y-16458429D01*
X39855998Y-16461772D01*
X39827063Y-16463131D01*
X39817984Y-16463197D01*
X39775775Y-16460877D01*
X39734910Y-16454080D01*
X39695714Y-16443026D01*
X39658509Y-16427938D01*
X39623620Y-16409036D01*
X39591371Y-16386543D01*
X39562085Y-16360679D01*
X39536087Y-16331666D01*
X39513701Y-16299726D01*
X39495249Y-16265080D01*
X39483086Y-16234222D01*
X39479403Y-16223456D01*
X39476222Y-16214577D01*
X39473927Y-16208631D01*
X39472983Y-16206688D01*
X39470141Y-16205587D01*
X39463374Y-16203564D01*
X39453690Y-16200904D01*
X39442098Y-16197895D01*
X39441932Y-16197853D01*
X39422746Y-16192550D01*
X39407210Y-16187054D01*
X39393915Y-16180702D01*
X39381452Y-16172830D01*
X39369674Y-16163807D01*
X39340706Y-16138284D01*
X39316229Y-16112415D01*
X39295673Y-16085404D01*
X39278468Y-16056459D01*
X39264045Y-16024783D01*
X39257660Y-16007563D01*
X39253879Y-15997210D01*
X39250404Y-15988707D01*
X39247719Y-15983185D01*
X39246649Y-15981746D01*
X39243123Y-15980424D01*
X39235862Y-15978371D01*
X39226098Y-15975919D01*
X39219814Y-15974456D01*
X39202641Y-15970288D01*
X39189111Y-15966191D01*
X39177832Y-15961565D01*
X39167409Y-15955809D01*
X39156451Y-15948325D01*
X39152732Y-15945564D01*
X39122932Y-15920497D01*
X39096090Y-15892568D01*
X39093387Y-15889082D01*
X39359607Y-15889082D01*
X39361206Y-15895688D01*
X39365661Y-15912993D01*
X39370814Y-15931221D01*
X39376330Y-15949339D01*
X39381877Y-15966311D01*
X39387118Y-15981102D01*
X39391722Y-15992679D01*
X39394265Y-15998087D01*
X39403060Y-16012077D01*
X39415078Y-16027353D01*
X39429143Y-16042654D01*
X39444082Y-16056721D01*
X39458720Y-16068293D01*
X39461356Y-16070096D01*
X39485164Y-16083824D01*
X39511190Y-16095177D01*
X39537265Y-16103235D01*
X39542218Y-16104354D01*
X39562624Y-16107428D01*
X39585730Y-16108890D01*
X39609410Y-16108721D01*
X39631538Y-16106899D01*
X39641518Y-16105331D01*
X39673240Y-16096889D01*
X39702604Y-16084173D01*
X39729257Y-16067443D01*
X39752845Y-16046958D01*
X39773012Y-16022978D01*
X39788387Y-15997770D01*
X39789940Y-15993902D01*
X39793026Y-15985403D01*
X39797580Y-15972467D01*
X39803538Y-15955286D01*
X39810836Y-15934053D01*
X39819410Y-15908959D01*
X39829194Y-15880199D01*
X39840127Y-15847964D01*
X39852142Y-15812447D01*
X39865176Y-15773841D01*
X39879165Y-15732338D01*
X39894044Y-15688130D01*
X39909750Y-15641411D01*
X39926218Y-15592372D01*
X39943383Y-15541207D01*
X39961183Y-15488108D01*
X39979552Y-15433267D01*
X39998427Y-15376878D01*
X40017743Y-15319132D01*
X40037435Y-15260222D01*
X40057441Y-15200341D01*
X40077696Y-15139682D01*
X40098135Y-15078436D01*
X40118694Y-15016797D01*
X40139310Y-14954957D01*
X40159917Y-14893109D01*
X40180452Y-14831445D01*
X40200851Y-14770158D01*
X40221050Y-14709440D01*
X40240983Y-14649485D01*
X40260588Y-14590483D01*
X40279799Y-14532629D01*
X40298554Y-14476115D01*
X40316786Y-14421133D01*
X40334433Y-14367875D01*
X40351431Y-14316535D01*
X40367714Y-14267305D01*
X40383219Y-14220377D01*
X40397881Y-14175945D01*
X40411637Y-14134200D01*
X40424423Y-14095336D01*
X40436173Y-14059544D01*
X40446824Y-14027017D01*
X40456312Y-13997949D01*
X40464572Y-13972531D01*
X40471541Y-13950956D01*
X40477154Y-13933417D01*
X40481347Y-13920106D01*
X40484056Y-13911216D01*
X40485178Y-13907125D01*
X40488443Y-13887829D01*
X40490487Y-13866494D01*
X40491296Y-13844518D01*
X40490858Y-13823297D01*
X40489160Y-13804228D01*
X40486271Y-13789015D01*
X40476324Y-13760392D01*
X40462737Y-13734966D01*
X40445703Y-13712987D01*
X40425413Y-13694703D01*
X40403150Y-13680911D01*
X40387451Y-13673833D01*
X40371593Y-13668609D01*
X40354334Y-13664971D01*
X40334428Y-13662648D01*
X40313092Y-13661457D01*
X40296378Y-13660953D01*
X40284029Y-13660961D01*
X40275335Y-13661717D01*
X40269588Y-13663455D01*
X40266079Y-13666411D01*
X40264099Y-13670819D01*
X40262941Y-13676914D01*
X40262774Y-13678140D01*
X40261288Y-13686894D01*
X40258933Y-13698210D01*
X40256197Y-13709753D01*
X40255976Y-13710617D01*
X40254583Y-13715315D01*
X40251657Y-13724586D01*
X40247260Y-13738236D01*
X40241458Y-13756075D01*
X40234314Y-13777909D01*
X40225893Y-13803546D01*
X40216259Y-13832793D01*
X40205476Y-13865459D01*
X40193609Y-13901350D01*
X40180721Y-13940275D01*
X40166878Y-13982041D01*
X40152142Y-14026456D01*
X40136580Y-14073327D01*
X40120254Y-14122461D01*
X40103229Y-14173668D01*
X40085569Y-14226753D01*
X40067339Y-14281525D01*
X40048603Y-14337792D01*
X40029424Y-14395360D01*
X40009868Y-14454038D01*
X39989998Y-14513633D01*
X39969880Y-14573953D01*
X39949576Y-14634805D01*
X39929151Y-14695998D01*
X39908670Y-14757338D01*
X39888196Y-14818633D01*
X39867795Y-14879691D01*
X39847529Y-14940319D01*
X39827464Y-15000326D01*
X39807664Y-15059518D01*
X39788193Y-15117704D01*
X39769115Y-15174690D01*
X39750495Y-15230285D01*
X39732396Y-15284296D01*
X39714883Y-15336531D01*
X39698020Y-15386797D01*
X39681872Y-15434903D01*
X39666502Y-15480654D01*
X39651976Y-15523860D01*
X39638356Y-15564328D01*
X39625708Y-15601865D01*
X39614096Y-15636280D01*
X39603584Y-15667379D01*
X39594235Y-15694970D01*
X39586116Y-15718861D01*
X39579288Y-15738860D01*
X39573818Y-15754773D01*
X39569769Y-15766410D01*
X39567205Y-15773576D01*
X39566255Y-15775987D01*
X39549508Y-15802777D01*
X39529058Y-15826253D01*
X39505200Y-15846235D01*
X39478227Y-15862541D01*
X39448437Y-15874991D01*
X39416123Y-15883404D01*
X39384325Y-15887430D01*
X39359607Y-15889082D01*
X39093387Y-15889082D01*
X39072749Y-15862470D01*
X39053455Y-15830897D01*
G37*
X39053455Y-15830897D02*
X39040054Y-15801935D01*
X39037467Y-15794553D01*
X39033840Y-15783076D01*
X39029415Y-15768326D01*
X39024432Y-15751124D01*
X39019133Y-15732291D01*
X39013759Y-15712649D01*
X39012690Y-15708676D01*
X39007713Y-15690184D01*
X39003157Y-15673411D01*
X38999186Y-15658948D01*
X38995963Y-15647387D01*
X38993654Y-15639318D01*
X38992422Y-15635334D01*
X38992267Y-15635016D01*
X38991521Y-15637485D01*
X38989478Y-15644540D01*
X38986224Y-15655880D01*
X38981845Y-15671201D01*
X38976426Y-15690202D01*
X38970055Y-15712581D01*
X38962816Y-15738036D01*
X38954795Y-15766264D01*
X38946079Y-15796963D01*
X38936754Y-15829832D01*
X38926905Y-15864567D01*
X38916618Y-15900869D01*
X38910099Y-15923885D01*
X38899454Y-15961449D01*
X38889103Y-15997929D01*
X38879140Y-16032995D01*
X38869660Y-16066317D01*
X38860756Y-16097563D01*
X38852524Y-16126405D01*
X38845057Y-16152512D01*
X38838451Y-16175552D01*
X38832799Y-16195197D01*
X38828196Y-16211116D01*
X38824737Y-16222978D01*
X38822516Y-16230453D01*
X38821882Y-16232495D01*
X38807971Y-16267468D01*
X38789512Y-16301065D01*
X38766969Y-16332727D01*
X38740806Y-16361898D01*
X38711489Y-16388019D01*
X38679481Y-16410535D01*
X38667553Y-16417559D01*
X38633244Y-16434184D01*
X38596011Y-16447481D01*
X38557061Y-16457078D01*
X38522777Y-16462124D01*
X38504847Y-16463699D01*
X38489802Y-16464402D01*
X38475523Y-16464232D01*
X38459890Y-16463190D01*
X38448924Y-16462141D01*
X38407526Y-16455371D01*
X38366375Y-16443659D01*
X38325867Y-16427139D01*
X38291334Y-16408886D01*
X38280713Y-16402201D01*
X38270503Y-16394711D01*
X38259715Y-16385592D01*
X38247359Y-16374022D01*
X38236761Y-16363536D01*
X38225136Y-16351485D01*
X38213690Y-16338964D01*
X38203389Y-16327077D01*
X38195200Y-16316926D01*
X38191657Y-16312063D01*
X38181042Y-16295200D01*
X38170434Y-16276070D01*
X38160655Y-16256317D01*
X38152530Y-16237590D01*
X38147758Y-16224396D01*
X38141955Y-16206138D01*
X38121449Y-16200856D01*
X38101861Y-16195675D01*
X38086269Y-16191106D01*
X38073705Y-16186681D01*
X38063202Y-16181928D01*
X38053791Y-16176380D01*
X38044505Y-16169566D01*
X38034377Y-16161017D01*
X38028493Y-16155764D01*
X37998401Y-16126029D01*
X37972954Y-16095195D01*
X37951745Y-16062673D01*
X37934365Y-16027873D01*
X37926813Y-16008975D01*
X37923005Y-15998897D01*
X37919716Y-15990635D01*
X37917414Y-15985347D01*
X37916734Y-15984119D01*
X37913756Y-15982729D01*
X37906884Y-15980437D01*
X37897155Y-15977567D01*
X37886096Y-15974569D01*
X37865267Y-15968530D01*
X37848076Y-15961981D01*
X37833083Y-15954191D01*
X37818851Y-15944434D01*
X37806570Y-15934306D01*
X37776023Y-15904383D01*
X37763490Y-15889046D01*
X38023474Y-15889046D01*
X38024336Y-15892841D01*
X38026704Y-15900459D01*
X38030245Y-15910984D01*
X38034626Y-15923505D01*
X38039517Y-15937106D01*
X38044585Y-15950873D01*
X38049499Y-15963893D01*
X38053926Y-15975252D01*
X38057535Y-15984035D01*
X38059641Y-15988656D01*
X38076826Y-16017254D01*
X38097664Y-16042403D01*
X38121919Y-16063920D01*
X38149353Y-16081624D01*
X38179730Y-16095333D01*
X38210121Y-16104272D01*
X38225250Y-16106777D01*
X38243485Y-16108397D01*
X38262999Y-16109086D01*
X38281965Y-16108799D01*
X38298555Y-16107490D01*
X38304312Y-16106635D01*
X38334555Y-16099038D01*
X38363391Y-16087438D01*
X38390283Y-16072272D01*
X38414696Y-16053977D01*
X38436093Y-16032989D01*
X38453939Y-16009746D01*
X38467698Y-15984685D01*
X38473970Y-15968335D01*
X38475005Y-15964827D01*
X38477367Y-15956635D01*
X38480998Y-15943963D01*
X38485839Y-15927016D01*
X38491833Y-15905996D01*
X38498922Y-15881107D01*
X38507048Y-15852555D01*
X38516152Y-15820542D01*
X38526178Y-15785272D01*
X38537066Y-15746950D01*
X38548760Y-15705778D01*
X38561201Y-15661962D01*
X38574331Y-15615705D01*
X38588093Y-15567210D01*
X38602428Y-15516682D01*
X38617278Y-15464325D01*
X38632586Y-15410342D01*
X38648294Y-15354938D01*
X38664344Y-15298316D01*
X38665713Y-15293483D01*
X38853375Y-14631331D01*
X38784499Y-14375942D01*
X38775063Y-14340995D01*
X38765984Y-14307460D01*
X38757352Y-14275659D01*
X38749255Y-14245913D01*
X38741781Y-14218545D01*
X38735019Y-14193875D01*
X38729057Y-14172227D01*
X38723983Y-14153923D01*
X38719886Y-14139283D01*
X38716855Y-14128630D01*
X38714977Y-14122286D01*
X38714354Y-14120522D01*
X38713355Y-14122855D01*
X38711185Y-14129448D01*
X38708035Y-14139669D01*
X38704097Y-14152883D01*
X38699562Y-14168459D01*
X38694621Y-14185762D01*
X38694584Y-14185893D01*
X38674677Y-14256256D01*
X38654666Y-14326958D01*
X38634601Y-14397829D01*
X38614529Y-14468696D01*
X38594500Y-14539388D01*
X38574563Y-14609734D01*
X38554766Y-14679562D01*
X38535158Y-14748702D01*
X38515788Y-14816981D01*
X38496704Y-14884228D01*
X38477956Y-14950272D01*
X38459591Y-15014942D01*
X38441660Y-15078065D01*
X38424209Y-15139472D01*
X38407289Y-15198989D01*
X38390948Y-15256447D01*
X38375235Y-15311673D01*
X38360198Y-15364496D01*
X38345886Y-15414744D01*
X38332349Y-15462247D01*
X38319634Y-15506833D01*
X38307790Y-15548331D01*
X38296867Y-15586568D01*
X38286913Y-15621374D01*
X38277977Y-15652578D01*
X38270107Y-15680008D01*
X38263352Y-15703492D01*
X38257761Y-15722859D01*
X38253383Y-15737938D01*
X38250267Y-15748557D01*
X38248460Y-15754545D01*
X38248064Y-15755749D01*
X38238227Y-15776217D01*
X38224348Y-15796985D01*
X38207298Y-15817070D01*
X38187950Y-15835490D01*
X38167176Y-15851263D01*
X38158345Y-15856797D01*
X38134304Y-15868627D01*
X38107184Y-15878049D01*
X38078584Y-15884643D01*
X38050100Y-15887989D01*
X38038530Y-15888325D01*
X38030545Y-15888435D01*
X38025086Y-15888722D01*
X38023474Y-15889046D01*
X37763490Y-15889046D01*
X37749064Y-15871394D01*
X37726199Y-15835999D01*
X37714939Y-15814475D01*
X37713050Y-15809815D01*
X37709643Y-15800548D01*
X37704715Y-15786660D01*
X37698261Y-15768143D01*
X37690277Y-15744983D01*
X37680761Y-15717170D01*
X37669708Y-15684694D01*
X37657114Y-15647542D01*
X37642976Y-15605704D01*
X37627291Y-15559169D01*
X37610053Y-15507926D01*
X37591260Y-15451963D01*
X37570908Y-15391269D01*
X37548993Y-15325834D01*
X37525511Y-15255645D01*
X37500459Y-15180693D01*
X37473833Y-15100966D01*
X37445629Y-15016453D01*
X37415843Y-14927143D01*
X37384473Y-14833024D01*
X37369639Y-14788505D01*
X37346515Y-14719079D01*
X37323776Y-14650791D01*
X37301479Y-14583803D01*
X37279676Y-14518279D01*
X37258421Y-14454380D01*
X37237769Y-14392270D01*
X37217773Y-14332110D01*
X37198487Y-14274064D01*
X37179965Y-14218294D01*
X37162261Y-14164962D01*
X37145429Y-14114232D01*
X37129523Y-14066266D01*
X37114597Y-14021226D01*
X37100704Y-13979275D01*
X37087899Y-13940576D01*
X37076235Y-13905292D01*
X37065767Y-13873584D01*
X37056548Y-13845615D01*
X37048632Y-13821549D01*
X37042073Y-13801547D01*
X37036925Y-13785773D01*
X37033242Y-13774388D01*
X37031078Y-13767556D01*
X37030515Y-13765649D01*
X37023769Y-13734981D01*
X37018511Y-13702379D01*
X37014842Y-13669109D01*
X37014511Y-13663622D01*
X37571722Y-13663622D01*
X37572267Y-13666547D01*
X37573588Y-13671067D01*
X37576361Y-13680090D01*
X37580514Y-13693390D01*
X37585976Y-13710740D01*
X37592673Y-13731915D01*
X37600534Y-13756691D01*
X37609484Y-13784840D01*
X37619453Y-13816138D01*
X37630368Y-13850359D01*
X37642155Y-13887277D01*
X37654743Y-13926667D01*
X37668059Y-13968302D01*
X37682031Y-14011959D01*
X37696586Y-14057410D01*
X37711651Y-14104431D01*
X37727155Y-14152795D01*
X37743024Y-14202277D01*
X37759187Y-14252652D01*
X37775570Y-14303694D01*
X37792101Y-14355177D01*
X37808708Y-14406875D01*
X37825318Y-14458564D01*
X37841859Y-14510017D01*
X37858258Y-14561009D01*
X37874443Y-14611314D01*
X37890341Y-14660707D01*
X37905880Y-14708962D01*
X37920987Y-14755854D01*
X37935590Y-14801156D01*
X37949616Y-14844643D01*
X37962993Y-14886090D01*
X37975649Y-14925272D01*
X37987510Y-14961961D01*
X37998504Y-14995934D01*
X38008559Y-15026963D01*
X38017603Y-15054825D01*
X38025563Y-15079292D01*
X38032365Y-15100140D01*
X38037939Y-15117142D01*
X38042211Y-15130074D01*
X38045109Y-15138709D01*
X38046561Y-15142823D01*
X38046720Y-15143151D01*
X38047752Y-15140210D01*
X38050070Y-15132880D01*
X38053528Y-15121645D01*
X38057980Y-15106990D01*
X38063279Y-15089400D01*
X38069278Y-15069359D01*
X38075832Y-15047351D01*
X38082793Y-15023862D01*
X38083191Y-15022515D01*
X38118006Y-14904735D01*
X37951093Y-14382435D01*
X37934975Y-14332033D01*
X37919167Y-14282660D01*
X37903743Y-14234555D01*
X37888784Y-14187956D01*
X37874364Y-14143103D01*
X37860563Y-14100234D01*
X37847456Y-14059588D01*
X37835123Y-14021405D01*
X37823639Y-13985923D01*
X37813082Y-13953382D01*
X37803529Y-13924019D01*
X37795059Y-13898075D01*
X37787747Y-13875787D01*
X37781672Y-13857395D01*
X37776911Y-13843139D01*
X37773541Y-13833256D01*
X37771696Y-13828129D01*
X37755472Y-13791703D01*
X37736975Y-13759810D01*
X37716185Y-13732427D01*
X37693080Y-13709534D01*
X37667641Y-13691108D01*
X37639847Y-13677128D01*
X37619519Y-13670130D01*
X37607676Y-13667029D01*
X37595750Y-13664372D01*
X37585972Y-13662648D01*
X37584415Y-13662452D01*
X37576622Y-13661697D01*
X37572760Y-13661963D01*
X37571722Y-13663622D01*
X37014511Y-13663622D01*
X37012866Y-13636440D01*
X37012684Y-13605639D01*
X37014398Y-13577974D01*
X37014990Y-13572830D01*
X37021993Y-13532524D01*
X37032499Y-13495819D01*
X37046627Y-13462525D01*
X37064495Y-13432455D01*
X37086221Y-13405419D01*
X37111925Y-13381230D01*
X37141724Y-13359699D01*
X37153626Y-13352475D01*
X37182150Y-13338085D01*
X37213646Y-13325972D01*
X37246880Y-13316429D01*
X37280614Y-13309747D01*
X37313613Y-13306216D01*
X37344640Y-13306128D01*
X37349104Y-13306435D01*
X37391998Y-13311945D01*
X37431990Y-13321536D01*
X37469363Y-13335326D01*
X37504399Y-13353438D01*
X37537379Y-13375993D01*
X37563814Y-13398567D01*
X37587195Y-13423550D01*
X37609048Y-13453211D01*
X37629246Y-13487344D01*
X37647657Y-13525745D01*
X37655317Y-13544340D01*
X37663968Y-13566366D01*
X37697036Y-13575600D01*
X37718125Y-13581843D01*
X37735304Y-13587895D01*
X37749678Y-13594359D01*
X37762355Y-13601835D01*
X37774441Y-13610922D01*
X37787043Y-13622223D01*
X37792253Y-13627276D01*
X37812355Y-13649122D01*
X37830700Y-13673476D01*
X37847689Y-13700984D01*
X37863721Y-13732292D01*
X37878870Y-13767235D01*
X37888508Y-13791176D01*
X37922336Y-13801023D01*
X37941920Y-13806962D01*
X37957565Y-13812344D01*
X37970307Y-13817640D01*
X37981181Y-13823320D01*
X37991223Y-13829854D01*
X37999344Y-13836005D01*
X38025886Y-13859974D01*
X38050910Y-13888267D01*
X38073906Y-13920229D01*
X38094361Y-13955205D01*
X38098305Y-13962908D01*
X38103877Y-13974276D01*
X38108999Y-13985275D01*
X38113887Y-13996497D01*
X38118758Y-14008531D01*
X38123829Y-14021969D01*
X38129317Y-14037401D01*
X38135439Y-14055418D01*
X38142412Y-14076611D01*
X38150453Y-14101570D01*
X38158348Y-14126373D01*
X38166626Y-14152247D01*
X38173542Y-14173365D01*
X38179141Y-14189853D01*
X38183469Y-14201837D01*
X38186569Y-14209441D01*
X38188487Y-14212792D01*
X38189128Y-14212733D01*
X38190071Y-14209781D01*
X38192372Y-14202244D01*
X38195946Y-14190406D01*
X38200708Y-14174554D01*
X38206573Y-14154972D01*
X38213456Y-14131945D01*
X38221271Y-14105760D01*
X38229934Y-14076700D01*
X38239359Y-14045052D01*
X38249461Y-14011100D01*
X38260156Y-13975130D01*
X38271357Y-13937428D01*
X38282981Y-13898277D01*
X38289024Y-13877915D01*
X38301803Y-13834921D01*
X38314142Y-13793560D01*
X38325961Y-13754100D01*
X38337174Y-13716813D01*
X38347701Y-13681968D01*
X38353752Y-13662042D01*
X38963831Y-13662042D01*
X38964140Y-13664527D01*
X38964406Y-13665391D01*
X38965123Y-13668115D01*
X38967044Y-13675528D01*
X38970108Y-13687399D01*
X38974256Y-13703497D01*
X38979430Y-13723591D01*
X38985570Y-13747449D01*
X38992615Y-13774840D01*
X39000508Y-13805533D01*
X39009189Y-13839297D01*
X39018597Y-13875901D01*
X39028675Y-13915113D01*
X39039361Y-13956702D01*
X39050598Y-14000436D01*
X39062326Y-14046086D01*
X39074485Y-14093419D01*
X39087016Y-14142203D01*
X39099860Y-14192209D01*
X39112957Y-14243205D01*
X39126248Y-14294959D01*
X39139673Y-14347240D01*
X39153173Y-14399817D01*
X39166690Y-14452459D01*
X39180162Y-14504934D01*
X39193532Y-14557012D01*
X39206739Y-14608461D01*
X39219724Y-14659049D01*
X39232429Y-14708546D01*
X39244792Y-14756721D01*
X39256756Y-14803342D01*
X39268261Y-14848177D01*
X39279247Y-14890997D01*
X39289655Y-14931568D01*
X39299426Y-14969661D01*
X39308500Y-15005044D01*
X39316818Y-15037486D01*
X39324321Y-15066755D01*
X39330948Y-15092621D01*
X39336642Y-15114851D01*
X39341342Y-15133216D01*
X39344989Y-15147483D01*
X39347523Y-15157421D01*
X39348518Y-15161341D01*
X39350662Y-15169355D01*
X39352354Y-15174837D01*
X39353209Y-15176581D01*
X39354076Y-15174096D01*
X39356343Y-15167197D01*
X39359873Y-15156309D01*
X39364530Y-15141862D01*
X39370174Y-15124280D01*
X39376671Y-15103992D01*
X39383882Y-15081424D01*
X39391671Y-15057005D01*
X39398840Y-15034488D01*
X39443820Y-14893121D01*
X39307443Y-14361388D01*
X39294321Y-14310256D01*
X39281474Y-14260253D01*
X39268964Y-14211614D01*
X39256850Y-14164578D01*
X39245196Y-14119380D01*
X39234063Y-14076259D01*
X39223512Y-14035452D01*
X39213605Y-13997195D01*
X39204403Y-13961726D01*
X39195967Y-13929282D01*
X39188360Y-13900099D01*
X39181643Y-13874416D01*
X39175877Y-13852470D01*
X39171124Y-13834497D01*
X39167446Y-13820734D01*
X39164903Y-13811419D01*
X39163560Y-13806795D01*
X39154243Y-13782864D01*
X39142585Y-13761463D01*
X39127866Y-13741563D01*
X39109366Y-13722135D01*
X39095879Y-13710045D01*
X39071168Y-13691927D01*
X39044300Y-13678031D01*
X39014835Y-13668177D01*
X38982332Y-13662180D01*
X38978863Y-13661782D01*
X38970171Y-13660925D01*
X38965501Y-13660927D01*
X38963831Y-13662042D01*
X38353752Y-13662042D01*
X38357459Y-13649835D01*
X38366364Y-13620686D01*
X38374334Y-13594791D01*
X38381288Y-13572419D01*
X38387141Y-13553841D01*
X38391813Y-13539328D01*
X38395219Y-13529149D01*
X38397273Y-13523585D01*
X38416332Y-13485071D01*
X38439507Y-13449059D01*
X38466412Y-13416048D01*
X38496659Y-13386535D01*
X38514964Y-13371684D01*
X38529177Y-13362063D01*
X38546786Y-13351883D01*
X38566273Y-13341889D01*
X38586125Y-13332828D01*
X38604826Y-13325446D01*
X38616533Y-13321646D01*
X38657555Y-13312257D01*
X38699061Y-13307263D01*
X38740479Y-13306602D01*
X38781238Y-13310217D01*
X38820767Y-13318048D01*
X38858496Y-13330036D01*
X38893852Y-13346122D01*
X38903251Y-13351353D01*
X38938679Y-13374772D01*
X38970915Y-13401894D01*
X38999661Y-13432355D01*
X39024616Y-13465792D01*
X39045480Y-13501840D01*
X39061955Y-13540135D01*
X39064464Y-13547339D01*
X39067843Y-13557184D01*
X39070670Y-13565043D01*
X39072534Y-13569784D01*
X39072980Y-13570638D01*
X39075683Y-13571635D01*
X39082371Y-13573647D01*
X39092118Y-13576408D01*
X39103994Y-13579650D01*
X39107490Y-13580584D01*
X39128169Y-13586541D01*
X39144993Y-13592547D01*
X39159157Y-13599181D01*
X39171857Y-13607023D01*
X39184291Y-13616653D01*
X39187304Y-13619238D01*
X39216228Y-13647799D01*
X39241542Y-13679834D01*
X39263062Y-13715065D01*
X39280603Y-13753214D01*
X39285845Y-13767425D01*
X39295077Y-13794095D01*
X39327930Y-13803121D01*
X39348067Y-13808977D01*
X39364333Y-13814572D01*
X39377871Y-13820452D01*
X39389827Y-13827166D01*
X39401344Y-13835261D01*
X39410439Y-13842617D01*
X39437571Y-13868435D01*
X39462189Y-13897708D01*
X39483599Y-13929438D01*
X39501102Y-13962632D01*
X39510425Y-13985548D01*
X39512950Y-13993388D01*
X39516400Y-14005205D01*
X39520510Y-14020035D01*
X39525017Y-14036914D01*
X39529657Y-14054881D01*
X39532339Y-14065558D01*
X39536620Y-14082669D01*
X39540588Y-14098309D01*
X39544054Y-14111746D01*
X39546827Y-14122252D01*
X39548719Y-14129096D01*
X39549442Y-14131379D01*
X39550536Y-14129800D01*
X39553117Y-14123369D01*
X39557187Y-14112086D01*
X39562745Y-14095950D01*
X39569792Y-14074961D01*
X39578326Y-14049117D01*
X39588350Y-14018420D01*
X39599863Y-13982867D01*
X39612864Y-13942459D01*
X39627355Y-13897195D01*
X39638931Y-13860904D01*
X39653370Y-13815595D01*
X39666369Y-13774846D01*
X39678025Y-13738375D01*
X39688434Y-13705899D01*
X39697691Y-13677136D01*
X39705894Y-13651804D01*
X39713138Y-13629620D01*
X39719519Y-13610301D01*
X39725134Y-13593567D01*
X39730079Y-13579134D01*
X39734449Y-13566719D01*
X39738341Y-13556042D01*
X39741852Y-13546818D01*
X39745076Y-13538766D01*
X39748111Y-13531604D01*
X39751052Y-13525050D01*
X39753995Y-13518820D01*
X39757038Y-13512632D01*
X39758512Y-13509692D01*
X39775968Y-13478532D01*
X39796076Y-13448739D01*
X39818155Y-13421128D01*
X39841524Y-13396512D01*
X39865502Y-13375707D01*
X39878346Y-13366422D01*
X39913480Y-13345845D01*
X39951582Y-13329128D01*
X39992063Y-13316508D01*
X40016104Y-13311214D01*
X40034116Y-13308751D01*
X40055412Y-13307305D01*
X40078297Y-13306879D01*
X40101077Y-13307476D01*
X40122059Y-13309095D01*
X40136051Y-13311065D01*
X40173739Y-13319958D01*
X40209708Y-13332612D01*
X40243502Y-13348719D01*
X40274670Y-13367971D01*
X40302757Y-13390058D01*
X40327310Y-13414672D01*
X40347874Y-13441506D01*
X40360934Y-13463937D01*
X40365609Y-13474067D01*
X40369098Y-13484088D01*
X40371639Y-13495161D01*
X40373472Y-13508447D01*
X40374833Y-13525108D01*
X40375375Y-13534390D01*
X40376146Y-13547188D01*
X40376964Y-13558080D01*
X40377746Y-13566104D01*
X40378407Y-13570299D01*
X40378566Y-13570664D01*
X40381385Y-13571798D01*
X40388141Y-13573953D01*
X40397866Y-13576833D01*
X40409589Y-13580144D01*
X40411356Y-13580631D01*
X40441600Y-13589389D01*
X40467455Y-13597932D01*
X40489584Y-13606579D01*
X40508651Y-13615652D01*
X40525317Y-13625469D01*
X40540247Y-13636353D01*
X40554102Y-13648622D01*
X40556111Y-13650585D01*
X40568641Y-13663681D01*
X40577809Y-13675049D01*
X40584478Y-13685788D01*
X40585942Y-13688685D01*
X40590225Y-13698264D01*
X40593478Y-13707595D01*
X40595910Y-13717751D01*
X40597727Y-13729806D01*
X40599137Y-13744831D01*
X40600304Y-13763161D01*
X40601357Y-13778153D01*
X40602604Y-13788910D01*
X40604001Y-13795118D01*
X40605015Y-13796580D01*
X40608333Y-13797528D01*
X40615660Y-13799608D01*
X40626113Y-13802570D01*
X40638812Y-13806164D01*
X40648564Y-13808922D01*
X40679236Y-13818221D01*
X40705495Y-13827632D01*
X40728001Y-13837497D01*
X40747414Y-13848158D01*
X40764394Y-13859957D01*
X40779603Y-13873237D01*
X40786768Y-13880559D01*
X40801739Y-13899734D01*
X40815104Y-13923241D01*
X40826582Y-13950505D01*
X40835660Y-13980054D01*
X40838713Y-13992502D01*
X40840926Y-14003427D01*
X40842475Y-14014247D01*
X40843534Y-14026379D01*
X40844278Y-14041242D01*
X40844680Y-14053175D01*
X40844726Y-14088077D01*
X40842522Y-14120222D01*
X40837872Y-14151501D01*
X40831380Y-14180676D01*
X40829986Y-14185413D01*
X40827056Y-14194731D01*
X40822654Y-14208439D01*
X40816843Y-14226344D01*
X40809688Y-14248256D01*
X40801253Y-14273983D01*
X40791600Y-14303334D01*
X40780796Y-14336116D01*
X40768902Y-14372139D01*
X40755983Y-14411210D01*
X40742103Y-14453139D01*
X40727326Y-14497734D01*
X40711716Y-14544803D01*
X40695337Y-14594155D01*
X40678252Y-14645598D01*
X40660526Y-14698941D01*
X40642222Y-14753992D01*
X40623404Y-14810560D01*
X40604136Y-14868453D01*
X40584483Y-14927480D01*
X40564508Y-14987449D01*
X40544274Y-15048169D01*
X40523847Y-15109447D01*
X40503289Y-15171094D01*
X40482664Y-15232917D01*
X40462038Y-15294724D01*
X40441472Y-15356325D01*
X40421032Y-15417527D01*
X40400781Y-15478139D01*
X40380784Y-15537969D01*
X40361103Y-15596827D01*
X40341803Y-15654520D01*
X40322948Y-15710857D01*
X40304602Y-15765647D01*
X40286829Y-15818698D01*
X40269692Y-15869818D01*
X40253255Y-15918816D01*
X40237583Y-15965501D01*
X40222740Y-16009680D01*
X40208788Y-16051163D01*
X40195792Y-16089758D01*
X40183817Y-16125273D01*
X40172925Y-16157517D01*
X40163181Y-16186298D01*
X40154649Y-16211425D01*
X40147392Y-16232707D01*
X40141475Y-16249951D01*
X40136961Y-16262966D01*
X40133915Y-16271562D01*
X40132399Y-16275545D01*
X40132339Y-16275675D01*
X40113189Y-16308753D01*
X40089244Y-16340562D01*
X40068174Y-16363570D01*
X40044038Y-16386136D01*
X40019713Y-16404866D01*
X39993965Y-16420516D01*
X39965565Y-16433844D01*
X39936402Y-16444585D01*
X39908746Y-16452800D01*
X39882585Y-16458429D01*
X39855998Y-16461772D01*
X39827063Y-16463131D01*
X39817984Y-16463197D01*
X39775775Y-16460877D01*
X39734910Y-16454080D01*
X39695714Y-16443026D01*
X39658509Y-16427938D01*
X39623620Y-16409036D01*
X39591371Y-16386543D01*
X39562085Y-16360679D01*
X39536087Y-16331666D01*
X39513701Y-16299726D01*
X39495249Y-16265080D01*
X39483086Y-16234222D01*
X39479403Y-16223456D01*
X39476222Y-16214577D01*
X39473927Y-16208631D01*
X39472983Y-16206688D01*
X39470141Y-16205587D01*
X39463374Y-16203564D01*
X39453690Y-16200904D01*
X39442098Y-16197895D01*
X39441932Y-16197853D01*
X39422746Y-16192550D01*
X39407210Y-16187054D01*
X39393915Y-16180702D01*
X39381452Y-16172830D01*
X39369674Y-16163807D01*
X39340706Y-16138284D01*
X39316229Y-16112415D01*
X39295673Y-16085404D01*
X39278468Y-16056459D01*
X39264045Y-16024783D01*
X39257660Y-16007563D01*
X39253879Y-15997210D01*
X39250404Y-15988707D01*
X39247719Y-15983185D01*
X39246649Y-15981746D01*
X39243123Y-15980424D01*
X39235862Y-15978371D01*
X39226098Y-15975919D01*
X39219814Y-15974456D01*
X39202641Y-15970288D01*
X39189111Y-15966191D01*
X39177832Y-15961565D01*
X39167409Y-15955809D01*
X39156451Y-15948325D01*
X39152732Y-15945564D01*
X39122932Y-15920497D01*
X39096090Y-15892568D01*
X39093387Y-15889082D01*
X39359607Y-15889082D01*
X39361206Y-15895688D01*
X39365661Y-15912993D01*
X39370814Y-15931221D01*
X39376330Y-15949339D01*
X39381877Y-15966311D01*
X39387118Y-15981102D01*
X39391722Y-15992679D01*
X39394265Y-15998087D01*
X39403060Y-16012077D01*
X39415078Y-16027353D01*
X39429143Y-16042654D01*
X39444082Y-16056721D01*
X39458720Y-16068293D01*
X39461356Y-16070096D01*
X39485164Y-16083824D01*
X39511190Y-16095177D01*
X39537265Y-16103235D01*
X39542218Y-16104354D01*
X39562624Y-16107428D01*
X39585730Y-16108890D01*
X39609410Y-16108721D01*
X39631538Y-16106899D01*
X39641518Y-16105331D01*
X39673240Y-16096889D01*
X39702604Y-16084173D01*
X39729257Y-16067443D01*
X39752845Y-16046958D01*
X39773012Y-16022978D01*
X39788387Y-15997770D01*
X39789940Y-15993902D01*
X39793026Y-15985403D01*
X39797580Y-15972467D01*
X39803538Y-15955286D01*
X39810836Y-15934053D01*
X39819410Y-15908959D01*
X39829194Y-15880199D01*
X39840127Y-15847964D01*
X39852142Y-15812447D01*
X39865176Y-15773841D01*
X39879165Y-15732338D01*
X39894044Y-15688130D01*
X39909750Y-15641411D01*
X39926218Y-15592372D01*
X39943383Y-15541207D01*
X39961183Y-15488108D01*
X39979552Y-15433267D01*
X39998427Y-15376878D01*
X40017743Y-15319132D01*
X40037435Y-15260222D01*
X40057441Y-15200341D01*
X40077696Y-15139682D01*
X40098135Y-15078436D01*
X40118694Y-15016797D01*
X40139310Y-14954957D01*
X40159917Y-14893109D01*
X40180452Y-14831445D01*
X40200851Y-14770158D01*
X40221050Y-14709440D01*
X40240983Y-14649485D01*
X40260588Y-14590483D01*
X40279799Y-14532629D01*
X40298554Y-14476115D01*
X40316786Y-14421133D01*
X40334433Y-14367875D01*
X40351431Y-14316535D01*
X40367714Y-14267305D01*
X40383219Y-14220377D01*
X40397881Y-14175945D01*
X40411637Y-14134200D01*
X40424423Y-14095336D01*
X40436173Y-14059544D01*
X40446824Y-14027017D01*
X40456312Y-13997949D01*
X40464572Y-13972531D01*
X40471541Y-13950956D01*
X40477154Y-13933417D01*
X40481347Y-13920106D01*
X40484056Y-13911216D01*
X40485178Y-13907125D01*
X40488443Y-13887829D01*
X40490487Y-13866494D01*
X40491296Y-13844518D01*
X40490858Y-13823297D01*
X40489160Y-13804228D01*
X40486271Y-13789015D01*
X40476324Y-13760392D01*
X40462737Y-13734966D01*
X40445703Y-13712987D01*
X40425413Y-13694703D01*
X40403150Y-13680911D01*
X40387451Y-13673833D01*
X40371593Y-13668609D01*
X40354334Y-13664971D01*
X40334428Y-13662648D01*
X40313092Y-13661457D01*
X40296378Y-13660953D01*
X40284029Y-13660961D01*
X40275335Y-13661717D01*
X40269588Y-13663455D01*
X40266079Y-13666411D01*
X40264099Y-13670819D01*
X40262941Y-13676914D01*
X40262774Y-13678140D01*
X40261288Y-13686894D01*
X40258933Y-13698210D01*
X40256197Y-13709753D01*
X40255976Y-13710617D01*
X40254583Y-13715315D01*
X40251657Y-13724586D01*
X40247260Y-13738236D01*
X40241458Y-13756075D01*
X40234314Y-13777909D01*
X40225893Y-13803546D01*
X40216259Y-13832793D01*
X40205476Y-13865459D01*
X40193609Y-13901350D01*
X40180721Y-13940275D01*
X40166878Y-13982041D01*
X40152142Y-14026456D01*
X40136580Y-14073327D01*
X40120254Y-14122461D01*
X40103229Y-14173668D01*
X40085569Y-14226753D01*
X40067339Y-14281525D01*
X40048603Y-14337792D01*
X40029424Y-14395360D01*
X40009868Y-14454038D01*
X39989998Y-14513633D01*
X39969880Y-14573953D01*
X39949576Y-14634805D01*
X39929151Y-14695998D01*
X39908670Y-14757338D01*
X39888196Y-14818633D01*
X39867795Y-14879691D01*
X39847529Y-14940319D01*
X39827464Y-15000326D01*
X39807664Y-15059518D01*
X39788193Y-15117704D01*
X39769115Y-15174690D01*
X39750495Y-15230285D01*
X39732396Y-15284296D01*
X39714883Y-15336531D01*
X39698020Y-15386797D01*
X39681872Y-15434903D01*
X39666502Y-15480654D01*
X39651976Y-15523860D01*
X39638356Y-15564328D01*
X39625708Y-15601865D01*
X39614096Y-15636280D01*
X39603584Y-15667379D01*
X39594235Y-15694970D01*
X39586116Y-15718861D01*
X39579288Y-15738860D01*
X39573818Y-15754773D01*
X39569769Y-15766410D01*
X39567205Y-15773576D01*
X39566255Y-15775987D01*
X39549508Y-15802777D01*
X39529058Y-15826253D01*
X39505200Y-15846235D01*
X39478227Y-15862541D01*
X39448437Y-15874991D01*
X39416123Y-15883404D01*
X39384325Y-15887430D01*
X39359607Y-15889082D01*
X39093387Y-15889082D01*
X39072749Y-15862470D01*
X39053455Y-15830897D01*
%TD*%
D11*
%TO.P,J2,1,Pin_1*%
%TO.N,JTAG-V*%
X23053750Y-14592500D03*
%TO.P,J2,2,Pin_2*%
%TO.N,JTAG SWDIO*%
X26953750Y-14592500D03*
%TO.P,J2,3,Pin_3*%
%TO.N,JTAG GND*%
X23053750Y-15862500D03*
%TO.P,J2,4,Pin_4*%
%TO.N,JTAG SWDCLK*%
X26953750Y-15862500D03*
%TO.P,J2,5,Pin_5*%
%TO.N,JTAG GND*%
X23053750Y-17132500D03*
%TO.P,J2,6,Pin_6*%
%TO.N,JTAG SWO*%
X26953750Y-17132500D03*
%TO.P,J2,7,Pin_7*%
%TO.N,unconnected-(J2-Pad7)*%
X23053750Y-18402500D03*
%TO.P,J2,8,Pin_8*%
%TO.N,JTAG TDI*%
X26953750Y-18402500D03*
%TO.P,J2,9,Pin_9*%
%TO.N,unconnected-(J2-Pad9)*%
X23053750Y-19672500D03*
%TO.P,J2,10,Pin_10*%
%TO.N,JTAG nRESET*%
X26953750Y-19672500D03*
%TD*%
D12*
%TO.P,J4,1,Pin_1*%
%TO.N,AVR MOSI*%
X25825489Y-36969239D03*
D13*
%TO.P,J4,2,Pin_2*%
%TO.N,AVR VCC*%
X23285489Y-36969239D03*
%TO.P,J4,3,Pin_3*%
%TO.N,unconnected-(J4-Pad3)*%
X25825489Y-34429239D03*
%TO.P,J4,4,Pin_4*%
%TO.N,unconnected-(J4-Pad4)*%
X23285489Y-34429239D03*
%TO.P,J4,5,Pin_5*%
%TO.N,AVR RST*%
X25825489Y-31889239D03*
%TO.P,J4,6,Pin_6*%
%TO.N,unconnected-(J4-Pad6)*%
X23285489Y-31889239D03*
%TO.P,J4,7,Pin_7*%
%TO.N,AVR SCK*%
X25825489Y-29349239D03*
%TO.P,J4,8,Pin_8*%
%TO.N,unconnected-(J4-Pad8)*%
X23285489Y-29349239D03*
%TO.P,J4,9,Pin_9*%
%TO.N,AVR MISO*%
X25825489Y-26809239D03*
%TO.P,J4,10,Pin_10*%
%TO.N,AVR GND*%
X23285489Y-26809239D03*
%TD*%
D12*
%TO.P,J6,1,Pin_1*%
%TO.N,ST RST*%
X32460000Y-27000000D03*
D13*
%TO.P,J6,2,Pin_2*%
%TO.N,ST SWCLK*%
X35000000Y-27000000D03*
%TO.P,J6,3,Pin_3*%
%TO.N,ST SWTIM*%
X32460000Y-29540000D03*
%TO.P,J6,4,Pin_4*%
%TO.N,ST SWDIO*%
X35000000Y-29540000D03*
%TO.P,J6,5,Pin_5*%
%TO.N,ST GND*%
X32460000Y-32080000D03*
%TO.P,J6,6,Pin_6*%
X35000000Y-32080000D03*
%TO.P,J6,7,Pin_7*%
%TO.N,ST 3.3V*%
X32460000Y-34620000D03*
%TO.P,J6,8,Pin_8*%
X35000000Y-34620000D03*
%TO.P,J6,9,Pin_9*%
%TO.N,ST 5.5V*%
X32460000Y-37160000D03*
%TO.P,J6,10,Pin_10*%
X35000000Y-37160000D03*
%TD*%
D12*
%TO.P,J5,1,Pin_1*%
%TO.N,ST 3.3V*%
X38866250Y-37318750D03*
D13*
%TO.P,J5,2,Pin_2*%
%TO.N,ST SWDIO*%
X41406250Y-37318750D03*
%TO.P,J5,3,Pin_3*%
%TO.N,unconnected-(J5-Pad3)*%
X38866250Y-34778750D03*
%TO.P,J5,4,Pin_4*%
%TO.N,ST SWCLK*%
X41406250Y-34778750D03*
%TO.P,J5,5,Pin_5*%
%TO.N,ST GND*%
X38866250Y-32238750D03*
%TO.P,J5,6,Pin_6*%
%TO.N,unconnected-(J5-Pad6)*%
X41406250Y-32238750D03*
%TD*%
D12*
%TO.P,J3,1,Pin_1*%
%TO.N,AVR MISO*%
X17094239Y-34419239D03*
D13*
%TO.P,J3,2,Pin_2*%
%TO.N,AVR VCC*%
X19634239Y-34419239D03*
%TO.P,J3,3,Pin_3*%
%TO.N,AVR SCK*%
X17094239Y-31879239D03*
%TO.P,J3,4,Pin_4*%
%TO.N,AVR MOSI*%
X19634239Y-31879239D03*
%TO.P,J3,5,Pin_5*%
%TO.N,AVR RST*%
X17094239Y-29339239D03*
%TO.P,J3,6,Pin_6*%
%TO.N,AVR GND*%
X19634239Y-29339239D03*
%TD*%
D12*
%TO.P,J1,1,Pin_1*%
%TO.N,JTAG-V*%
X18341250Y-14607500D03*
D13*
%TO.P,J1,2,Pin_2*%
%TO.N,JTAG SWDIO*%
X15801250Y-14607500D03*
%TO.P,J1,3,Pin_3*%
%TO.N,JTAG nRESET*%
X18341250Y-17147500D03*
%TO.P,J1,4,Pin_4*%
%TO.N,JTAG SWDCLK*%
X15801250Y-17147500D03*
%TO.P,J1,5,Pin_5*%
%TO.N,JTAG GND*%
X18341250Y-19687500D03*
%TO.P,J1,6,Pin_6*%
%TO.N,JTAG SWO*%
X15801250Y-19687500D03*
%TD*%
D14*
%TO.N,JTAG nRESET*%
X28880000Y-19672500D03*
%TO.N,AVR MISO*%
X16806250Y-38100000D03*
%TD*%
D15*
%TO.N,JTAG-V*%
X18356250Y-14592500D02*
X18341250Y-14607500D01*
D16*
X23053750Y-14592500D02*
X18356250Y-14592500D01*
%TO.N,JTAG SWDIO*%
X17100761Y-13307989D02*
X15801250Y-14607500D01*
X25845489Y-13307989D02*
X17100761Y-13307989D01*
X26953750Y-14416250D02*
X25845489Y-13307989D01*
X26953750Y-14592500D02*
X26953750Y-14416250D01*
%TO.N,JTAG nRESET*%
X28880000Y-19672500D02*
X26953750Y-19672500D01*
%TO.N,JTAG SWDCLK*%
X27438742Y-12608470D02*
X15962493Y-12608470D01*
X28820000Y-15292500D02*
X28820000Y-13989728D01*
X14501739Y-14069224D02*
X14501739Y-15847989D01*
X14501739Y-15847989D02*
X15801250Y-17147500D01*
X28820000Y-13989728D02*
X27438742Y-12608470D01*
X28250000Y-15862500D02*
X28820000Y-15292500D01*
X15962493Y-12608470D02*
X14501739Y-14069224D01*
X26953750Y-15862500D02*
X28250000Y-15862500D01*
%TO.N,JTAG GND*%
X18341250Y-19687500D02*
X20896250Y-17132500D01*
X23053750Y-15862500D02*
X23053750Y-17132500D01*
X20896250Y-17132500D02*
X23053750Y-17132500D01*
%TO.N,JTAG SWO*%
X17113750Y-21000000D02*
X24195272Y-21000000D01*
X25754728Y-17132500D02*
X26953750Y-17132500D01*
X25000000Y-17887228D02*
X25754728Y-17132500D01*
X24195272Y-21000000D02*
X25000000Y-20195272D01*
X15801250Y-19687500D02*
X17113750Y-21000000D01*
X25000000Y-20195272D02*
X25000000Y-17887228D01*
D15*
X26953750Y-17132500D02*
X27783750Y-17132500D01*
D16*
%TO.N,AVR MISO*%
X24525978Y-25509728D02*
X19077772Y-25509728D01*
X15095209Y-36388959D02*
X16806250Y-38100000D01*
X15095209Y-29492291D02*
X15095209Y-36388959D01*
X19077772Y-25509728D02*
X15095209Y-29492291D01*
X25825489Y-26809239D02*
X24525978Y-25509728D01*
%TO.N,AVR MOSI*%
X20933750Y-36671250D02*
X20933750Y-33178750D01*
X20933750Y-33178750D02*
X19634239Y-31879239D01*
X25825489Y-36969239D02*
X24525978Y-38268750D01*
X22531250Y-38268750D02*
X20933750Y-36671250D01*
X24525978Y-38268750D02*
X22531250Y-38268750D01*
%TO.N,AVR RST*%
X19257717Y-39181739D02*
X15794728Y-35718750D01*
X15794728Y-35718750D02*
X15794728Y-30638750D01*
X26212011Y-39181739D02*
X19257717Y-39181739D01*
X15794728Y-30638750D02*
X17094239Y-29339239D01*
X27125000Y-38268750D02*
X26212011Y-39181739D01*
X27125000Y-33188750D02*
X27125000Y-38268750D01*
X25825489Y-31889239D02*
X27125000Y-33188750D01*
%TO.N,ST 3.3V*%
X37698750Y-37318750D02*
X35000000Y-34620000D01*
X38866250Y-37318750D02*
X37698750Y-37318750D01*
%TO.N,ST SWDIO*%
X42705761Y-36019239D02*
X41406250Y-37318750D01*
X40545287Y-29540000D02*
X42705761Y-31700474D01*
X35000000Y-29540000D02*
X40545287Y-29540000D01*
X42705761Y-31700474D02*
X42705761Y-36019239D01*
%TO.N,ST GND*%
X35158750Y-32238750D02*
X35000000Y-32080000D01*
X38866250Y-32238750D02*
X35158750Y-32238750D01*
%TD*%
M02*
