%TF.GenerationSoftware,KiCad,Pcbnew,(6.0.0)*%
%TF.CreationDate,2022-04-27T09:06:16-05:00*%
%TF.ProjectId,adapters,61646170-7465-4727-932e-6b696361645f,rev?*%
%TF.SameCoordinates,Original*%
%TF.FileFunction,Legend,Top*%
%TF.FilePolarity,Positive*%
%FSLAX46Y46*%
G04 Gerber Fmt 4.6, Leading zero omitted, Abs format (unit mm)*
G04 Created by KiCad (PCBNEW (6.0.0)) date 2022-04-27 09:06:16*
%MOMM*%
%LPD*%
G01*
G04 APERTURE LIST*
%ADD10C,0.100000*%
%ADD11C,0.150000*%
%ADD12C,0.010000*%
%ADD13C,0.120000*%
G04 APERTURE END LIST*
D10*
X31710000Y-18082428D02*
X31710000Y-18511000D01*
X31676666Y-18596714D01*
X31610000Y-18653857D01*
X31510000Y-18682428D01*
X31443333Y-18682428D01*
X32410000Y-18682428D02*
X32010000Y-18682428D01*
X32210000Y-18682428D02*
X32210000Y-18082428D01*
X32143333Y-18168142D01*
X32076666Y-18225285D01*
X32010000Y-18253857D01*
X33210000Y-18053857D02*
X32610000Y-18825285D01*
X33376666Y-18082428D02*
X33810000Y-18082428D01*
X33576666Y-18311000D01*
X33676666Y-18311000D01*
X33743333Y-18339571D01*
X33776666Y-18368142D01*
X33810000Y-18425285D01*
X33810000Y-18568142D01*
X33776666Y-18625285D01*
X33743333Y-18653857D01*
X33676666Y-18682428D01*
X33476666Y-18682428D01*
X33410000Y-18653857D01*
X33376666Y-18625285D01*
X34610000Y-18053857D02*
X34010000Y-18825285D01*
X35176666Y-18082428D02*
X34843333Y-18082428D01*
X34810000Y-18368142D01*
X34843333Y-18339571D01*
X34910000Y-18311000D01*
X35076666Y-18311000D01*
X35143333Y-18339571D01*
X35176666Y-18368142D01*
X35210000Y-18425285D01*
X35210000Y-18568142D01*
X35176666Y-18625285D01*
X35143333Y-18653857D01*
X35076666Y-18682428D01*
X34910000Y-18682428D01*
X34843333Y-18653857D01*
X34810000Y-18625285D01*
X36043333Y-18453857D02*
X36576666Y-18453857D01*
X37343333Y-18082428D02*
X37743333Y-18082428D01*
X37543333Y-18682428D02*
X37543333Y-18082428D01*
X38376666Y-18625285D02*
X38343333Y-18653857D01*
X38243333Y-18682428D01*
X38176666Y-18682428D01*
X38076666Y-18653857D01*
X38010000Y-18596714D01*
X37976666Y-18539571D01*
X37943333Y-18425285D01*
X37943333Y-18339571D01*
X37976666Y-18225285D01*
X38010000Y-18168142D01*
X38076666Y-18111000D01*
X38176666Y-18082428D01*
X38243333Y-18082428D01*
X38343333Y-18111000D01*
X38376666Y-18139571D01*
X38643333Y-18139571D02*
X38676666Y-18111000D01*
X38743333Y-18082428D01*
X38910000Y-18082428D01*
X38976666Y-18111000D01*
X39010000Y-18139571D01*
X39043333Y-18196714D01*
X39043333Y-18253857D01*
X39010000Y-18339571D01*
X38610000Y-18682428D01*
X39043333Y-18682428D01*
X39476666Y-18082428D02*
X39543333Y-18082428D01*
X39610000Y-18111000D01*
X39643333Y-18139571D01*
X39676666Y-18196714D01*
X39710000Y-18311000D01*
X39710000Y-18453857D01*
X39676666Y-18568142D01*
X39643333Y-18625285D01*
X39610000Y-18653857D01*
X39543333Y-18682428D01*
X39476666Y-18682428D01*
X39410000Y-18653857D01*
X39376666Y-18625285D01*
X39343333Y-18568142D01*
X39310000Y-18453857D01*
X39310000Y-18311000D01*
X39343333Y-18196714D01*
X39376666Y-18139571D01*
X39410000Y-18111000D01*
X39476666Y-18082428D01*
X39943333Y-18082428D02*
X40376666Y-18082428D01*
X40143333Y-18311000D01*
X40243333Y-18311000D01*
X40310000Y-18339571D01*
X40343333Y-18368142D01*
X40376666Y-18425285D01*
X40376666Y-18568142D01*
X40343333Y-18625285D01*
X40310000Y-18653857D01*
X40243333Y-18682428D01*
X40043333Y-18682428D01*
X39976666Y-18653857D01*
X39943333Y-18625285D01*
X40810000Y-18082428D02*
X40876666Y-18082428D01*
X40943333Y-18111000D01*
X40976666Y-18139571D01*
X41010000Y-18196714D01*
X41043333Y-18311000D01*
X41043333Y-18453857D01*
X41010000Y-18568142D01*
X40976666Y-18625285D01*
X40943333Y-18653857D01*
X40876666Y-18682428D01*
X40810000Y-18682428D01*
X40743333Y-18653857D01*
X40710000Y-18625285D01*
X40676666Y-18568142D01*
X40643333Y-18453857D01*
X40643333Y-18311000D01*
X40676666Y-18196714D01*
X40710000Y-18139571D01*
X40743333Y-18111000D01*
X40810000Y-18082428D01*
X41343333Y-18453857D02*
X41876666Y-18453857D01*
X42210000Y-18682428D02*
X42210000Y-18082428D01*
X42543333Y-18682428D02*
X42543333Y-18082428D01*
X42710000Y-18082428D01*
X42810000Y-18111000D01*
X42876666Y-18168142D01*
X42910000Y-18225285D01*
X42943333Y-18339571D01*
X42943333Y-18425285D01*
X42910000Y-18539571D01*
X42876666Y-18596714D01*
X42810000Y-18653857D01*
X42710000Y-18682428D01*
X42543333Y-18682428D01*
X43643333Y-18625285D02*
X43610000Y-18653857D01*
X43510000Y-18682428D01*
X43443333Y-18682428D01*
X43343333Y-18653857D01*
X43276666Y-18596714D01*
X43243333Y-18539571D01*
X43210000Y-18425285D01*
X43210000Y-18339571D01*
X43243333Y-18225285D01*
X43276666Y-18168142D01*
X43343333Y-18111000D01*
X43443333Y-18082428D01*
X43510000Y-18082428D01*
X43610000Y-18111000D01*
X43643333Y-18139571D01*
X35176666Y-19048428D02*
X35176666Y-19477000D01*
X35143333Y-19562714D01*
X35076666Y-19619857D01*
X34976666Y-19648428D01*
X34910000Y-19648428D01*
X35476666Y-19105571D02*
X35510000Y-19077000D01*
X35576666Y-19048428D01*
X35743333Y-19048428D01*
X35810000Y-19077000D01*
X35843333Y-19105571D01*
X35876666Y-19162714D01*
X35876666Y-19219857D01*
X35843333Y-19305571D01*
X35443333Y-19648428D01*
X35876666Y-19648428D01*
X36710000Y-19419857D02*
X37243333Y-19419857D01*
X38310000Y-19048428D02*
X38310000Y-19477000D01*
X38276666Y-19562714D01*
X38210000Y-19619857D01*
X38110000Y-19648428D01*
X38043333Y-19648428D01*
X38543333Y-19048428D02*
X38943333Y-19048428D01*
X38743333Y-19648428D02*
X38743333Y-19048428D01*
X39143333Y-19477000D02*
X39476666Y-19477000D01*
X39076666Y-19648428D02*
X39310000Y-19048428D01*
X39543333Y-19648428D01*
X40143333Y-19077000D02*
X40076666Y-19048428D01*
X39976666Y-19048428D01*
X39876666Y-19077000D01*
X39810000Y-19134142D01*
X39776666Y-19191285D01*
X39743333Y-19305571D01*
X39743333Y-19391285D01*
X39776666Y-19505571D01*
X39810000Y-19562714D01*
X39876666Y-19619857D01*
X39976666Y-19648428D01*
X40043333Y-19648428D01*
X40143333Y-19619857D01*
X40176666Y-19591285D01*
X40176666Y-19391285D01*
X40043333Y-19391285D01*
X34293333Y-20014428D02*
X34293333Y-20443000D01*
X34260000Y-20528714D01*
X34193333Y-20585857D01*
X34093333Y-20614428D01*
X34026666Y-20614428D01*
X34926666Y-20214428D02*
X34926666Y-20614428D01*
X34760000Y-19985857D02*
X34593333Y-20414428D01*
X35026666Y-20414428D01*
X35826666Y-20385857D02*
X36360000Y-20385857D01*
X37193333Y-20443000D02*
X37526666Y-20443000D01*
X37126666Y-20614428D02*
X37360000Y-20014428D01*
X37593333Y-20614428D01*
X37726666Y-20014428D02*
X37960000Y-20614428D01*
X38193333Y-20014428D01*
X38826666Y-20614428D02*
X38593333Y-20328714D01*
X38426666Y-20614428D02*
X38426666Y-20014428D01*
X38693333Y-20014428D01*
X38760000Y-20043000D01*
X38793333Y-20071571D01*
X38826666Y-20128714D01*
X38826666Y-20214428D01*
X38793333Y-20271571D01*
X38760000Y-20300142D01*
X38693333Y-20328714D01*
X38426666Y-20328714D01*
X39660000Y-20614428D02*
X39660000Y-20014428D01*
X39960000Y-20585857D02*
X40060000Y-20614428D01*
X40226666Y-20614428D01*
X40293333Y-20585857D01*
X40326666Y-20557285D01*
X40360000Y-20500142D01*
X40360000Y-20443000D01*
X40326666Y-20385857D01*
X40293333Y-20357285D01*
X40226666Y-20328714D01*
X40093333Y-20300142D01*
X40026666Y-20271571D01*
X39993333Y-20243000D01*
X39960000Y-20185857D01*
X39960000Y-20128714D01*
X39993333Y-20071571D01*
X40026666Y-20043000D01*
X40093333Y-20014428D01*
X40260000Y-20014428D01*
X40360000Y-20043000D01*
X40660000Y-20614428D02*
X40660000Y-20014428D01*
X40926666Y-20014428D01*
X40993333Y-20043000D01*
X41026666Y-20071571D01*
X41060000Y-20128714D01*
X41060000Y-20214428D01*
X41026666Y-20271571D01*
X40993333Y-20300142D01*
X40926666Y-20328714D01*
X40660000Y-20328714D01*
X33693333Y-20980428D02*
X33693333Y-21409000D01*
X33660000Y-21494714D01*
X33593333Y-21551857D01*
X33493333Y-21580428D01*
X33426666Y-21580428D01*
X34326666Y-20980428D02*
X34193333Y-20980428D01*
X34126666Y-21009000D01*
X34093333Y-21037571D01*
X34026666Y-21123285D01*
X33993333Y-21237571D01*
X33993333Y-21466142D01*
X34026666Y-21523285D01*
X34060000Y-21551857D01*
X34126666Y-21580428D01*
X34260000Y-21580428D01*
X34326666Y-21551857D01*
X34360000Y-21523285D01*
X34393333Y-21466142D01*
X34393333Y-21323285D01*
X34360000Y-21266142D01*
X34326666Y-21237571D01*
X34260000Y-21209000D01*
X34126666Y-21209000D01*
X34060000Y-21237571D01*
X34026666Y-21266142D01*
X33993333Y-21323285D01*
X35226666Y-21351857D02*
X35760000Y-21351857D01*
X36593333Y-21551857D02*
X36693333Y-21580428D01*
X36860000Y-21580428D01*
X36926666Y-21551857D01*
X36960000Y-21523285D01*
X36993333Y-21466142D01*
X36993333Y-21409000D01*
X36960000Y-21351857D01*
X36926666Y-21323285D01*
X36860000Y-21294714D01*
X36726666Y-21266142D01*
X36660000Y-21237571D01*
X36626666Y-21209000D01*
X36593333Y-21151857D01*
X36593333Y-21094714D01*
X36626666Y-21037571D01*
X36660000Y-21009000D01*
X36726666Y-20980428D01*
X36893333Y-20980428D01*
X36993333Y-21009000D01*
X37193333Y-20980428D02*
X37593333Y-20980428D01*
X37393333Y-21580428D02*
X37393333Y-20980428D01*
X38160000Y-21580428D02*
X37826666Y-21580428D01*
X37826666Y-20980428D01*
X38393333Y-21580428D02*
X38393333Y-20980428D01*
X38726666Y-21580428D02*
X38726666Y-20980428D01*
X39126666Y-21580428D01*
X39126666Y-20980428D01*
X39460000Y-21580428D02*
X39460000Y-20980428D01*
X39860000Y-21580428D02*
X39560000Y-21237571D01*
X39860000Y-20980428D02*
X39460000Y-21323285D01*
X40593333Y-20980428D02*
X40826666Y-21580428D01*
X41060000Y-20980428D01*
X41260000Y-21037571D02*
X41293333Y-21009000D01*
X41360000Y-20980428D01*
X41526666Y-20980428D01*
X41593333Y-21009000D01*
X41626666Y-21037571D01*
X41660000Y-21094714D01*
X41660000Y-21151857D01*
X41626666Y-21237571D01*
X41226666Y-21580428D01*
X41660000Y-21580428D01*
D11*
%TO.C,J2*%
X24670416Y-12349880D02*
X24670416Y-13064166D01*
X24622797Y-13207023D01*
X24527559Y-13302261D01*
X24384702Y-13349880D01*
X24289464Y-13349880D01*
X25098988Y-12445119D02*
X25146607Y-12397500D01*
X25241845Y-12349880D01*
X25479940Y-12349880D01*
X25575178Y-12397500D01*
X25622797Y-12445119D01*
X25670416Y-12540357D01*
X25670416Y-12635595D01*
X25622797Y-12778452D01*
X25051369Y-13349880D01*
X25670416Y-13349880D01*
%TO.C,J4*%
X24222155Y-38751619D02*
X24222155Y-39465905D01*
X24174536Y-39608762D01*
X24079298Y-39704000D01*
X23936441Y-39751619D01*
X23841203Y-39751619D01*
X25126917Y-39084953D02*
X25126917Y-39751619D01*
X24888822Y-38704000D02*
X24650727Y-39418286D01*
X25269774Y-39418286D01*
%TO.C,J6*%
X33396666Y-24122380D02*
X33396666Y-24836666D01*
X33349047Y-24979523D01*
X33253809Y-25074761D01*
X33110952Y-25122380D01*
X33015714Y-25122380D01*
X34301428Y-24122380D02*
X34110952Y-24122380D01*
X34015714Y-24170000D01*
X33968095Y-24217619D01*
X33872857Y-24360476D01*
X33825238Y-24550952D01*
X33825238Y-24931904D01*
X33872857Y-25027142D01*
X33920476Y-25074761D01*
X34015714Y-25122380D01*
X34206190Y-25122380D01*
X34301428Y-25074761D01*
X34349047Y-25027142D01*
X34396666Y-24931904D01*
X34396666Y-24693809D01*
X34349047Y-24598571D01*
X34301428Y-24550952D01*
X34206190Y-24503333D01*
X34015714Y-24503333D01*
X33920476Y-24550952D01*
X33872857Y-24598571D01*
X33825238Y-24693809D01*
D12*
%TO.C,Ref\u002A\u002A*%
X36047502Y-13417226D02*
X36080773Y-13417275D01*
X36080773Y-13417275D02*
X36110642Y-13417365D01*
X36110642Y-13417365D02*
X36137320Y-13417502D01*
X36137320Y-13417502D02*
X36161015Y-13417690D01*
X36161015Y-13417690D02*
X36181938Y-13417934D01*
X36181938Y-13417934D02*
X36200298Y-13418239D01*
X36200298Y-13418239D02*
X36216305Y-13418610D01*
X36216305Y-13418610D02*
X36230170Y-13419052D01*
X36230170Y-13419052D02*
X36242100Y-13419571D01*
X36242100Y-13419571D02*
X36252308Y-13420170D01*
X36252308Y-13420170D02*
X36261001Y-13420856D01*
X36261001Y-13420856D02*
X36268391Y-13421634D01*
X36268391Y-13421634D02*
X36274686Y-13422507D01*
X36274686Y-13422507D02*
X36280097Y-13423482D01*
X36280097Y-13423482D02*
X36284833Y-13424563D01*
X36284833Y-13424563D02*
X36289104Y-13425755D01*
X36289104Y-13425755D02*
X36293121Y-13427064D01*
X36293121Y-13427064D02*
X36297091Y-13428494D01*
X36297091Y-13428494D02*
X36301227Y-13430050D01*
X36301227Y-13430050D02*
X36305736Y-13431738D01*
X36305736Y-13431738D02*
X36306625Y-13432064D01*
X36306625Y-13432064D02*
X36333355Y-13444270D01*
X36333355Y-13444270D02*
X36359114Y-13460716D01*
X36359114Y-13460716D02*
X36383312Y-13480722D01*
X36383312Y-13480722D02*
X36405357Y-13503609D01*
X36405357Y-13503609D02*
X36424659Y-13528698D01*
X36424659Y-13528698D02*
X36440628Y-13555308D01*
X36440628Y-13555308D02*
X36452674Y-13582762D01*
X36452674Y-13582762D02*
X36459794Y-13608240D01*
X36459794Y-13608240D02*
X36460045Y-13610026D01*
X36460045Y-13610026D02*
X36460285Y-13612876D01*
X36460285Y-13612876D02*
X36460515Y-13616905D01*
X36460515Y-13616905D02*
X36460734Y-13622225D01*
X36460734Y-13622225D02*
X36460944Y-13628952D01*
X36460944Y-13628952D02*
X36461143Y-13637198D01*
X36461143Y-13637198D02*
X36461333Y-13647077D01*
X36461333Y-13647077D02*
X36461515Y-13658703D01*
X36461515Y-13658703D02*
X36461687Y-13672190D01*
X36461687Y-13672190D02*
X36461851Y-13687651D01*
X36461851Y-13687651D02*
X36462007Y-13705201D01*
X36462007Y-13705201D02*
X36462155Y-13724953D01*
X36462155Y-13724953D02*
X36462295Y-13747020D01*
X36462295Y-13747020D02*
X36462429Y-13771517D01*
X36462429Y-13771517D02*
X36462555Y-13798557D01*
X36462555Y-13798557D02*
X36462675Y-13828254D01*
X36462675Y-13828254D02*
X36462789Y-13860722D01*
X36462789Y-13860722D02*
X36462897Y-13896074D01*
X36462897Y-13896074D02*
X36462999Y-13934425D01*
X36462999Y-13934425D02*
X36463096Y-13975887D01*
X36463096Y-13975887D02*
X36463188Y-14020575D01*
X36463188Y-14020575D02*
X36463276Y-14068603D01*
X36463276Y-14068603D02*
X36463359Y-14120084D01*
X36463359Y-14120084D02*
X36463438Y-14175131D01*
X36463438Y-14175131D02*
X36463514Y-14233860D01*
X36463514Y-14233860D02*
X36463586Y-14296383D01*
X36463586Y-14296383D02*
X36463655Y-14362814D01*
X36463655Y-14362814D02*
X36463722Y-14433267D01*
X36463722Y-14433267D02*
X36463786Y-14507855D01*
X36463786Y-14507855D02*
X36463848Y-14586693D01*
X36463848Y-14586693D02*
X36463908Y-14669895D01*
X36463908Y-14669895D02*
X36463967Y-14757573D01*
X36463967Y-14757573D02*
X36464025Y-14849841D01*
X36464025Y-14849841D02*
X36464081Y-14946815D01*
X36464081Y-14946815D02*
X36464138Y-15048606D01*
X36464138Y-15048606D02*
X36464194Y-15155329D01*
X36464194Y-15155329D02*
X36464211Y-15188555D01*
X36464211Y-15188555D02*
X36465005Y-16750655D01*
X36465005Y-16750655D02*
X36459339Y-16770975D01*
X36459339Y-16770975D02*
X36448167Y-16802246D01*
X36448167Y-16802246D02*
X36432886Y-16831344D01*
X36432886Y-16831344D02*
X36413912Y-16857806D01*
X36413912Y-16857806D02*
X36391660Y-16881164D01*
X36391660Y-16881164D02*
X36366543Y-16900954D01*
X36366543Y-16900954D02*
X36338978Y-16916711D01*
X36338978Y-16916711D02*
X36323535Y-16923261D01*
X36323535Y-16923261D02*
X36299259Y-16930415D01*
X36299259Y-16930415D02*
X36272069Y-16935040D01*
X36272069Y-16935040D02*
X36243536Y-16936993D01*
X36243536Y-16936993D02*
X36215232Y-16936129D01*
X36215232Y-16936129D02*
X36201239Y-16934534D01*
X36201239Y-16934534D02*
X36167064Y-16927154D01*
X36167064Y-16927154D02*
X36135461Y-16915477D01*
X36135461Y-16915477D02*
X36106664Y-16899719D01*
X36106664Y-16899719D02*
X36080905Y-16880091D01*
X36080905Y-16880091D02*
X36058419Y-16856809D01*
X36058419Y-16856809D02*
X36039439Y-16830086D01*
X36039439Y-16830086D02*
X36024200Y-16800136D01*
X36024200Y-16800136D02*
X36012936Y-16767173D01*
X36012936Y-16767173D02*
X36011319Y-16760815D01*
X36011319Y-16760815D02*
X36010970Y-16758174D01*
X36010970Y-16758174D02*
X36010640Y-16753129D01*
X36010640Y-16753129D02*
X36010327Y-16745536D01*
X36010327Y-16745536D02*
X36010032Y-16735249D01*
X36010032Y-16735249D02*
X36009752Y-16722124D01*
X36009752Y-16722124D02*
X36009487Y-16706016D01*
X36009487Y-16706016D02*
X36009236Y-16686780D01*
X36009236Y-16686780D02*
X36008998Y-16664271D01*
X36008998Y-16664271D02*
X36008771Y-16638344D01*
X36008771Y-16638344D02*
X36008555Y-16608855D01*
X36008555Y-16608855D02*
X36008349Y-16575658D01*
X36008349Y-16575658D02*
X36008152Y-16538609D01*
X36008152Y-16538609D02*
X36007962Y-16497562D01*
X36007962Y-16497562D02*
X36007779Y-16452374D01*
X36007779Y-16452374D02*
X36007601Y-16402899D01*
X36007601Y-16402899D02*
X36007429Y-16348992D01*
X36007429Y-16348992D02*
X36007259Y-16290509D01*
X36007259Y-16290509D02*
X36007093Y-16227305D01*
X36007093Y-16227305D02*
X36006927Y-16159234D01*
X36006927Y-16159234D02*
X36006849Y-16125075D01*
X36006849Y-16125075D02*
X36005444Y-15502036D01*
X36005444Y-15502036D02*
X35993159Y-15516745D01*
X35993159Y-15516745D02*
X35978623Y-15533508D01*
X35978623Y-15533508D02*
X35961414Y-15552313D01*
X35961414Y-15552313D02*
X35942731Y-15571913D01*
X35942731Y-15571913D02*
X35923773Y-15591061D01*
X35923773Y-15591061D02*
X35905739Y-15608511D01*
X35905739Y-15608511D02*
X35897681Y-15615993D01*
X35897681Y-15615993D02*
X35839667Y-15665689D01*
X35839667Y-15665689D02*
X35779550Y-15710764D01*
X35779550Y-15710764D02*
X35717378Y-15751202D01*
X35717378Y-15751202D02*
X35653200Y-15786984D01*
X35653200Y-15786984D02*
X35587062Y-15818094D01*
X35587062Y-15818094D02*
X35519011Y-15844513D01*
X35519011Y-15844513D02*
X35449097Y-15866224D01*
X35449097Y-15866224D02*
X35377365Y-15883210D01*
X35377365Y-15883210D02*
X35303864Y-15895452D01*
X35303864Y-15895452D02*
X35228641Y-15902934D01*
X35228641Y-15902934D02*
X35151744Y-15905638D01*
X35151744Y-15905638D02*
X35113904Y-15905224D01*
X35113904Y-15905224D02*
X35044321Y-15901764D01*
X35044321Y-15901764D02*
X34977935Y-15894955D01*
X34977935Y-15894955D02*
X34913999Y-15884652D01*
X34913999Y-15884652D02*
X34851766Y-15870710D01*
X34851766Y-15870710D02*
X34790490Y-15852985D01*
X34790490Y-15852985D02*
X34729425Y-15831330D01*
X34729425Y-15831330D02*
X34724763Y-15829516D01*
X34724763Y-15829516D02*
X34660771Y-15801785D01*
X34660771Y-15801785D02*
X34598195Y-15769329D01*
X34598195Y-15769329D02*
X34537305Y-15732370D01*
X34537305Y-15732370D02*
X34478372Y-15691133D01*
X34478372Y-15691133D02*
X34421669Y-15645842D01*
X34421669Y-15645842D02*
X34367467Y-15596719D01*
X34367467Y-15596719D02*
X34316036Y-15543989D01*
X34316036Y-15543989D02*
X34267648Y-15487875D01*
X34267648Y-15487875D02*
X34222575Y-15428602D01*
X34222575Y-15428602D02*
X34201535Y-15398105D01*
X34201535Y-15398105D02*
X34164004Y-15338176D01*
X34164004Y-15338176D02*
X34130436Y-15276705D01*
X34130436Y-15276705D02*
X34100719Y-15213360D01*
X34100719Y-15213360D02*
X34074738Y-15147810D01*
X34074738Y-15147810D02*
X34052377Y-15079724D01*
X34052377Y-15079724D02*
X34033522Y-15008770D01*
X34033522Y-15008770D02*
X34018060Y-14934617D01*
X34018060Y-14934617D02*
X34005874Y-14856933D01*
X34005874Y-14856933D02*
X34001232Y-14818985D01*
X34001232Y-14818985D02*
X33999794Y-14802985D01*
X33999794Y-14802985D02*
X33998534Y-14782808D01*
X33998534Y-14782808D02*
X33997466Y-14759354D01*
X33997466Y-14759354D02*
X33996602Y-14733523D01*
X33996602Y-14733523D02*
X33995956Y-14706214D01*
X33995956Y-14706214D02*
X33995542Y-14678328D01*
X33995542Y-14678328D02*
X33995447Y-14662775D01*
X33995447Y-14662775D02*
X34436406Y-14662775D01*
X34436406Y-14662775D02*
X34438526Y-14732628D01*
X34438526Y-14732628D02*
X34444964Y-14799842D01*
X34444964Y-14799842D02*
X34455747Y-14864494D01*
X34455747Y-14864494D02*
X34470904Y-14926665D01*
X34470904Y-14926665D02*
X34490462Y-14986434D01*
X34490462Y-14986434D02*
X34514448Y-15043881D01*
X34514448Y-15043881D02*
X34542890Y-15099084D01*
X34542890Y-15099084D02*
X34575815Y-15152124D01*
X34575815Y-15152124D02*
X34613252Y-15203080D01*
X34613252Y-15203080D02*
X34631606Y-15225385D01*
X34631606Y-15225385D02*
X34669351Y-15266861D01*
X34669351Y-15266861D02*
X34709613Y-15305726D01*
X34709613Y-15305726D02*
X34751596Y-15341283D01*
X34751596Y-15341283D02*
X34794504Y-15372838D01*
X34794504Y-15372838D02*
X34817679Y-15387907D01*
X34817679Y-15387907D02*
X34862270Y-15413053D01*
X34862270Y-15413053D02*
X34910378Y-15435575D01*
X34910378Y-15435575D02*
X34960983Y-15455128D01*
X34960983Y-15455128D02*
X35013062Y-15471370D01*
X35013062Y-15471370D02*
X35065595Y-15483955D01*
X35065595Y-15483955D02*
X35117559Y-15492542D01*
X35117559Y-15492542D02*
X35134224Y-15494421D01*
X35134224Y-15494421D02*
X35146436Y-15495657D01*
X35146436Y-15495657D02*
X35157498Y-15496821D01*
X35157498Y-15496821D02*
X35165985Y-15497759D01*
X35165985Y-15497759D02*
X35169784Y-15498222D01*
X35169784Y-15498222D02*
X35177330Y-15498779D01*
X35177330Y-15498779D02*
X35189088Y-15499073D01*
X35189088Y-15499073D02*
X35204194Y-15499128D01*
X35204194Y-15499128D02*
X35221788Y-15498966D01*
X35221788Y-15498966D02*
X35241008Y-15498612D01*
X35241008Y-15498612D02*
X35260993Y-15498087D01*
X35260993Y-15498087D02*
X35280881Y-15497416D01*
X35280881Y-15497416D02*
X35299811Y-15496621D01*
X35299811Y-15496621D02*
X35316921Y-15495726D01*
X35316921Y-15495726D02*
X35331350Y-15494754D01*
X35331350Y-15494754D02*
X35342237Y-15493728D01*
X35342237Y-15493728D02*
X35343774Y-15493537D01*
X35343774Y-15493537D02*
X35406406Y-15482957D01*
X35406406Y-15482957D02*
X35466534Y-15467965D01*
X35466534Y-15467965D02*
X35524214Y-15448532D01*
X35524214Y-15448532D02*
X35579503Y-15424634D01*
X35579503Y-15424634D02*
X35632457Y-15396245D01*
X35632457Y-15396245D02*
X35683132Y-15363339D01*
X35683132Y-15363339D02*
X35731584Y-15325889D01*
X35731584Y-15325889D02*
X35758208Y-15302519D01*
X35758208Y-15302519D02*
X35803292Y-15257734D01*
X35803292Y-15257734D02*
X35844451Y-15209776D01*
X35844451Y-15209776D02*
X35881599Y-15158799D01*
X35881599Y-15158799D02*
X35914652Y-15104954D01*
X35914652Y-15104954D02*
X35943526Y-15048393D01*
X35943526Y-15048393D02*
X35968134Y-14989270D01*
X35968134Y-14989270D02*
X35988393Y-14927738D01*
X35988393Y-14927738D02*
X36004217Y-14863948D01*
X36004217Y-14863948D02*
X36005369Y-14858355D01*
X36005369Y-14858355D02*
X36011148Y-14827892D01*
X36011148Y-14827892D02*
X36015643Y-14799363D01*
X36015643Y-14799363D02*
X36019016Y-14771271D01*
X36019016Y-14771271D02*
X36021426Y-14742122D01*
X36021426Y-14742122D02*
X36023033Y-14710423D01*
X36023033Y-14710423D02*
X36023744Y-14686905D01*
X36023744Y-14686905D02*
X36023319Y-14617551D01*
X36023319Y-14617551D02*
X36018657Y-14550850D01*
X36018657Y-14550850D02*
X36009698Y-14486565D01*
X36009698Y-14486565D02*
X35996384Y-14424458D01*
X35996384Y-14424458D02*
X35978654Y-14364290D01*
X35978654Y-14364290D02*
X35956448Y-14305824D01*
X35956448Y-14305824D02*
X35929707Y-14248822D01*
X35929707Y-14248822D02*
X35900809Y-14197070D01*
X35900809Y-14197070D02*
X35865938Y-14143959D01*
X35865938Y-14143959D02*
X35827422Y-14094298D01*
X35827422Y-14094298D02*
X35785408Y-14048220D01*
X35785408Y-14048220D02*
X35740043Y-14005857D01*
X35740043Y-14005857D02*
X35691473Y-13967343D01*
X35691473Y-13967343D02*
X35639845Y-13932810D01*
X35639845Y-13932810D02*
X35585305Y-13902391D01*
X35585305Y-13902391D02*
X35563675Y-13891858D01*
X35563675Y-13891858D02*
X35513133Y-13870359D01*
X35513133Y-13870359D02*
X35461967Y-13852994D01*
X35461967Y-13852994D02*
X35409573Y-13839637D01*
X35409573Y-13839637D02*
X35355350Y-13830160D01*
X35355350Y-13830160D02*
X35298694Y-13824437D01*
X35298694Y-13824437D02*
X35239004Y-13822341D01*
X35239004Y-13822341D02*
X35233284Y-13822326D01*
X35233284Y-13822326D02*
X35174939Y-13823967D01*
X35174939Y-13823967D02*
X35119759Y-13829000D01*
X35119759Y-13829000D02*
X35066981Y-13837591D01*
X35066981Y-13837591D02*
X35015845Y-13849908D01*
X35015845Y-13849908D02*
X34965589Y-13866116D01*
X34965589Y-13866116D02*
X34915454Y-13886383D01*
X34915454Y-13886383D02*
X34892924Y-13896778D01*
X34892924Y-13896778D02*
X34837407Y-13926126D01*
X34837407Y-13926126D02*
X34784641Y-13959655D01*
X34784641Y-13959655D02*
X34734826Y-13997151D01*
X34734826Y-13997151D02*
X34688163Y-14038401D01*
X34688163Y-14038401D02*
X34644853Y-14083191D01*
X34644853Y-14083191D02*
X34605096Y-14131308D01*
X34605096Y-14131308D02*
X34569094Y-14182539D01*
X34569094Y-14182539D02*
X34537047Y-14236671D01*
X34537047Y-14236671D02*
X34509155Y-14293489D01*
X34509155Y-14293489D02*
X34500501Y-14313755D01*
X34500501Y-14313755D02*
X34480536Y-14367412D01*
X34480536Y-14367412D02*
X34464421Y-14422082D01*
X34464421Y-14422082D02*
X34452055Y-14478326D01*
X34452055Y-14478326D02*
X34443332Y-14536709D01*
X34443332Y-14536709D02*
X34438151Y-14597793D01*
X34438151Y-14597793D02*
X34436407Y-14662142D01*
X34436407Y-14662142D02*
X34436406Y-14662775D01*
X34436406Y-14662775D02*
X33995447Y-14662775D01*
X33995447Y-14662775D02*
X33995373Y-14650765D01*
X33995373Y-14650765D02*
X33995462Y-14624424D01*
X33995462Y-14624424D02*
X33995823Y-14600206D01*
X33995823Y-14600206D02*
X33996469Y-14579011D01*
X33996469Y-14579011D02*
X33997405Y-14561858D01*
X33997405Y-14561858D02*
X34005610Y-14480156D01*
X34005610Y-14480156D02*
X34018155Y-14401056D01*
X34018155Y-14401056D02*
X34035080Y-14324460D01*
X34035080Y-14324460D02*
X34056423Y-14250269D01*
X34056423Y-14250269D02*
X34082222Y-14178386D01*
X34082222Y-14178386D02*
X34112515Y-14108711D01*
X34112515Y-14108711D02*
X34147342Y-14041147D01*
X34147342Y-14041147D02*
X34186739Y-13975595D01*
X34186739Y-13975595D02*
X34230746Y-13911957D01*
X34230746Y-13911957D02*
X34271116Y-13860135D01*
X34271116Y-13860135D02*
X34320099Y-13804214D01*
X34320099Y-13804214D02*
X34372752Y-13751277D01*
X34372752Y-13751277D02*
X34428709Y-13701571D01*
X34428709Y-13701571D02*
X34487605Y-13655346D01*
X34487605Y-13655346D02*
X34549073Y-13612850D01*
X34549073Y-13612850D02*
X34612747Y-13574332D01*
X34612747Y-13574332D02*
X34678261Y-13540042D01*
X34678261Y-13540042D02*
X34745249Y-13510227D01*
X34745249Y-13510227D02*
X34813345Y-13485137D01*
X34813345Y-13485137D02*
X34831338Y-13479371D01*
X34831338Y-13479371D02*
X34862749Y-13469974D01*
X34862749Y-13469974D02*
X34893080Y-13461685D01*
X34893080Y-13461685D02*
X34923197Y-13454335D01*
X34923197Y-13454335D02*
X34953971Y-13447749D01*
X34953971Y-13447749D02*
X34986271Y-13441757D01*
X34986271Y-13441757D02*
X35020964Y-13436186D01*
X35020964Y-13436186D02*
X35058921Y-13430863D01*
X35058921Y-13430863D02*
X35101009Y-13425618D01*
X35101009Y-13425618D02*
X35105014Y-13425145D01*
X35105014Y-13425145D02*
X35162164Y-13418432D01*
X35162164Y-13418432D02*
X35701732Y-13417611D01*
X35701732Y-13417611D02*
X35764689Y-13417513D01*
X35764689Y-13417513D02*
X35822776Y-13417421D01*
X35822776Y-13417421D02*
X35876203Y-13417340D01*
X35876203Y-13417340D02*
X35925179Y-13417274D01*
X35925179Y-13417274D02*
X35969915Y-13417231D01*
X35969915Y-13417231D02*
X36010619Y-13417213D01*
X36010619Y-13417213D02*
X36047502Y-13417226D01*
X36047502Y-13417226D02*
X36047502Y-13417226D01*
G36*
X33995462Y-14624424D02*
G01*
X33995823Y-14600206D01*
X33996469Y-14579011D01*
X33997405Y-14561858D01*
X34005610Y-14480156D01*
X34018155Y-14401056D01*
X34035080Y-14324460D01*
X34056423Y-14250269D01*
X34082222Y-14178386D01*
X34112515Y-14108711D01*
X34147342Y-14041147D01*
X34186739Y-13975595D01*
X34230746Y-13911957D01*
X34271116Y-13860135D01*
X34320099Y-13804214D01*
X34372752Y-13751277D01*
X34428709Y-13701571D01*
X34487605Y-13655346D01*
X34549073Y-13612850D01*
X34612747Y-13574332D01*
X34678261Y-13540042D01*
X34745249Y-13510227D01*
X34813345Y-13485137D01*
X34831338Y-13479371D01*
X34862749Y-13469974D01*
X34893080Y-13461685D01*
X34923197Y-13454335D01*
X34953971Y-13447749D01*
X34986271Y-13441757D01*
X35020964Y-13436186D01*
X35058921Y-13430863D01*
X35101009Y-13425618D01*
X35105014Y-13425145D01*
X35162164Y-13418432D01*
X35701732Y-13417611D01*
X35764689Y-13417513D01*
X35822776Y-13417421D01*
X35876203Y-13417340D01*
X35925179Y-13417274D01*
X35969915Y-13417231D01*
X36010619Y-13417213D01*
X36047502Y-13417226D01*
X36080773Y-13417275D01*
X36110642Y-13417365D01*
X36137320Y-13417502D01*
X36161015Y-13417690D01*
X36181938Y-13417934D01*
X36200298Y-13418239D01*
X36216305Y-13418610D01*
X36230170Y-13419052D01*
X36242100Y-13419571D01*
X36252308Y-13420170D01*
X36261001Y-13420856D01*
X36268391Y-13421634D01*
X36274686Y-13422507D01*
X36280097Y-13423482D01*
X36284833Y-13424563D01*
X36289104Y-13425755D01*
X36293121Y-13427064D01*
X36297091Y-13428494D01*
X36301227Y-13430050D01*
X36305736Y-13431738D01*
X36306625Y-13432064D01*
X36333355Y-13444270D01*
X36359114Y-13460716D01*
X36383312Y-13480722D01*
X36405357Y-13503609D01*
X36424659Y-13528698D01*
X36440628Y-13555308D01*
X36452674Y-13582762D01*
X36459794Y-13608240D01*
X36460045Y-13610026D01*
X36460285Y-13612876D01*
X36460515Y-13616905D01*
X36460734Y-13622225D01*
X36460944Y-13628952D01*
X36461143Y-13637198D01*
X36461333Y-13647077D01*
X36461515Y-13658703D01*
X36461687Y-13672190D01*
X36461851Y-13687651D01*
X36462007Y-13705201D01*
X36462155Y-13724953D01*
X36462295Y-13747020D01*
X36462429Y-13771517D01*
X36462555Y-13798557D01*
X36462675Y-13828254D01*
X36462789Y-13860722D01*
X36462897Y-13896074D01*
X36462999Y-13934425D01*
X36463096Y-13975887D01*
X36463188Y-14020575D01*
X36463276Y-14068603D01*
X36463359Y-14120084D01*
X36463438Y-14175131D01*
X36463514Y-14233860D01*
X36463586Y-14296383D01*
X36463655Y-14362814D01*
X36463722Y-14433267D01*
X36463786Y-14507855D01*
X36463848Y-14586693D01*
X36463908Y-14669895D01*
X36463967Y-14757573D01*
X36464025Y-14849841D01*
X36464081Y-14946815D01*
X36464138Y-15048606D01*
X36464194Y-15155329D01*
X36464211Y-15188555D01*
X36465005Y-16750655D01*
X36459339Y-16770975D01*
X36448167Y-16802246D01*
X36432886Y-16831344D01*
X36413912Y-16857806D01*
X36391660Y-16881164D01*
X36366543Y-16900954D01*
X36338978Y-16916711D01*
X36323535Y-16923261D01*
X36299259Y-16930415D01*
X36272069Y-16935040D01*
X36243536Y-16936993D01*
X36215232Y-16936129D01*
X36201239Y-16934534D01*
X36167064Y-16927154D01*
X36135461Y-16915477D01*
X36106664Y-16899719D01*
X36080905Y-16880091D01*
X36058419Y-16856809D01*
X36039439Y-16830086D01*
X36024200Y-16800136D01*
X36012936Y-16767173D01*
X36011319Y-16760815D01*
X36010970Y-16758174D01*
X36010640Y-16753129D01*
X36010327Y-16745536D01*
X36010032Y-16735249D01*
X36009752Y-16722124D01*
X36009487Y-16706016D01*
X36009236Y-16686780D01*
X36008998Y-16664271D01*
X36008771Y-16638344D01*
X36008555Y-16608855D01*
X36008349Y-16575658D01*
X36008152Y-16538609D01*
X36007962Y-16497562D01*
X36007779Y-16452374D01*
X36007601Y-16402899D01*
X36007429Y-16348992D01*
X36007259Y-16290509D01*
X36007093Y-16227305D01*
X36006927Y-16159234D01*
X36006849Y-16125075D01*
X36005444Y-15502036D01*
X35993159Y-15516745D01*
X35978623Y-15533508D01*
X35961414Y-15552313D01*
X35942731Y-15571913D01*
X35923773Y-15591061D01*
X35905739Y-15608511D01*
X35897681Y-15615993D01*
X35839667Y-15665689D01*
X35779550Y-15710764D01*
X35717378Y-15751202D01*
X35653200Y-15786984D01*
X35587062Y-15818094D01*
X35519011Y-15844513D01*
X35449097Y-15866224D01*
X35377365Y-15883210D01*
X35303864Y-15895452D01*
X35228641Y-15902934D01*
X35151744Y-15905638D01*
X35113904Y-15905224D01*
X35044321Y-15901764D01*
X34977935Y-15894955D01*
X34913999Y-15884652D01*
X34851766Y-15870710D01*
X34790490Y-15852985D01*
X34729425Y-15831330D01*
X34724763Y-15829516D01*
X34660771Y-15801785D01*
X34598195Y-15769329D01*
X34537305Y-15732370D01*
X34478372Y-15691133D01*
X34421669Y-15645842D01*
X34367467Y-15596719D01*
X34316036Y-15543989D01*
X34267648Y-15487875D01*
X34222575Y-15428602D01*
X34201535Y-15398105D01*
X34164004Y-15338176D01*
X34130436Y-15276705D01*
X34100719Y-15213360D01*
X34074738Y-15147810D01*
X34052377Y-15079724D01*
X34033522Y-15008770D01*
X34018060Y-14934617D01*
X34005874Y-14856933D01*
X34001232Y-14818985D01*
X33999794Y-14802985D01*
X33998534Y-14782808D01*
X33997466Y-14759354D01*
X33996602Y-14733523D01*
X33995956Y-14706214D01*
X33995542Y-14678328D01*
X33995447Y-14662775D01*
X34436406Y-14662775D01*
X34438526Y-14732628D01*
X34444964Y-14799842D01*
X34455747Y-14864494D01*
X34470904Y-14926665D01*
X34490462Y-14986434D01*
X34514448Y-15043881D01*
X34542890Y-15099084D01*
X34575815Y-15152124D01*
X34613252Y-15203080D01*
X34631606Y-15225385D01*
X34669351Y-15266861D01*
X34709613Y-15305726D01*
X34751596Y-15341283D01*
X34794504Y-15372838D01*
X34817679Y-15387907D01*
X34862270Y-15413053D01*
X34910378Y-15435575D01*
X34960983Y-15455128D01*
X35013062Y-15471370D01*
X35065595Y-15483955D01*
X35117559Y-15492542D01*
X35134224Y-15494421D01*
X35146436Y-15495657D01*
X35157498Y-15496821D01*
X35165985Y-15497759D01*
X35169784Y-15498222D01*
X35177330Y-15498779D01*
X35189088Y-15499073D01*
X35204194Y-15499128D01*
X35221788Y-15498966D01*
X35241008Y-15498612D01*
X35260993Y-15498087D01*
X35280881Y-15497416D01*
X35299811Y-15496621D01*
X35316921Y-15495726D01*
X35331350Y-15494754D01*
X35342237Y-15493728D01*
X35343774Y-15493537D01*
X35406406Y-15482957D01*
X35466534Y-15467965D01*
X35524214Y-15448532D01*
X35579503Y-15424634D01*
X35632457Y-15396245D01*
X35683132Y-15363339D01*
X35731584Y-15325889D01*
X35758208Y-15302519D01*
X35803292Y-15257734D01*
X35844451Y-15209776D01*
X35881599Y-15158799D01*
X35914652Y-15104954D01*
X35943526Y-15048393D01*
X35968134Y-14989270D01*
X35988393Y-14927738D01*
X36004217Y-14863948D01*
X36005369Y-14858355D01*
X36011148Y-14827892D01*
X36015643Y-14799363D01*
X36019016Y-14771271D01*
X36021426Y-14742122D01*
X36023033Y-14710423D01*
X36023744Y-14686905D01*
X36023319Y-14617551D01*
X36018657Y-14550850D01*
X36009698Y-14486565D01*
X35996384Y-14424458D01*
X35978654Y-14364290D01*
X35956448Y-14305824D01*
X35929707Y-14248822D01*
X35900809Y-14197070D01*
X35865938Y-14143959D01*
X35827422Y-14094298D01*
X35785408Y-14048220D01*
X35740043Y-14005857D01*
X35691473Y-13967343D01*
X35639845Y-13932810D01*
X35585305Y-13902391D01*
X35563675Y-13891858D01*
X35513133Y-13870359D01*
X35461967Y-13852994D01*
X35409573Y-13839637D01*
X35355350Y-13830160D01*
X35298694Y-13824437D01*
X35239004Y-13822341D01*
X35233284Y-13822326D01*
X35174939Y-13823967D01*
X35119759Y-13829000D01*
X35066981Y-13837591D01*
X35015845Y-13849908D01*
X34965589Y-13866116D01*
X34915454Y-13886383D01*
X34892924Y-13896778D01*
X34837407Y-13926126D01*
X34784641Y-13959655D01*
X34734826Y-13997151D01*
X34688163Y-14038401D01*
X34644853Y-14083191D01*
X34605096Y-14131308D01*
X34569094Y-14182539D01*
X34537047Y-14236671D01*
X34509155Y-14293489D01*
X34500501Y-14313755D01*
X34480536Y-14367412D01*
X34464421Y-14422082D01*
X34452055Y-14478326D01*
X34443332Y-14536709D01*
X34438151Y-14597793D01*
X34436407Y-14662142D01*
X34436406Y-14662775D01*
X33995447Y-14662775D01*
X33995373Y-14650765D01*
X33995462Y-14624424D01*
G37*
X33995462Y-14624424D02*
X33995823Y-14600206D01*
X33996469Y-14579011D01*
X33997405Y-14561858D01*
X34005610Y-14480156D01*
X34018155Y-14401056D01*
X34035080Y-14324460D01*
X34056423Y-14250269D01*
X34082222Y-14178386D01*
X34112515Y-14108711D01*
X34147342Y-14041147D01*
X34186739Y-13975595D01*
X34230746Y-13911957D01*
X34271116Y-13860135D01*
X34320099Y-13804214D01*
X34372752Y-13751277D01*
X34428709Y-13701571D01*
X34487605Y-13655346D01*
X34549073Y-13612850D01*
X34612747Y-13574332D01*
X34678261Y-13540042D01*
X34745249Y-13510227D01*
X34813345Y-13485137D01*
X34831338Y-13479371D01*
X34862749Y-13469974D01*
X34893080Y-13461685D01*
X34923197Y-13454335D01*
X34953971Y-13447749D01*
X34986271Y-13441757D01*
X35020964Y-13436186D01*
X35058921Y-13430863D01*
X35101009Y-13425618D01*
X35105014Y-13425145D01*
X35162164Y-13418432D01*
X35701732Y-13417611D01*
X35764689Y-13417513D01*
X35822776Y-13417421D01*
X35876203Y-13417340D01*
X35925179Y-13417274D01*
X35969915Y-13417231D01*
X36010619Y-13417213D01*
X36047502Y-13417226D01*
X36080773Y-13417275D01*
X36110642Y-13417365D01*
X36137320Y-13417502D01*
X36161015Y-13417690D01*
X36181938Y-13417934D01*
X36200298Y-13418239D01*
X36216305Y-13418610D01*
X36230170Y-13419052D01*
X36242100Y-13419571D01*
X36252308Y-13420170D01*
X36261001Y-13420856D01*
X36268391Y-13421634D01*
X36274686Y-13422507D01*
X36280097Y-13423482D01*
X36284833Y-13424563D01*
X36289104Y-13425755D01*
X36293121Y-13427064D01*
X36297091Y-13428494D01*
X36301227Y-13430050D01*
X36305736Y-13431738D01*
X36306625Y-13432064D01*
X36333355Y-13444270D01*
X36359114Y-13460716D01*
X36383312Y-13480722D01*
X36405357Y-13503609D01*
X36424659Y-13528698D01*
X36440628Y-13555308D01*
X36452674Y-13582762D01*
X36459794Y-13608240D01*
X36460045Y-13610026D01*
X36460285Y-13612876D01*
X36460515Y-13616905D01*
X36460734Y-13622225D01*
X36460944Y-13628952D01*
X36461143Y-13637198D01*
X36461333Y-13647077D01*
X36461515Y-13658703D01*
X36461687Y-13672190D01*
X36461851Y-13687651D01*
X36462007Y-13705201D01*
X36462155Y-13724953D01*
X36462295Y-13747020D01*
X36462429Y-13771517D01*
X36462555Y-13798557D01*
X36462675Y-13828254D01*
X36462789Y-13860722D01*
X36462897Y-13896074D01*
X36462999Y-13934425D01*
X36463096Y-13975887D01*
X36463188Y-14020575D01*
X36463276Y-14068603D01*
X36463359Y-14120084D01*
X36463438Y-14175131D01*
X36463514Y-14233860D01*
X36463586Y-14296383D01*
X36463655Y-14362814D01*
X36463722Y-14433267D01*
X36463786Y-14507855D01*
X36463848Y-14586693D01*
X36463908Y-14669895D01*
X36463967Y-14757573D01*
X36464025Y-14849841D01*
X36464081Y-14946815D01*
X36464138Y-15048606D01*
X36464194Y-15155329D01*
X36464211Y-15188555D01*
X36465005Y-16750655D01*
X36459339Y-16770975D01*
X36448167Y-16802246D01*
X36432886Y-16831344D01*
X36413912Y-16857806D01*
X36391660Y-16881164D01*
X36366543Y-16900954D01*
X36338978Y-16916711D01*
X36323535Y-16923261D01*
X36299259Y-16930415D01*
X36272069Y-16935040D01*
X36243536Y-16936993D01*
X36215232Y-16936129D01*
X36201239Y-16934534D01*
X36167064Y-16927154D01*
X36135461Y-16915477D01*
X36106664Y-16899719D01*
X36080905Y-16880091D01*
X36058419Y-16856809D01*
X36039439Y-16830086D01*
X36024200Y-16800136D01*
X36012936Y-16767173D01*
X36011319Y-16760815D01*
X36010970Y-16758174D01*
X36010640Y-16753129D01*
X36010327Y-16745536D01*
X36010032Y-16735249D01*
X36009752Y-16722124D01*
X36009487Y-16706016D01*
X36009236Y-16686780D01*
X36008998Y-16664271D01*
X36008771Y-16638344D01*
X36008555Y-16608855D01*
X36008349Y-16575658D01*
X36008152Y-16538609D01*
X36007962Y-16497562D01*
X36007779Y-16452374D01*
X36007601Y-16402899D01*
X36007429Y-16348992D01*
X36007259Y-16290509D01*
X36007093Y-16227305D01*
X36006927Y-16159234D01*
X36006849Y-16125075D01*
X36005444Y-15502036D01*
X35993159Y-15516745D01*
X35978623Y-15533508D01*
X35961414Y-15552313D01*
X35942731Y-15571913D01*
X35923773Y-15591061D01*
X35905739Y-15608511D01*
X35897681Y-15615993D01*
X35839667Y-15665689D01*
X35779550Y-15710764D01*
X35717378Y-15751202D01*
X35653200Y-15786984D01*
X35587062Y-15818094D01*
X35519011Y-15844513D01*
X35449097Y-15866224D01*
X35377365Y-15883210D01*
X35303864Y-15895452D01*
X35228641Y-15902934D01*
X35151744Y-15905638D01*
X35113904Y-15905224D01*
X35044321Y-15901764D01*
X34977935Y-15894955D01*
X34913999Y-15884652D01*
X34851766Y-15870710D01*
X34790490Y-15852985D01*
X34729425Y-15831330D01*
X34724763Y-15829516D01*
X34660771Y-15801785D01*
X34598195Y-15769329D01*
X34537305Y-15732370D01*
X34478372Y-15691133D01*
X34421669Y-15645842D01*
X34367467Y-15596719D01*
X34316036Y-15543989D01*
X34267648Y-15487875D01*
X34222575Y-15428602D01*
X34201535Y-15398105D01*
X34164004Y-15338176D01*
X34130436Y-15276705D01*
X34100719Y-15213360D01*
X34074738Y-15147810D01*
X34052377Y-15079724D01*
X34033522Y-15008770D01*
X34018060Y-14934617D01*
X34005874Y-14856933D01*
X34001232Y-14818985D01*
X33999794Y-14802985D01*
X33998534Y-14782808D01*
X33997466Y-14759354D01*
X33996602Y-14733523D01*
X33995956Y-14706214D01*
X33995542Y-14678328D01*
X33995447Y-14662775D01*
X34436406Y-14662775D01*
X34438526Y-14732628D01*
X34444964Y-14799842D01*
X34455747Y-14864494D01*
X34470904Y-14926665D01*
X34490462Y-14986434D01*
X34514448Y-15043881D01*
X34542890Y-15099084D01*
X34575815Y-15152124D01*
X34613252Y-15203080D01*
X34631606Y-15225385D01*
X34669351Y-15266861D01*
X34709613Y-15305726D01*
X34751596Y-15341283D01*
X34794504Y-15372838D01*
X34817679Y-15387907D01*
X34862270Y-15413053D01*
X34910378Y-15435575D01*
X34960983Y-15455128D01*
X35013062Y-15471370D01*
X35065595Y-15483955D01*
X35117559Y-15492542D01*
X35134224Y-15494421D01*
X35146436Y-15495657D01*
X35157498Y-15496821D01*
X35165985Y-15497759D01*
X35169784Y-15498222D01*
X35177330Y-15498779D01*
X35189088Y-15499073D01*
X35204194Y-15499128D01*
X35221788Y-15498966D01*
X35241008Y-15498612D01*
X35260993Y-15498087D01*
X35280881Y-15497416D01*
X35299811Y-15496621D01*
X35316921Y-15495726D01*
X35331350Y-15494754D01*
X35342237Y-15493728D01*
X35343774Y-15493537D01*
X35406406Y-15482957D01*
X35466534Y-15467965D01*
X35524214Y-15448532D01*
X35579503Y-15424634D01*
X35632457Y-15396245D01*
X35683132Y-15363339D01*
X35731584Y-15325889D01*
X35758208Y-15302519D01*
X35803292Y-15257734D01*
X35844451Y-15209776D01*
X35881599Y-15158799D01*
X35914652Y-15104954D01*
X35943526Y-15048393D01*
X35968134Y-14989270D01*
X35988393Y-14927738D01*
X36004217Y-14863948D01*
X36005369Y-14858355D01*
X36011148Y-14827892D01*
X36015643Y-14799363D01*
X36019016Y-14771271D01*
X36021426Y-14742122D01*
X36023033Y-14710423D01*
X36023744Y-14686905D01*
X36023319Y-14617551D01*
X36018657Y-14550850D01*
X36009698Y-14486565D01*
X35996384Y-14424458D01*
X35978654Y-14364290D01*
X35956448Y-14305824D01*
X35929707Y-14248822D01*
X35900809Y-14197070D01*
X35865938Y-14143959D01*
X35827422Y-14094298D01*
X35785408Y-14048220D01*
X35740043Y-14005857D01*
X35691473Y-13967343D01*
X35639845Y-13932810D01*
X35585305Y-13902391D01*
X35563675Y-13891858D01*
X35513133Y-13870359D01*
X35461967Y-13852994D01*
X35409573Y-13839637D01*
X35355350Y-13830160D01*
X35298694Y-13824437D01*
X35239004Y-13822341D01*
X35233284Y-13822326D01*
X35174939Y-13823967D01*
X35119759Y-13829000D01*
X35066981Y-13837591D01*
X35015845Y-13849908D01*
X34965589Y-13866116D01*
X34915454Y-13886383D01*
X34892924Y-13896778D01*
X34837407Y-13926126D01*
X34784641Y-13959655D01*
X34734826Y-13997151D01*
X34688163Y-14038401D01*
X34644853Y-14083191D01*
X34605096Y-14131308D01*
X34569094Y-14182539D01*
X34537047Y-14236671D01*
X34509155Y-14293489D01*
X34500501Y-14313755D01*
X34480536Y-14367412D01*
X34464421Y-14422082D01*
X34452055Y-14478326D01*
X34443332Y-14536709D01*
X34438151Y-14597793D01*
X34436407Y-14662142D01*
X34436406Y-14662775D01*
X33995447Y-14662775D01*
X33995373Y-14650765D01*
X33995462Y-14624424D01*
X40101359Y-13434927D02*
X40130786Y-13438527D01*
X40130786Y-13438527D02*
X40156424Y-13444779D01*
X40156424Y-13444779D02*
X40178984Y-13453974D01*
X40178984Y-13453974D02*
X40199176Y-13466403D01*
X40199176Y-13466403D02*
X40217708Y-13482358D01*
X40217708Y-13482358D02*
X40218166Y-13482815D01*
X40218166Y-13482815D02*
X40236487Y-13503974D01*
X40236487Y-13503974D02*
X40250576Y-13526791D01*
X40250576Y-13526791D02*
X40260628Y-13551767D01*
X40260628Y-13551767D02*
X40266834Y-13579401D01*
X40266834Y-13579401D02*
X40269385Y-13610193D01*
X40269385Y-13610193D02*
X40269472Y-13616295D01*
X40269472Y-13616295D02*
X40268922Y-13639220D01*
X40268922Y-13639220D02*
X40266885Y-13660838D01*
X40266885Y-13660838D02*
X40263109Y-13682795D01*
X40263109Y-13682795D02*
X40257339Y-13706741D01*
X40257339Y-13706741D02*
X40253495Y-13720435D01*
X40253495Y-13720435D02*
X40252185Y-13724584D01*
X40252185Y-13724584D02*
X40249321Y-13733389D01*
X40249321Y-13733389D02*
X40244958Y-13746688D01*
X40244958Y-13746688D02*
X40239150Y-13764316D01*
X40239150Y-13764316D02*
X40231950Y-13786112D01*
X40231950Y-13786112D02*
X40223414Y-13811912D01*
X40223414Y-13811912D02*
X40213594Y-13841553D01*
X40213594Y-13841553D02*
X40202546Y-13874873D01*
X40202546Y-13874873D02*
X40190324Y-13911708D01*
X40190324Y-13911708D02*
X40176981Y-13951896D01*
X40176981Y-13951896D02*
X40162572Y-13995274D01*
X40162572Y-13995274D02*
X40147150Y-14041678D01*
X40147150Y-14041678D02*
X40130771Y-14090946D01*
X40130771Y-14090946D02*
X40113488Y-14142915D01*
X40113488Y-14142915D02*
X40095355Y-14197423D01*
X40095355Y-14197423D02*
X40076427Y-14254305D01*
X40076427Y-14254305D02*
X40056758Y-14313399D01*
X40056758Y-14313399D02*
X40036401Y-14374543D01*
X40036401Y-14374543D02*
X40015411Y-14437573D01*
X40015411Y-14437573D02*
X39993843Y-14502326D01*
X39993843Y-14502326D02*
X39971749Y-14568640D01*
X39971749Y-14568640D02*
X39949185Y-14636351D01*
X39949185Y-14636351D02*
X39926205Y-14705297D01*
X39926205Y-14705297D02*
X39909508Y-14755382D01*
X39909508Y-14755382D02*
X39881433Y-14839603D01*
X39881433Y-14839603D02*
X39854924Y-14919143D01*
X39854924Y-14919143D02*
X39829931Y-14994142D01*
X39829931Y-14994142D02*
X39806407Y-15064735D01*
X39806407Y-15064735D02*
X39784302Y-15131060D01*
X39784302Y-15131060D02*
X39763567Y-15193254D01*
X39763567Y-15193254D02*
X39744154Y-15251454D01*
X39744154Y-15251454D02*
X39726014Y-15305798D01*
X39726014Y-15305798D02*
X39709097Y-15356422D01*
X39709097Y-15356422D02*
X39693356Y-15403463D01*
X39693356Y-15403463D02*
X39678740Y-15447059D01*
X39678740Y-15447059D02*
X39665203Y-15487347D01*
X39665203Y-15487347D02*
X39652694Y-15524463D01*
X39652694Y-15524463D02*
X39641164Y-15558546D01*
X39641164Y-15558546D02*
X39630566Y-15589732D01*
X39630566Y-15589732D02*
X39620849Y-15618157D01*
X39620849Y-15618157D02*
X39611966Y-15643961D01*
X39611966Y-15643961D02*
X39603868Y-15667278D01*
X39603868Y-15667278D02*
X39596505Y-15688248D01*
X39596505Y-15688248D02*
X39589828Y-15707006D01*
X39589828Y-15707006D02*
X39583790Y-15723690D01*
X39583790Y-15723690D02*
X39578341Y-15738437D01*
X39578341Y-15738437D02*
X39573432Y-15751384D01*
X39573432Y-15751384D02*
X39569014Y-15762668D01*
X39569014Y-15762668D02*
X39565039Y-15772426D01*
X39565039Y-15772426D02*
X39561458Y-15780796D01*
X39561458Y-15780796D02*
X39558222Y-15787915D01*
X39558222Y-15787915D02*
X39555282Y-15793919D01*
X39555282Y-15793919D02*
X39552589Y-15798946D01*
X39552589Y-15798946D02*
X39550095Y-15803133D01*
X39550095Y-15803133D02*
X39547750Y-15806617D01*
X39547750Y-15806617D02*
X39545506Y-15809535D01*
X39545506Y-15809535D02*
X39543314Y-15812025D01*
X39543314Y-15812025D02*
X39541126Y-15814223D01*
X39541126Y-15814223D02*
X39538891Y-15816266D01*
X39538891Y-15816266D02*
X39536562Y-15818293D01*
X39536562Y-15818293D02*
X39534090Y-15820439D01*
X39534090Y-15820439D02*
X39531425Y-15822841D01*
X39531425Y-15822841D02*
X39528520Y-15825638D01*
X39528520Y-15825638D02*
X39528295Y-15825864D01*
X39528295Y-15825864D02*
X39511586Y-15841358D01*
X39511586Y-15841358D02*
X39495215Y-15853505D01*
X39495215Y-15853505D02*
X39477333Y-15863541D01*
X39477333Y-15863541D02*
X39461637Y-15870502D01*
X39461637Y-15870502D02*
X39441844Y-15877676D01*
X39441844Y-15877676D02*
X39422650Y-15882599D01*
X39422650Y-15882599D02*
X39402452Y-15885552D01*
X39402452Y-15885552D02*
X39379646Y-15886819D01*
X39379646Y-15886819D02*
X39368404Y-15886915D01*
X39368404Y-15886915D02*
X39344190Y-15886112D01*
X39344190Y-15886112D02*
X39323024Y-15883594D01*
X39323024Y-15883594D02*
X39303051Y-15878983D01*
X39303051Y-15878983D02*
X39282417Y-15871900D01*
X39282417Y-15871900D02*
X39270230Y-15866863D01*
X39270230Y-15866863D02*
X39242975Y-15852591D01*
X39242975Y-15852591D02*
X39218003Y-15834599D01*
X39218003Y-15834599D02*
X39195928Y-15813505D01*
X39195928Y-15813505D02*
X39177360Y-15789929D01*
X39177360Y-15789929D02*
X39162913Y-15764489D01*
X39162913Y-15764489D02*
X39158339Y-15753705D01*
X39158339Y-15753705D02*
X39157190Y-15749989D01*
X39157190Y-15749989D02*
X39154771Y-15741553D01*
X39154771Y-15741553D02*
X39151132Y-15728585D01*
X39151132Y-15728585D02*
X39146322Y-15711268D01*
X39146322Y-15711268D02*
X39140394Y-15689790D01*
X39140394Y-15689790D02*
X39133397Y-15664336D01*
X39133397Y-15664336D02*
X39125382Y-15635092D01*
X39125382Y-15635092D02*
X39116399Y-15602243D01*
X39116399Y-15602243D02*
X39106500Y-15565976D01*
X39106500Y-15565976D02*
X39095734Y-15526476D01*
X39095734Y-15526476D02*
X39084152Y-15483929D01*
X39084152Y-15483929D02*
X39071806Y-15438521D01*
X39071806Y-15438521D02*
X39058745Y-15390438D01*
X39058745Y-15390438D02*
X39045019Y-15339866D01*
X39045019Y-15339866D02*
X39030681Y-15286990D01*
X39030681Y-15286990D02*
X39015780Y-15231996D01*
X39015780Y-15231996D02*
X39000366Y-15175070D01*
X39000366Y-15175070D02*
X38984491Y-15116398D01*
X38984491Y-15116398D02*
X38968204Y-15056166D01*
X38968204Y-15056166D02*
X38951557Y-14994559D01*
X38951557Y-14994559D02*
X38934601Y-14931763D01*
X38934601Y-14931763D02*
X38933819Y-14928866D01*
X38933819Y-14928866D02*
X38916902Y-14866212D01*
X38916902Y-14866212D02*
X38900321Y-14804829D01*
X38900321Y-14804829D02*
X38884124Y-14744898D01*
X38884124Y-14744898D02*
X38868361Y-14686599D01*
X38868361Y-14686599D02*
X38853080Y-14630114D01*
X38853080Y-14630114D02*
X38838331Y-14575622D01*
X38838331Y-14575622D02*
X38824163Y-14523306D01*
X38824163Y-14523306D02*
X38810625Y-14473345D01*
X38810625Y-14473345D02*
X38797765Y-14425921D01*
X38797765Y-14425921D02*
X38785634Y-14381215D01*
X38785634Y-14381215D02*
X38774280Y-14339407D01*
X38774280Y-14339407D02*
X38763753Y-14300679D01*
X38763753Y-14300679D02*
X38754101Y-14265210D01*
X38754101Y-14265210D02*
X38745374Y-14233183D01*
X38745374Y-14233183D02*
X38737620Y-14204778D01*
X38737620Y-14204778D02*
X38730889Y-14180175D01*
X38730889Y-14180175D02*
X38725231Y-14159556D01*
X38725231Y-14159556D02*
X38720693Y-14143101D01*
X38720693Y-14143101D02*
X38717326Y-14130992D01*
X38717326Y-14130992D02*
X38715178Y-14123409D01*
X38715178Y-14123409D02*
X38714298Y-14120533D01*
X38714298Y-14120533D02*
X38714283Y-14120511D01*
X38714283Y-14120511D02*
X38713495Y-14122923D01*
X38713495Y-14122923D02*
X38711375Y-14130043D01*
X38711375Y-14130043D02*
X38707976Y-14141690D01*
X38707976Y-14141690D02*
X38703348Y-14157686D01*
X38703348Y-14157686D02*
X38697542Y-14177848D01*
X38697542Y-14177848D02*
X38690609Y-14201998D01*
X38690609Y-14201998D02*
X38682603Y-14229955D01*
X38682603Y-14229955D02*
X38673572Y-14261538D01*
X38673572Y-14261538D02*
X38663570Y-14296568D01*
X38663570Y-14296568D02*
X38652646Y-14334864D01*
X38652646Y-14334864D02*
X38640854Y-14376247D01*
X38640854Y-14376247D02*
X38628243Y-14420535D01*
X38628243Y-14420535D02*
X38614865Y-14467549D01*
X38614865Y-14467549D02*
X38600773Y-14517109D01*
X38600773Y-14517109D02*
X38586016Y-14569034D01*
X38586016Y-14569034D02*
X38570646Y-14623144D01*
X38570646Y-14623144D02*
X38554715Y-14679259D01*
X38554715Y-14679259D02*
X38538274Y-14737199D01*
X38538274Y-14737199D02*
X38521375Y-14796784D01*
X38521375Y-14796784D02*
X38504068Y-14857833D01*
X38504068Y-14857833D02*
X38486405Y-14920166D01*
X38486405Y-14920166D02*
X38484668Y-14926300D01*
X38484668Y-14926300D02*
X38466908Y-14988977D01*
X38466908Y-14988977D02*
X38449467Y-15050497D01*
X38449467Y-15050497D02*
X38432398Y-15110672D01*
X38432398Y-15110672D02*
X38415755Y-15169318D01*
X38415755Y-15169318D02*
X38399591Y-15226247D01*
X38399591Y-15226247D02*
X38383958Y-15281273D01*
X38383958Y-15281273D02*
X38368909Y-15334211D01*
X38368909Y-15334211D02*
X38354499Y-15384874D01*
X38354499Y-15384874D02*
X38340779Y-15433077D01*
X38340779Y-15433077D02*
X38327802Y-15478632D01*
X38327802Y-15478632D02*
X38315623Y-15521354D01*
X38315623Y-15521354D02*
X38304294Y-15561056D01*
X38304294Y-15561056D02*
X38293867Y-15597553D01*
X38293867Y-15597553D02*
X38284397Y-15630658D01*
X38284397Y-15630658D02*
X38275936Y-15660186D01*
X38275936Y-15660186D02*
X38268537Y-15685949D01*
X38268537Y-15685949D02*
X38262253Y-15707763D01*
X38262253Y-15707763D02*
X38257138Y-15725440D01*
X38257138Y-15725440D02*
X38253244Y-15738795D01*
X38253244Y-15738795D02*
X38250625Y-15747641D01*
X38250625Y-15747641D02*
X38249333Y-15751793D01*
X38249333Y-15751793D02*
X38249310Y-15751858D01*
X38249310Y-15751858D02*
X38237470Y-15777528D01*
X38237470Y-15777528D02*
X38220806Y-15801924D01*
X38220806Y-15801924D02*
X38199247Y-15825149D01*
X38199247Y-15825149D02*
X38198958Y-15825421D01*
X38198958Y-15825421D02*
X38175541Y-15845021D01*
X38175541Y-15845021D02*
X38151157Y-15860369D01*
X38151157Y-15860369D02*
X38124465Y-15872283D01*
X38124465Y-15872283D02*
X38117902Y-15874608D01*
X38117902Y-15874608D02*
X38083325Y-15883721D01*
X38083325Y-15883721D02*
X38048271Y-15887813D01*
X38048271Y-15887813D02*
X38013002Y-15886858D01*
X38013002Y-15886858D02*
X38001884Y-15885507D01*
X38001884Y-15885507D02*
X37972622Y-15879036D01*
X37972622Y-15879036D02*
X37942016Y-15867913D01*
X37942016Y-15867913D02*
X37927589Y-15861269D01*
X37927589Y-15861269D02*
X37904397Y-15847420D01*
X37904397Y-15847420D02*
X37882086Y-15829343D01*
X37882086Y-15829343D02*
X37861522Y-15807886D01*
X37861522Y-15807886D02*
X37843570Y-15783900D01*
X37843570Y-15783900D02*
X37835727Y-15771016D01*
X37835727Y-15771016D02*
X37834236Y-15767388D01*
X37834236Y-15767388D02*
X37831215Y-15759132D01*
X37831215Y-15759132D02*
X37826726Y-15746440D01*
X37826726Y-15746440D02*
X37820834Y-15729506D01*
X37820834Y-15729506D02*
X37813605Y-15708525D01*
X37813605Y-15708525D02*
X37805103Y-15683690D01*
X37805103Y-15683690D02*
X37795392Y-15655194D01*
X37795392Y-15655194D02*
X37784537Y-15623232D01*
X37784537Y-15623232D02*
X37772602Y-15587996D01*
X37772602Y-15587996D02*
X37759653Y-15549682D01*
X37759653Y-15549682D02*
X37745753Y-15508482D01*
X37745753Y-15508482D02*
X37730967Y-15464590D01*
X37730967Y-15464590D02*
X37715360Y-15418200D01*
X37715360Y-15418200D02*
X37698997Y-15369505D01*
X37698997Y-15369505D02*
X37681941Y-15318701D01*
X37681941Y-15318701D02*
X37664258Y-15265979D01*
X37664258Y-15265979D02*
X37646012Y-15211534D01*
X37646012Y-15211534D02*
X37627268Y-15155559D01*
X37627268Y-15155559D02*
X37608090Y-15098249D01*
X37608090Y-15098249D02*
X37588543Y-15039797D01*
X37588543Y-15039797D02*
X37568692Y-14980396D01*
X37568692Y-14980396D02*
X37548600Y-14920241D01*
X37548600Y-14920241D02*
X37528333Y-14859525D01*
X37528333Y-14859525D02*
X37507956Y-14798442D01*
X37507956Y-14798442D02*
X37487532Y-14737185D01*
X37487532Y-14737185D02*
X37467126Y-14675949D01*
X37467126Y-14675949D02*
X37446803Y-14614927D01*
X37446803Y-14614927D02*
X37426628Y-14554312D01*
X37426628Y-14554312D02*
X37406665Y-14494299D01*
X37406665Y-14494299D02*
X37386979Y-14435081D01*
X37386979Y-14435081D02*
X37367634Y-14376852D01*
X37367634Y-14376852D02*
X37348694Y-14319806D01*
X37348694Y-14319806D02*
X37330225Y-14264136D01*
X37330225Y-14264136D02*
X37312291Y-14210036D01*
X37312291Y-14210036D02*
X37294957Y-14157700D01*
X37294957Y-14157700D02*
X37278287Y-14107322D01*
X37278287Y-14107322D02*
X37262345Y-14059094D01*
X37262345Y-14059094D02*
X37247197Y-14013212D01*
X37247197Y-14013212D02*
X37232906Y-13969868D01*
X37232906Y-13969868D02*
X37219539Y-13929257D01*
X37219539Y-13929257D02*
X37207158Y-13891572D01*
X37207158Y-13891572D02*
X37195828Y-13857007D01*
X37195828Y-13857007D02*
X37185615Y-13825755D01*
X37185615Y-13825755D02*
X37176583Y-13798011D01*
X37176583Y-13798011D02*
X37168796Y-13773967D01*
X37168796Y-13773967D02*
X37162319Y-13753819D01*
X37162319Y-13753819D02*
X37157217Y-13737759D01*
X37157217Y-13737759D02*
X37153553Y-13725981D01*
X37153553Y-13725981D02*
X37151394Y-13718679D01*
X37151394Y-13718679D02*
X37150867Y-13716625D01*
X37150867Y-13716625D02*
X37144037Y-13676889D01*
X37144037Y-13676889D02*
X37140721Y-13638884D01*
X37140721Y-13638884D02*
X37140926Y-13603143D01*
X37140926Y-13603143D02*
X37144661Y-13570203D01*
X37144661Y-13570203D02*
X37148395Y-13552795D01*
X37148395Y-13552795D02*
X37157670Y-13526054D01*
X37157670Y-13526054D02*
X37170888Y-13502209D01*
X37170888Y-13502209D02*
X37187750Y-13481580D01*
X37187750Y-13481580D02*
X37207955Y-13464483D01*
X37207955Y-13464483D02*
X37231203Y-13451238D01*
X37231203Y-13451238D02*
X37251314Y-13443767D01*
X37251314Y-13443767D02*
X37273576Y-13438726D01*
X37273576Y-13438726D02*
X37298823Y-13435516D01*
X37298823Y-13435516D02*
X37325270Y-13434209D01*
X37325270Y-13434209D02*
X37351137Y-13434878D01*
X37351137Y-13434878D02*
X37374640Y-13437596D01*
X37374640Y-13437596D02*
X37379584Y-13438531D01*
X37379584Y-13438531D02*
X37409723Y-13447280D01*
X37409723Y-13447280D02*
X37437962Y-13460662D01*
X37437962Y-13460662D02*
X37464151Y-13478540D01*
X37464151Y-13478540D02*
X37488141Y-13500780D01*
X37488141Y-13500780D02*
X37509782Y-13527244D01*
X37509782Y-13527244D02*
X37528925Y-13557797D01*
X37528925Y-13557797D02*
X37543422Y-13587577D01*
X37543422Y-13587577D02*
X37544600Y-13590291D01*
X37544600Y-13590291D02*
X37545692Y-13592800D01*
X37545692Y-13592800D02*
X37546749Y-13595257D01*
X37546749Y-13595257D02*
X37547821Y-13597813D01*
X37547821Y-13597813D02*
X37548956Y-13600622D01*
X37548956Y-13600622D02*
X37550205Y-13603837D01*
X37550205Y-13603837D02*
X37551616Y-13607611D01*
X37551616Y-13607611D02*
X37553239Y-13612096D01*
X37553239Y-13612096D02*
X37555124Y-13617445D01*
X37555124Y-13617445D02*
X37557319Y-13623812D01*
X37557319Y-13623812D02*
X37559875Y-13631349D01*
X37559875Y-13631349D02*
X37562841Y-13640209D01*
X37562841Y-13640209D02*
X37566266Y-13650545D01*
X37566266Y-13650545D02*
X37570200Y-13662510D01*
X37570200Y-13662510D02*
X37574692Y-13676256D01*
X37574692Y-13676256D02*
X37579792Y-13691937D01*
X37579792Y-13691937D02*
X37585549Y-13709705D01*
X37585549Y-13709705D02*
X37592013Y-13729714D01*
X37592013Y-13729714D02*
X37599232Y-13752115D01*
X37599232Y-13752115D02*
X37607257Y-13777063D01*
X37607257Y-13777063D02*
X37616137Y-13804709D01*
X37616137Y-13804709D02*
X37625922Y-13835207D01*
X37625922Y-13835207D02*
X37636660Y-13868710D01*
X37636660Y-13868710D02*
X37648402Y-13905370D01*
X37648402Y-13905370D02*
X37661196Y-13945340D01*
X37661196Y-13945340D02*
X37675092Y-13988774D01*
X37675092Y-13988774D02*
X37690140Y-14035823D01*
X37690140Y-14035823D02*
X37706390Y-14086642D01*
X37706390Y-14086642D02*
X37723889Y-14141382D01*
X37723889Y-14141382D02*
X37742689Y-14200197D01*
X37742689Y-14200197D02*
X37762839Y-14263239D01*
X37762839Y-14263239D02*
X37784387Y-14330662D01*
X37784387Y-14330662D02*
X37807383Y-14402618D01*
X37807383Y-14402618D02*
X37831823Y-14479090D01*
X37831823Y-14479090D02*
X37849878Y-14535560D01*
X37849878Y-14535560D02*
X37867537Y-14590748D01*
X37867537Y-14590748D02*
X37884738Y-14644459D01*
X37884738Y-14644459D02*
X37901417Y-14696500D01*
X37901417Y-14696500D02*
X37917512Y-14746676D01*
X37917512Y-14746676D02*
X37932961Y-14794791D01*
X37932961Y-14794791D02*
X37947700Y-14840653D01*
X37947700Y-14840653D02*
X37961668Y-14884066D01*
X37961668Y-14884066D02*
X37974800Y-14924836D01*
X37974800Y-14924836D02*
X37987035Y-14962769D01*
X37987035Y-14962769D02*
X37998310Y-14997670D01*
X37998310Y-14997670D02*
X38008561Y-15029345D01*
X38008561Y-15029345D02*
X38017727Y-15057599D01*
X38017727Y-15057599D02*
X38025744Y-15082238D01*
X38025744Y-15082238D02*
X38032550Y-15103067D01*
X38032550Y-15103067D02*
X38038083Y-15119892D01*
X38038083Y-15119892D02*
X38042278Y-15132519D01*
X38042278Y-15132519D02*
X38045075Y-15140753D01*
X38045075Y-15140753D02*
X38046409Y-15144400D01*
X38046409Y-15144400D02*
X38046514Y-15144570D01*
X38046514Y-15144570D02*
X38047341Y-15142026D01*
X38047341Y-15142026D02*
X38049552Y-15134795D01*
X38049552Y-15134795D02*
X38053093Y-15123060D01*
X38053093Y-15123060D02*
X38057909Y-15107006D01*
X38057909Y-15107006D02*
X38063946Y-15086818D01*
X38063946Y-15086818D02*
X38071148Y-15062680D01*
X38071148Y-15062680D02*
X38079461Y-15034775D01*
X38079461Y-15034775D02*
X38088831Y-15003290D01*
X38088831Y-15003290D02*
X38099201Y-14968407D01*
X38099201Y-14968407D02*
X38110519Y-14930311D01*
X38110519Y-14930311D02*
X38122728Y-14889187D01*
X38122728Y-14889187D02*
X38135775Y-14845219D01*
X38135775Y-14845219D02*
X38149604Y-14798590D01*
X38149604Y-14798590D02*
X38164161Y-14749487D01*
X38164161Y-14749487D02*
X38179391Y-14698092D01*
X38179391Y-14698092D02*
X38195240Y-14644590D01*
X38195240Y-14644590D02*
X38211652Y-14589165D01*
X38211652Y-14589165D02*
X38228572Y-14532003D01*
X38228572Y-14532003D02*
X38245947Y-14473287D01*
X38245947Y-14473287D02*
X38263721Y-14413201D01*
X38263721Y-14413201D02*
X38274796Y-14375755D01*
X38274796Y-14375755D02*
X38292868Y-14314653D01*
X38292868Y-14314653D02*
X38310616Y-14254681D01*
X38310616Y-14254681D02*
X38327982Y-14196028D01*
X38327982Y-14196028D02*
X38344908Y-14138887D01*
X38344908Y-14138887D02*
X38361340Y-14083448D01*
X38361340Y-14083448D02*
X38377218Y-14029904D01*
X38377218Y-14029904D02*
X38392486Y-13978446D01*
X38392486Y-13978446D02*
X38407088Y-13929266D01*
X38407088Y-13929266D02*
X38420966Y-13882555D01*
X38420966Y-13882555D02*
X38434063Y-13838504D01*
X38434063Y-13838504D02*
X38446322Y-13797306D01*
X38446322Y-13797306D02*
X38457687Y-13759151D01*
X38457687Y-13759151D02*
X38468100Y-13724231D01*
X38468100Y-13724231D02*
X38477505Y-13692739D01*
X38477505Y-13692739D02*
X38485843Y-13664864D01*
X38485843Y-13664864D02*
X38493060Y-13640799D01*
X38493060Y-13640799D02*
X38499096Y-13620735D01*
X38499096Y-13620735D02*
X38503896Y-13604865D01*
X38503896Y-13604865D02*
X38507402Y-13593378D01*
X38507402Y-13593378D02*
X38509558Y-13586468D01*
X38509558Y-13586468D02*
X38510145Y-13584694D01*
X38510145Y-13584694D02*
X38522977Y-13554819D01*
X38522977Y-13554819D02*
X38539418Y-13527819D01*
X38539418Y-13527819D02*
X38560126Y-13502645D01*
X38560126Y-13502645D02*
X38564494Y-13498088D01*
X38564494Y-13498088D02*
X38580804Y-13482363D01*
X38580804Y-13482363D02*
X38595744Y-13470145D01*
X38595744Y-13470145D02*
X38610542Y-13460577D01*
X38610542Y-13460577D02*
X38626423Y-13452799D01*
X38626423Y-13452799D02*
X38633074Y-13450105D01*
X38633074Y-13450105D02*
X38654635Y-13442876D01*
X38654635Y-13442876D02*
X38676302Y-13438018D01*
X38676302Y-13438018D02*
X38699635Y-13435270D01*
X38699635Y-13435270D02*
X38726192Y-13434371D01*
X38726192Y-13434371D02*
X38727028Y-13434370D01*
X38727028Y-13434370D02*
X38753967Y-13435213D01*
X38753967Y-13435213D02*
X38777418Y-13437924D01*
X38777418Y-13437924D02*
X38798700Y-13442729D01*
X38798700Y-13442729D02*
X38819133Y-13449853D01*
X38819133Y-13449853D02*
X38820249Y-13450313D01*
X38820249Y-13450313D02*
X38845553Y-13463301D01*
X38845553Y-13463301D02*
X38869839Y-13480502D01*
X38869839Y-13480502D02*
X38892238Y-13501052D01*
X38892238Y-13501052D02*
X38911881Y-13524084D01*
X38911881Y-13524084D02*
X38927899Y-13548735D01*
X38927899Y-13548735D02*
X38936160Y-13565699D01*
X38936160Y-13565699D02*
X38936828Y-13567231D01*
X38936828Y-13567231D02*
X38937403Y-13568468D01*
X38937403Y-13568468D02*
X38937927Y-13569567D01*
X38937927Y-13569567D02*
X38938439Y-13570687D01*
X38938439Y-13570687D02*
X38938981Y-13571984D01*
X38938981Y-13571984D02*
X38939593Y-13573615D01*
X38939593Y-13573615D02*
X38940317Y-13575738D01*
X38940317Y-13575738D02*
X38941194Y-13578509D01*
X38941194Y-13578509D02*
X38942264Y-13582086D01*
X38942264Y-13582086D02*
X38943568Y-13586625D01*
X38943568Y-13586625D02*
X38945147Y-13592284D01*
X38945147Y-13592284D02*
X38947042Y-13599221D01*
X38947042Y-13599221D02*
X38949293Y-13607592D01*
X38949293Y-13607592D02*
X38951943Y-13617553D01*
X38951943Y-13617553D02*
X38955030Y-13629264D01*
X38955030Y-13629264D02*
X38958597Y-13642880D01*
X38958597Y-13642880D02*
X38962685Y-13658558D01*
X38962685Y-13658558D02*
X38967333Y-13676457D01*
X38967333Y-13676457D02*
X38972583Y-13696732D01*
X38972583Y-13696732D02*
X38978476Y-13719542D01*
X38978476Y-13719542D02*
X38985053Y-13745043D01*
X38985053Y-13745043D02*
X38992354Y-13773392D01*
X38992354Y-13773392D02*
X39000421Y-13804747D01*
X39000421Y-13804747D02*
X39009294Y-13839264D01*
X39009294Y-13839264D02*
X39019014Y-13877101D01*
X39019014Y-13877101D02*
X39029622Y-13918416D01*
X39029622Y-13918416D02*
X39041160Y-13963364D01*
X39041160Y-13963364D02*
X39053666Y-14012103D01*
X39053666Y-14012103D02*
X39067184Y-14064791D01*
X39067184Y-14064791D02*
X39081753Y-14121584D01*
X39081753Y-14121584D02*
X39097414Y-14182639D01*
X39097414Y-14182639D02*
X39114208Y-14248115D01*
X39114208Y-14248115D02*
X39132177Y-14318167D01*
X39132177Y-14318167D02*
X39151360Y-14392953D01*
X39151360Y-14392953D02*
X39155071Y-14407419D01*
X39155071Y-14407419D02*
X39170764Y-14468591D01*
X39170764Y-14468591D02*
X39186133Y-14528486D01*
X39186133Y-14528486D02*
X39201129Y-14586918D01*
X39201129Y-14586918D02*
X39215706Y-14643702D01*
X39215706Y-14643702D02*
X39229813Y-14698649D01*
X39229813Y-14698649D02*
X39243405Y-14751573D01*
X39243405Y-14751573D02*
X39256432Y-14802288D01*
X39256432Y-14802288D02*
X39268847Y-14850607D01*
X39268847Y-14850607D02*
X39280602Y-14896344D01*
X39280602Y-14896344D02*
X39291648Y-14939312D01*
X39291648Y-14939312D02*
X39301938Y-14979323D01*
X39301938Y-14979323D02*
X39311424Y-15016193D01*
X39311424Y-15016193D02*
X39320057Y-15049733D01*
X39320057Y-15049733D02*
X39327790Y-15079757D01*
X39327790Y-15079757D02*
X39334575Y-15106080D01*
X39334575Y-15106080D02*
X39340364Y-15128513D01*
X39340364Y-15128513D02*
X39345108Y-15146871D01*
X39345108Y-15146871D02*
X39348761Y-15160966D01*
X39348761Y-15160966D02*
X39351273Y-15170613D01*
X39351273Y-15170613D02*
X39352596Y-15175625D01*
X39352596Y-15175625D02*
X39352800Y-15176337D01*
X39352800Y-15176337D02*
X39353613Y-15173999D01*
X39353613Y-15173999D02*
X39355910Y-15167002D01*
X39355910Y-15167002D02*
X39359632Y-15155527D01*
X39359632Y-15155527D02*
X39364723Y-15139756D01*
X39364723Y-15139756D02*
X39371123Y-15119869D01*
X39371123Y-15119869D02*
X39378775Y-15096048D01*
X39378775Y-15096048D02*
X39387620Y-15068475D01*
X39387620Y-15068475D02*
X39397602Y-15037329D01*
X39397602Y-15037329D02*
X39408661Y-15002794D01*
X39408661Y-15002794D02*
X39420740Y-14965050D01*
X39420740Y-14965050D02*
X39433781Y-14924278D01*
X39433781Y-14924278D02*
X39447725Y-14880660D01*
X39447725Y-14880660D02*
X39462516Y-14834377D01*
X39462516Y-14834377D02*
X39478094Y-14785610D01*
X39478094Y-14785610D02*
X39494402Y-14734541D01*
X39494402Y-14734541D02*
X39511382Y-14681350D01*
X39511382Y-14681350D02*
X39528976Y-14626220D01*
X39528976Y-14626220D02*
X39547126Y-14569331D01*
X39547126Y-14569331D02*
X39565774Y-14510864D01*
X39565774Y-14510864D02*
X39584862Y-14451002D01*
X39584862Y-14451002D02*
X39599357Y-14405533D01*
X39599357Y-14405533D02*
X39618830Y-14344453D01*
X39618830Y-14344453D02*
X39637953Y-14284492D01*
X39637953Y-14284492D02*
X39656667Y-14225840D01*
X39656667Y-14225840D02*
X39674910Y-14168687D01*
X39674910Y-14168687D02*
X39692621Y-14113221D01*
X39692621Y-14113221D02*
X39709741Y-14059631D01*
X39709741Y-14059631D02*
X39726208Y-14008107D01*
X39726208Y-14008107D02*
X39741962Y-13958838D01*
X39741962Y-13958838D02*
X39756942Y-13912013D01*
X39756942Y-13912013D02*
X39771088Y-13867820D01*
X39771088Y-13867820D02*
X39784339Y-13826450D01*
X39784339Y-13826450D02*
X39796636Y-13788091D01*
X39796636Y-13788091D02*
X39807916Y-13752932D01*
X39807916Y-13752932D02*
X39818119Y-13721163D01*
X39818119Y-13721163D02*
X39827186Y-13692973D01*
X39827186Y-13692973D02*
X39835055Y-13668550D01*
X39835055Y-13668550D02*
X39841665Y-13648084D01*
X39841665Y-13648084D02*
X39846957Y-13631765D01*
X39846957Y-13631765D02*
X39850869Y-13619780D01*
X39850869Y-13619780D02*
X39853342Y-13612321D01*
X39853342Y-13612321D02*
X39854164Y-13609945D01*
X39854164Y-13609945D02*
X39869628Y-13573152D01*
X39869628Y-13573152D02*
X39887237Y-13540880D01*
X39887237Y-13540880D02*
X39907099Y-13512997D01*
X39907099Y-13512997D02*
X39929322Y-13489370D01*
X39929322Y-13489370D02*
X39954014Y-13469867D01*
X39954014Y-13469867D02*
X39980544Y-13454707D01*
X39980544Y-13454707D02*
X40008019Y-13443853D01*
X40008019Y-13443853D02*
X40037005Y-13437020D01*
X40037005Y-13437020D02*
X40068165Y-13434101D01*
X40068165Y-13434101D02*
X40101359Y-13434927D01*
X40101359Y-13434927D02*
X40101359Y-13434927D01*
G36*
X40101359Y-13434927D02*
G01*
X40130786Y-13438527D01*
X40156424Y-13444779D01*
X40178984Y-13453974D01*
X40199176Y-13466403D01*
X40217708Y-13482358D01*
X40218166Y-13482815D01*
X40236487Y-13503974D01*
X40250576Y-13526791D01*
X40260628Y-13551767D01*
X40266834Y-13579401D01*
X40269385Y-13610193D01*
X40269472Y-13616295D01*
X40268922Y-13639220D01*
X40266885Y-13660838D01*
X40263109Y-13682795D01*
X40257339Y-13706741D01*
X40253495Y-13720435D01*
X40252185Y-13724584D01*
X40249321Y-13733389D01*
X40244958Y-13746688D01*
X40239150Y-13764316D01*
X40231950Y-13786112D01*
X40223414Y-13811912D01*
X40213594Y-13841553D01*
X40202546Y-13874873D01*
X40190324Y-13911708D01*
X40176981Y-13951896D01*
X40162572Y-13995274D01*
X40147150Y-14041678D01*
X40130771Y-14090946D01*
X40113488Y-14142915D01*
X40095355Y-14197423D01*
X40076427Y-14254305D01*
X40056758Y-14313399D01*
X40036401Y-14374543D01*
X40015411Y-14437573D01*
X39993843Y-14502326D01*
X39971749Y-14568640D01*
X39949185Y-14636351D01*
X39926205Y-14705297D01*
X39909508Y-14755382D01*
X39881433Y-14839603D01*
X39854924Y-14919143D01*
X39829931Y-14994142D01*
X39806407Y-15064735D01*
X39784302Y-15131060D01*
X39763567Y-15193254D01*
X39744154Y-15251454D01*
X39726014Y-15305798D01*
X39709097Y-15356422D01*
X39693356Y-15403463D01*
X39678740Y-15447059D01*
X39665203Y-15487347D01*
X39652694Y-15524463D01*
X39641164Y-15558546D01*
X39630566Y-15589732D01*
X39620849Y-15618157D01*
X39611966Y-15643961D01*
X39603868Y-15667278D01*
X39596505Y-15688248D01*
X39589828Y-15707006D01*
X39583790Y-15723690D01*
X39578341Y-15738437D01*
X39573432Y-15751384D01*
X39569014Y-15762668D01*
X39565039Y-15772426D01*
X39561458Y-15780796D01*
X39558222Y-15787915D01*
X39555282Y-15793919D01*
X39552589Y-15798946D01*
X39550095Y-15803133D01*
X39547750Y-15806617D01*
X39545506Y-15809535D01*
X39543314Y-15812025D01*
X39541126Y-15814223D01*
X39538891Y-15816266D01*
X39536562Y-15818293D01*
X39534090Y-15820439D01*
X39531425Y-15822841D01*
X39528520Y-15825638D01*
X39528295Y-15825864D01*
X39511586Y-15841358D01*
X39495215Y-15853505D01*
X39477333Y-15863541D01*
X39461637Y-15870502D01*
X39441844Y-15877676D01*
X39422650Y-15882599D01*
X39402452Y-15885552D01*
X39379646Y-15886819D01*
X39368404Y-15886915D01*
X39344190Y-15886112D01*
X39323024Y-15883594D01*
X39303051Y-15878983D01*
X39282417Y-15871900D01*
X39270230Y-15866863D01*
X39242975Y-15852591D01*
X39218003Y-15834599D01*
X39195928Y-15813505D01*
X39177360Y-15789929D01*
X39162913Y-15764489D01*
X39158339Y-15753705D01*
X39157190Y-15749989D01*
X39154771Y-15741553D01*
X39151132Y-15728585D01*
X39146322Y-15711268D01*
X39140394Y-15689790D01*
X39133397Y-15664336D01*
X39125382Y-15635092D01*
X39116399Y-15602243D01*
X39106500Y-15565976D01*
X39095734Y-15526476D01*
X39084152Y-15483929D01*
X39071806Y-15438521D01*
X39058745Y-15390438D01*
X39045019Y-15339866D01*
X39030681Y-15286990D01*
X39015780Y-15231996D01*
X39000366Y-15175070D01*
X38984491Y-15116398D01*
X38968204Y-15056166D01*
X38951557Y-14994559D01*
X38934601Y-14931763D01*
X38933819Y-14928866D01*
X38916902Y-14866212D01*
X38900321Y-14804829D01*
X38884124Y-14744898D01*
X38868361Y-14686599D01*
X38853080Y-14630114D01*
X38838331Y-14575622D01*
X38824163Y-14523306D01*
X38810625Y-14473345D01*
X38797765Y-14425921D01*
X38785634Y-14381215D01*
X38774280Y-14339407D01*
X38763753Y-14300679D01*
X38754101Y-14265210D01*
X38745374Y-14233183D01*
X38737620Y-14204778D01*
X38730889Y-14180175D01*
X38725231Y-14159556D01*
X38720693Y-14143101D01*
X38717326Y-14130992D01*
X38715178Y-14123409D01*
X38714298Y-14120533D01*
X38714283Y-14120511D01*
X38713495Y-14122923D01*
X38711375Y-14130043D01*
X38707976Y-14141690D01*
X38703348Y-14157686D01*
X38697542Y-14177848D01*
X38690609Y-14201998D01*
X38682603Y-14229955D01*
X38673572Y-14261538D01*
X38663570Y-14296568D01*
X38652646Y-14334864D01*
X38640854Y-14376247D01*
X38628243Y-14420535D01*
X38614865Y-14467549D01*
X38600773Y-14517109D01*
X38586016Y-14569034D01*
X38570646Y-14623144D01*
X38554715Y-14679259D01*
X38538274Y-14737199D01*
X38521375Y-14796784D01*
X38504068Y-14857833D01*
X38486405Y-14920166D01*
X38484668Y-14926300D01*
X38466908Y-14988977D01*
X38449467Y-15050497D01*
X38432398Y-15110672D01*
X38415755Y-15169318D01*
X38399591Y-15226247D01*
X38383958Y-15281273D01*
X38368909Y-15334211D01*
X38354499Y-15384874D01*
X38340779Y-15433077D01*
X38327802Y-15478632D01*
X38315623Y-15521354D01*
X38304294Y-15561056D01*
X38293867Y-15597553D01*
X38284397Y-15630658D01*
X38275936Y-15660186D01*
X38268537Y-15685949D01*
X38262253Y-15707763D01*
X38257138Y-15725440D01*
X38253244Y-15738795D01*
X38250625Y-15747641D01*
X38249333Y-15751793D01*
X38249310Y-15751858D01*
X38237470Y-15777528D01*
X38220806Y-15801924D01*
X38199247Y-15825149D01*
X38198958Y-15825421D01*
X38175541Y-15845021D01*
X38151157Y-15860369D01*
X38124465Y-15872283D01*
X38117902Y-15874608D01*
X38083325Y-15883721D01*
X38048271Y-15887813D01*
X38013002Y-15886858D01*
X38001884Y-15885507D01*
X37972622Y-15879036D01*
X37942016Y-15867913D01*
X37927589Y-15861269D01*
X37904397Y-15847420D01*
X37882086Y-15829343D01*
X37861522Y-15807886D01*
X37843570Y-15783900D01*
X37835727Y-15771016D01*
X37834236Y-15767388D01*
X37831215Y-15759132D01*
X37826726Y-15746440D01*
X37820834Y-15729506D01*
X37813605Y-15708525D01*
X37805103Y-15683690D01*
X37795392Y-15655194D01*
X37784537Y-15623232D01*
X37772602Y-15587996D01*
X37759653Y-15549682D01*
X37745753Y-15508482D01*
X37730967Y-15464590D01*
X37715360Y-15418200D01*
X37698997Y-15369505D01*
X37681941Y-15318701D01*
X37664258Y-15265979D01*
X37646012Y-15211534D01*
X37627268Y-15155559D01*
X37608090Y-15098249D01*
X37588543Y-15039797D01*
X37568692Y-14980396D01*
X37548600Y-14920241D01*
X37528333Y-14859525D01*
X37507956Y-14798442D01*
X37487532Y-14737185D01*
X37467126Y-14675949D01*
X37446803Y-14614927D01*
X37426628Y-14554312D01*
X37406665Y-14494299D01*
X37386979Y-14435081D01*
X37367634Y-14376852D01*
X37348694Y-14319806D01*
X37330225Y-14264136D01*
X37312291Y-14210036D01*
X37294957Y-14157700D01*
X37278287Y-14107322D01*
X37262345Y-14059094D01*
X37247197Y-14013212D01*
X37232906Y-13969868D01*
X37219539Y-13929257D01*
X37207158Y-13891572D01*
X37195828Y-13857007D01*
X37185615Y-13825755D01*
X37176583Y-13798011D01*
X37168796Y-13773967D01*
X37162319Y-13753819D01*
X37157217Y-13737759D01*
X37153553Y-13725981D01*
X37151394Y-13718679D01*
X37150867Y-13716625D01*
X37144037Y-13676889D01*
X37140721Y-13638884D01*
X37140926Y-13603143D01*
X37144661Y-13570203D01*
X37148395Y-13552795D01*
X37157670Y-13526054D01*
X37170888Y-13502209D01*
X37187750Y-13481580D01*
X37207955Y-13464483D01*
X37231203Y-13451238D01*
X37251314Y-13443767D01*
X37273576Y-13438726D01*
X37298823Y-13435516D01*
X37325270Y-13434209D01*
X37351137Y-13434878D01*
X37374640Y-13437596D01*
X37379584Y-13438531D01*
X37409723Y-13447280D01*
X37437962Y-13460662D01*
X37464151Y-13478540D01*
X37488141Y-13500780D01*
X37509782Y-13527244D01*
X37528925Y-13557797D01*
X37543422Y-13587577D01*
X37544600Y-13590291D01*
X37545692Y-13592800D01*
X37546749Y-13595257D01*
X37547821Y-13597813D01*
X37548956Y-13600622D01*
X37550205Y-13603837D01*
X37551616Y-13607611D01*
X37553239Y-13612096D01*
X37555124Y-13617445D01*
X37557319Y-13623812D01*
X37559875Y-13631349D01*
X37562841Y-13640209D01*
X37566266Y-13650545D01*
X37570200Y-13662510D01*
X37574692Y-13676256D01*
X37579792Y-13691937D01*
X37585549Y-13709705D01*
X37592013Y-13729714D01*
X37599232Y-13752115D01*
X37607257Y-13777063D01*
X37616137Y-13804709D01*
X37625922Y-13835207D01*
X37636660Y-13868710D01*
X37648402Y-13905370D01*
X37661196Y-13945340D01*
X37675092Y-13988774D01*
X37690140Y-14035823D01*
X37706390Y-14086642D01*
X37723889Y-14141382D01*
X37742689Y-14200197D01*
X37762839Y-14263239D01*
X37784387Y-14330662D01*
X37807383Y-14402618D01*
X37831823Y-14479090D01*
X37849878Y-14535560D01*
X37867537Y-14590748D01*
X37884738Y-14644459D01*
X37901417Y-14696500D01*
X37917512Y-14746676D01*
X37932961Y-14794791D01*
X37947700Y-14840653D01*
X37961668Y-14884066D01*
X37974800Y-14924836D01*
X37987035Y-14962769D01*
X37998310Y-14997670D01*
X38008561Y-15029345D01*
X38017727Y-15057599D01*
X38025744Y-15082238D01*
X38032550Y-15103067D01*
X38038083Y-15119892D01*
X38042278Y-15132519D01*
X38045075Y-15140753D01*
X38046409Y-15144400D01*
X38046514Y-15144570D01*
X38047341Y-15142026D01*
X38049552Y-15134795D01*
X38053093Y-15123060D01*
X38057909Y-15107006D01*
X38063946Y-15086818D01*
X38071148Y-15062680D01*
X38079461Y-15034775D01*
X38088831Y-15003290D01*
X38099201Y-14968407D01*
X38110519Y-14930311D01*
X38122728Y-14889187D01*
X38135775Y-14845219D01*
X38149604Y-14798590D01*
X38164161Y-14749487D01*
X38179391Y-14698092D01*
X38195240Y-14644590D01*
X38211652Y-14589165D01*
X38228572Y-14532003D01*
X38245947Y-14473287D01*
X38263721Y-14413201D01*
X38274796Y-14375755D01*
X38292868Y-14314653D01*
X38310616Y-14254681D01*
X38327982Y-14196028D01*
X38344908Y-14138887D01*
X38361340Y-14083448D01*
X38377218Y-14029904D01*
X38392486Y-13978446D01*
X38407088Y-13929266D01*
X38420966Y-13882555D01*
X38434063Y-13838504D01*
X38446322Y-13797306D01*
X38457687Y-13759151D01*
X38468100Y-13724231D01*
X38477505Y-13692739D01*
X38485843Y-13664864D01*
X38493060Y-13640799D01*
X38499096Y-13620735D01*
X38503896Y-13604865D01*
X38507402Y-13593378D01*
X38509558Y-13586468D01*
X38510145Y-13584694D01*
X38522977Y-13554819D01*
X38539418Y-13527819D01*
X38560126Y-13502645D01*
X38564494Y-13498088D01*
X38580804Y-13482363D01*
X38595744Y-13470145D01*
X38610542Y-13460577D01*
X38626423Y-13452799D01*
X38633074Y-13450105D01*
X38654635Y-13442876D01*
X38676302Y-13438018D01*
X38699635Y-13435270D01*
X38726192Y-13434371D01*
X38727028Y-13434370D01*
X38753967Y-13435213D01*
X38777418Y-13437924D01*
X38798700Y-13442729D01*
X38819133Y-13449853D01*
X38820249Y-13450313D01*
X38845553Y-13463301D01*
X38869839Y-13480502D01*
X38892238Y-13501052D01*
X38911881Y-13524084D01*
X38927899Y-13548735D01*
X38936160Y-13565699D01*
X38936828Y-13567231D01*
X38937403Y-13568468D01*
X38937927Y-13569567D01*
X38938439Y-13570687D01*
X38938981Y-13571984D01*
X38939593Y-13573615D01*
X38940317Y-13575738D01*
X38941194Y-13578509D01*
X38942264Y-13582086D01*
X38943568Y-13586625D01*
X38945147Y-13592284D01*
X38947042Y-13599221D01*
X38949293Y-13607592D01*
X38951943Y-13617553D01*
X38955030Y-13629264D01*
X38958597Y-13642880D01*
X38962685Y-13658558D01*
X38967333Y-13676457D01*
X38972583Y-13696732D01*
X38978476Y-13719542D01*
X38985053Y-13745043D01*
X38992354Y-13773392D01*
X39000421Y-13804747D01*
X39009294Y-13839264D01*
X39019014Y-13877101D01*
X39029622Y-13918416D01*
X39041160Y-13963364D01*
X39053666Y-14012103D01*
X39067184Y-14064791D01*
X39081753Y-14121584D01*
X39097414Y-14182639D01*
X39114208Y-14248115D01*
X39132177Y-14318167D01*
X39151360Y-14392953D01*
X39155071Y-14407419D01*
X39170764Y-14468591D01*
X39186133Y-14528486D01*
X39201129Y-14586918D01*
X39215706Y-14643702D01*
X39229813Y-14698649D01*
X39243405Y-14751573D01*
X39256432Y-14802288D01*
X39268847Y-14850607D01*
X39280602Y-14896344D01*
X39291648Y-14939312D01*
X39301938Y-14979323D01*
X39311424Y-15016193D01*
X39320057Y-15049733D01*
X39327790Y-15079757D01*
X39334575Y-15106080D01*
X39340364Y-15128513D01*
X39345108Y-15146871D01*
X39348761Y-15160966D01*
X39351273Y-15170613D01*
X39352596Y-15175625D01*
X39352800Y-15176337D01*
X39353613Y-15173999D01*
X39355910Y-15167002D01*
X39359632Y-15155527D01*
X39364723Y-15139756D01*
X39371123Y-15119869D01*
X39378775Y-15096048D01*
X39387620Y-15068475D01*
X39397602Y-15037329D01*
X39408661Y-15002794D01*
X39420740Y-14965050D01*
X39433781Y-14924278D01*
X39447725Y-14880660D01*
X39462516Y-14834377D01*
X39478094Y-14785610D01*
X39494402Y-14734541D01*
X39511382Y-14681350D01*
X39528976Y-14626220D01*
X39547126Y-14569331D01*
X39565774Y-14510864D01*
X39584862Y-14451002D01*
X39599357Y-14405533D01*
X39618830Y-14344453D01*
X39637953Y-14284492D01*
X39656667Y-14225840D01*
X39674910Y-14168687D01*
X39692621Y-14113221D01*
X39709741Y-14059631D01*
X39726208Y-14008107D01*
X39741962Y-13958838D01*
X39756942Y-13912013D01*
X39771088Y-13867820D01*
X39784339Y-13826450D01*
X39796636Y-13788091D01*
X39807916Y-13752932D01*
X39818119Y-13721163D01*
X39827186Y-13692973D01*
X39835055Y-13668550D01*
X39841665Y-13648084D01*
X39846957Y-13631765D01*
X39850869Y-13619780D01*
X39853342Y-13612321D01*
X39854164Y-13609945D01*
X39869628Y-13573152D01*
X39887237Y-13540880D01*
X39907099Y-13512997D01*
X39929322Y-13489370D01*
X39954014Y-13469867D01*
X39980544Y-13454707D01*
X40008019Y-13443853D01*
X40037005Y-13437020D01*
X40068165Y-13434101D01*
X40101359Y-13434927D01*
G37*
X40101359Y-13434927D02*
X40130786Y-13438527D01*
X40156424Y-13444779D01*
X40178984Y-13453974D01*
X40199176Y-13466403D01*
X40217708Y-13482358D01*
X40218166Y-13482815D01*
X40236487Y-13503974D01*
X40250576Y-13526791D01*
X40260628Y-13551767D01*
X40266834Y-13579401D01*
X40269385Y-13610193D01*
X40269472Y-13616295D01*
X40268922Y-13639220D01*
X40266885Y-13660838D01*
X40263109Y-13682795D01*
X40257339Y-13706741D01*
X40253495Y-13720435D01*
X40252185Y-13724584D01*
X40249321Y-13733389D01*
X40244958Y-13746688D01*
X40239150Y-13764316D01*
X40231950Y-13786112D01*
X40223414Y-13811912D01*
X40213594Y-13841553D01*
X40202546Y-13874873D01*
X40190324Y-13911708D01*
X40176981Y-13951896D01*
X40162572Y-13995274D01*
X40147150Y-14041678D01*
X40130771Y-14090946D01*
X40113488Y-14142915D01*
X40095355Y-14197423D01*
X40076427Y-14254305D01*
X40056758Y-14313399D01*
X40036401Y-14374543D01*
X40015411Y-14437573D01*
X39993843Y-14502326D01*
X39971749Y-14568640D01*
X39949185Y-14636351D01*
X39926205Y-14705297D01*
X39909508Y-14755382D01*
X39881433Y-14839603D01*
X39854924Y-14919143D01*
X39829931Y-14994142D01*
X39806407Y-15064735D01*
X39784302Y-15131060D01*
X39763567Y-15193254D01*
X39744154Y-15251454D01*
X39726014Y-15305798D01*
X39709097Y-15356422D01*
X39693356Y-15403463D01*
X39678740Y-15447059D01*
X39665203Y-15487347D01*
X39652694Y-15524463D01*
X39641164Y-15558546D01*
X39630566Y-15589732D01*
X39620849Y-15618157D01*
X39611966Y-15643961D01*
X39603868Y-15667278D01*
X39596505Y-15688248D01*
X39589828Y-15707006D01*
X39583790Y-15723690D01*
X39578341Y-15738437D01*
X39573432Y-15751384D01*
X39569014Y-15762668D01*
X39565039Y-15772426D01*
X39561458Y-15780796D01*
X39558222Y-15787915D01*
X39555282Y-15793919D01*
X39552589Y-15798946D01*
X39550095Y-15803133D01*
X39547750Y-15806617D01*
X39545506Y-15809535D01*
X39543314Y-15812025D01*
X39541126Y-15814223D01*
X39538891Y-15816266D01*
X39536562Y-15818293D01*
X39534090Y-15820439D01*
X39531425Y-15822841D01*
X39528520Y-15825638D01*
X39528295Y-15825864D01*
X39511586Y-15841358D01*
X39495215Y-15853505D01*
X39477333Y-15863541D01*
X39461637Y-15870502D01*
X39441844Y-15877676D01*
X39422650Y-15882599D01*
X39402452Y-15885552D01*
X39379646Y-15886819D01*
X39368404Y-15886915D01*
X39344190Y-15886112D01*
X39323024Y-15883594D01*
X39303051Y-15878983D01*
X39282417Y-15871900D01*
X39270230Y-15866863D01*
X39242975Y-15852591D01*
X39218003Y-15834599D01*
X39195928Y-15813505D01*
X39177360Y-15789929D01*
X39162913Y-15764489D01*
X39158339Y-15753705D01*
X39157190Y-15749989D01*
X39154771Y-15741553D01*
X39151132Y-15728585D01*
X39146322Y-15711268D01*
X39140394Y-15689790D01*
X39133397Y-15664336D01*
X39125382Y-15635092D01*
X39116399Y-15602243D01*
X39106500Y-15565976D01*
X39095734Y-15526476D01*
X39084152Y-15483929D01*
X39071806Y-15438521D01*
X39058745Y-15390438D01*
X39045019Y-15339866D01*
X39030681Y-15286990D01*
X39015780Y-15231996D01*
X39000366Y-15175070D01*
X38984491Y-15116398D01*
X38968204Y-15056166D01*
X38951557Y-14994559D01*
X38934601Y-14931763D01*
X38933819Y-14928866D01*
X38916902Y-14866212D01*
X38900321Y-14804829D01*
X38884124Y-14744898D01*
X38868361Y-14686599D01*
X38853080Y-14630114D01*
X38838331Y-14575622D01*
X38824163Y-14523306D01*
X38810625Y-14473345D01*
X38797765Y-14425921D01*
X38785634Y-14381215D01*
X38774280Y-14339407D01*
X38763753Y-14300679D01*
X38754101Y-14265210D01*
X38745374Y-14233183D01*
X38737620Y-14204778D01*
X38730889Y-14180175D01*
X38725231Y-14159556D01*
X38720693Y-14143101D01*
X38717326Y-14130992D01*
X38715178Y-14123409D01*
X38714298Y-14120533D01*
X38714283Y-14120511D01*
X38713495Y-14122923D01*
X38711375Y-14130043D01*
X38707976Y-14141690D01*
X38703348Y-14157686D01*
X38697542Y-14177848D01*
X38690609Y-14201998D01*
X38682603Y-14229955D01*
X38673572Y-14261538D01*
X38663570Y-14296568D01*
X38652646Y-14334864D01*
X38640854Y-14376247D01*
X38628243Y-14420535D01*
X38614865Y-14467549D01*
X38600773Y-14517109D01*
X38586016Y-14569034D01*
X38570646Y-14623144D01*
X38554715Y-14679259D01*
X38538274Y-14737199D01*
X38521375Y-14796784D01*
X38504068Y-14857833D01*
X38486405Y-14920166D01*
X38484668Y-14926300D01*
X38466908Y-14988977D01*
X38449467Y-15050497D01*
X38432398Y-15110672D01*
X38415755Y-15169318D01*
X38399591Y-15226247D01*
X38383958Y-15281273D01*
X38368909Y-15334211D01*
X38354499Y-15384874D01*
X38340779Y-15433077D01*
X38327802Y-15478632D01*
X38315623Y-15521354D01*
X38304294Y-15561056D01*
X38293867Y-15597553D01*
X38284397Y-15630658D01*
X38275936Y-15660186D01*
X38268537Y-15685949D01*
X38262253Y-15707763D01*
X38257138Y-15725440D01*
X38253244Y-15738795D01*
X38250625Y-15747641D01*
X38249333Y-15751793D01*
X38249310Y-15751858D01*
X38237470Y-15777528D01*
X38220806Y-15801924D01*
X38199247Y-15825149D01*
X38198958Y-15825421D01*
X38175541Y-15845021D01*
X38151157Y-15860369D01*
X38124465Y-15872283D01*
X38117902Y-15874608D01*
X38083325Y-15883721D01*
X38048271Y-15887813D01*
X38013002Y-15886858D01*
X38001884Y-15885507D01*
X37972622Y-15879036D01*
X37942016Y-15867913D01*
X37927589Y-15861269D01*
X37904397Y-15847420D01*
X37882086Y-15829343D01*
X37861522Y-15807886D01*
X37843570Y-15783900D01*
X37835727Y-15771016D01*
X37834236Y-15767388D01*
X37831215Y-15759132D01*
X37826726Y-15746440D01*
X37820834Y-15729506D01*
X37813605Y-15708525D01*
X37805103Y-15683690D01*
X37795392Y-15655194D01*
X37784537Y-15623232D01*
X37772602Y-15587996D01*
X37759653Y-15549682D01*
X37745753Y-15508482D01*
X37730967Y-15464590D01*
X37715360Y-15418200D01*
X37698997Y-15369505D01*
X37681941Y-15318701D01*
X37664258Y-15265979D01*
X37646012Y-15211534D01*
X37627268Y-15155559D01*
X37608090Y-15098249D01*
X37588543Y-15039797D01*
X37568692Y-14980396D01*
X37548600Y-14920241D01*
X37528333Y-14859525D01*
X37507956Y-14798442D01*
X37487532Y-14737185D01*
X37467126Y-14675949D01*
X37446803Y-14614927D01*
X37426628Y-14554312D01*
X37406665Y-14494299D01*
X37386979Y-14435081D01*
X37367634Y-14376852D01*
X37348694Y-14319806D01*
X37330225Y-14264136D01*
X37312291Y-14210036D01*
X37294957Y-14157700D01*
X37278287Y-14107322D01*
X37262345Y-14059094D01*
X37247197Y-14013212D01*
X37232906Y-13969868D01*
X37219539Y-13929257D01*
X37207158Y-13891572D01*
X37195828Y-13857007D01*
X37185615Y-13825755D01*
X37176583Y-13798011D01*
X37168796Y-13773967D01*
X37162319Y-13753819D01*
X37157217Y-13737759D01*
X37153553Y-13725981D01*
X37151394Y-13718679D01*
X37150867Y-13716625D01*
X37144037Y-13676889D01*
X37140721Y-13638884D01*
X37140926Y-13603143D01*
X37144661Y-13570203D01*
X37148395Y-13552795D01*
X37157670Y-13526054D01*
X37170888Y-13502209D01*
X37187750Y-13481580D01*
X37207955Y-13464483D01*
X37231203Y-13451238D01*
X37251314Y-13443767D01*
X37273576Y-13438726D01*
X37298823Y-13435516D01*
X37325270Y-13434209D01*
X37351137Y-13434878D01*
X37374640Y-13437596D01*
X37379584Y-13438531D01*
X37409723Y-13447280D01*
X37437962Y-13460662D01*
X37464151Y-13478540D01*
X37488141Y-13500780D01*
X37509782Y-13527244D01*
X37528925Y-13557797D01*
X37543422Y-13587577D01*
X37544600Y-13590291D01*
X37545692Y-13592800D01*
X37546749Y-13595257D01*
X37547821Y-13597813D01*
X37548956Y-13600622D01*
X37550205Y-13603837D01*
X37551616Y-13607611D01*
X37553239Y-13612096D01*
X37555124Y-13617445D01*
X37557319Y-13623812D01*
X37559875Y-13631349D01*
X37562841Y-13640209D01*
X37566266Y-13650545D01*
X37570200Y-13662510D01*
X37574692Y-13676256D01*
X37579792Y-13691937D01*
X37585549Y-13709705D01*
X37592013Y-13729714D01*
X37599232Y-13752115D01*
X37607257Y-13777063D01*
X37616137Y-13804709D01*
X37625922Y-13835207D01*
X37636660Y-13868710D01*
X37648402Y-13905370D01*
X37661196Y-13945340D01*
X37675092Y-13988774D01*
X37690140Y-14035823D01*
X37706390Y-14086642D01*
X37723889Y-14141382D01*
X37742689Y-14200197D01*
X37762839Y-14263239D01*
X37784387Y-14330662D01*
X37807383Y-14402618D01*
X37831823Y-14479090D01*
X37849878Y-14535560D01*
X37867537Y-14590748D01*
X37884738Y-14644459D01*
X37901417Y-14696500D01*
X37917512Y-14746676D01*
X37932961Y-14794791D01*
X37947700Y-14840653D01*
X37961668Y-14884066D01*
X37974800Y-14924836D01*
X37987035Y-14962769D01*
X37998310Y-14997670D01*
X38008561Y-15029345D01*
X38017727Y-15057599D01*
X38025744Y-15082238D01*
X38032550Y-15103067D01*
X38038083Y-15119892D01*
X38042278Y-15132519D01*
X38045075Y-15140753D01*
X38046409Y-15144400D01*
X38046514Y-15144570D01*
X38047341Y-15142026D01*
X38049552Y-15134795D01*
X38053093Y-15123060D01*
X38057909Y-15107006D01*
X38063946Y-15086818D01*
X38071148Y-15062680D01*
X38079461Y-15034775D01*
X38088831Y-15003290D01*
X38099201Y-14968407D01*
X38110519Y-14930311D01*
X38122728Y-14889187D01*
X38135775Y-14845219D01*
X38149604Y-14798590D01*
X38164161Y-14749487D01*
X38179391Y-14698092D01*
X38195240Y-14644590D01*
X38211652Y-14589165D01*
X38228572Y-14532003D01*
X38245947Y-14473287D01*
X38263721Y-14413201D01*
X38274796Y-14375755D01*
X38292868Y-14314653D01*
X38310616Y-14254681D01*
X38327982Y-14196028D01*
X38344908Y-14138887D01*
X38361340Y-14083448D01*
X38377218Y-14029904D01*
X38392486Y-13978446D01*
X38407088Y-13929266D01*
X38420966Y-13882555D01*
X38434063Y-13838504D01*
X38446322Y-13797306D01*
X38457687Y-13759151D01*
X38468100Y-13724231D01*
X38477505Y-13692739D01*
X38485843Y-13664864D01*
X38493060Y-13640799D01*
X38499096Y-13620735D01*
X38503896Y-13604865D01*
X38507402Y-13593378D01*
X38509558Y-13586468D01*
X38510145Y-13584694D01*
X38522977Y-13554819D01*
X38539418Y-13527819D01*
X38560126Y-13502645D01*
X38564494Y-13498088D01*
X38580804Y-13482363D01*
X38595744Y-13470145D01*
X38610542Y-13460577D01*
X38626423Y-13452799D01*
X38633074Y-13450105D01*
X38654635Y-13442876D01*
X38676302Y-13438018D01*
X38699635Y-13435270D01*
X38726192Y-13434371D01*
X38727028Y-13434370D01*
X38753967Y-13435213D01*
X38777418Y-13437924D01*
X38798700Y-13442729D01*
X38819133Y-13449853D01*
X38820249Y-13450313D01*
X38845553Y-13463301D01*
X38869839Y-13480502D01*
X38892238Y-13501052D01*
X38911881Y-13524084D01*
X38927899Y-13548735D01*
X38936160Y-13565699D01*
X38936828Y-13567231D01*
X38937403Y-13568468D01*
X38937927Y-13569567D01*
X38938439Y-13570687D01*
X38938981Y-13571984D01*
X38939593Y-13573615D01*
X38940317Y-13575738D01*
X38941194Y-13578509D01*
X38942264Y-13582086D01*
X38943568Y-13586625D01*
X38945147Y-13592284D01*
X38947042Y-13599221D01*
X38949293Y-13607592D01*
X38951943Y-13617553D01*
X38955030Y-13629264D01*
X38958597Y-13642880D01*
X38962685Y-13658558D01*
X38967333Y-13676457D01*
X38972583Y-13696732D01*
X38978476Y-13719542D01*
X38985053Y-13745043D01*
X38992354Y-13773392D01*
X39000421Y-13804747D01*
X39009294Y-13839264D01*
X39019014Y-13877101D01*
X39029622Y-13918416D01*
X39041160Y-13963364D01*
X39053666Y-14012103D01*
X39067184Y-14064791D01*
X39081753Y-14121584D01*
X39097414Y-14182639D01*
X39114208Y-14248115D01*
X39132177Y-14318167D01*
X39151360Y-14392953D01*
X39155071Y-14407419D01*
X39170764Y-14468591D01*
X39186133Y-14528486D01*
X39201129Y-14586918D01*
X39215706Y-14643702D01*
X39229813Y-14698649D01*
X39243405Y-14751573D01*
X39256432Y-14802288D01*
X39268847Y-14850607D01*
X39280602Y-14896344D01*
X39291648Y-14939312D01*
X39301938Y-14979323D01*
X39311424Y-15016193D01*
X39320057Y-15049733D01*
X39327790Y-15079757D01*
X39334575Y-15106080D01*
X39340364Y-15128513D01*
X39345108Y-15146871D01*
X39348761Y-15160966D01*
X39351273Y-15170613D01*
X39352596Y-15175625D01*
X39352800Y-15176337D01*
X39353613Y-15173999D01*
X39355910Y-15167002D01*
X39359632Y-15155527D01*
X39364723Y-15139756D01*
X39371123Y-15119869D01*
X39378775Y-15096048D01*
X39387620Y-15068475D01*
X39397602Y-15037329D01*
X39408661Y-15002794D01*
X39420740Y-14965050D01*
X39433781Y-14924278D01*
X39447725Y-14880660D01*
X39462516Y-14834377D01*
X39478094Y-14785610D01*
X39494402Y-14734541D01*
X39511382Y-14681350D01*
X39528976Y-14626220D01*
X39547126Y-14569331D01*
X39565774Y-14510864D01*
X39584862Y-14451002D01*
X39599357Y-14405533D01*
X39618830Y-14344453D01*
X39637953Y-14284492D01*
X39656667Y-14225840D01*
X39674910Y-14168687D01*
X39692621Y-14113221D01*
X39709741Y-14059631D01*
X39726208Y-14008107D01*
X39741962Y-13958838D01*
X39756942Y-13912013D01*
X39771088Y-13867820D01*
X39784339Y-13826450D01*
X39796636Y-13788091D01*
X39807916Y-13752932D01*
X39818119Y-13721163D01*
X39827186Y-13692973D01*
X39835055Y-13668550D01*
X39841665Y-13648084D01*
X39846957Y-13631765D01*
X39850869Y-13619780D01*
X39853342Y-13612321D01*
X39854164Y-13609945D01*
X39869628Y-13573152D01*
X39887237Y-13540880D01*
X39907099Y-13512997D01*
X39929322Y-13489370D01*
X39954014Y-13469867D01*
X39980544Y-13454707D01*
X40008019Y-13443853D01*
X40037005Y-13437020D01*
X40068165Y-13434101D01*
X40101359Y-13434927D01*
D13*
%TO.C,J2*%
X21913750Y-13962500D02*
X23238750Y-13962500D01*
X23238750Y-13897500D02*
X26768750Y-13897500D01*
X23238750Y-13897500D02*
X23238750Y-13962500D01*
X23238750Y-20367500D02*
X26768750Y-20367500D01*
X23238750Y-20302500D02*
X23238750Y-20367500D01*
X26768750Y-13897500D02*
X26768750Y-13962500D01*
X26768750Y-20302500D02*
X26768750Y-20367500D01*
%TO.C,J4*%
X21955489Y-38299239D02*
X21955489Y-25479239D01*
X24555489Y-38299239D02*
X21955489Y-38299239D01*
X24555489Y-35699239D02*
X24555489Y-38299239D01*
X27155489Y-38299239D02*
X25825489Y-38299239D01*
X27155489Y-25479239D02*
X21955489Y-25479239D01*
X27155489Y-35699239D02*
X24555489Y-35699239D01*
X27155489Y-36969239D02*
X27155489Y-38299239D01*
X27155489Y-35699239D02*
X27155489Y-25479239D01*
%TO.C,J6*%
X31130000Y-28270000D02*
X33730000Y-28270000D01*
X33730000Y-25670000D02*
X36330000Y-25670000D01*
X31130000Y-28270000D02*
X31130000Y-38490000D01*
X31130000Y-38490000D02*
X36330000Y-38490000D01*
X33730000Y-28270000D02*
X33730000Y-25670000D01*
X31130000Y-27000000D02*
X31130000Y-25670000D01*
X36330000Y-25670000D02*
X36330000Y-38490000D01*
X31130000Y-25670000D02*
X32460000Y-25670000D01*
%TD*%
M02*
