%TF.GenerationSoftware,KiCad,Pcbnew,(6.0.0)*%
%TF.CreationDate,2022-04-27T09:06:16-05:00*%
%TF.ProjectId,adapters,61646170-7465-4727-932e-6b696361645f,rev?*%
%TF.SameCoordinates,Original*%
%TF.FileFunction,Profile,NP*%
%FSLAX46Y46*%
G04 Gerber Fmt 4.6, Leading zero omitted, Abs format (unit mm)*
G04 Created by KiCad (PCBNEW (6.0.0)) date 2022-04-27 09:06:16*
%MOMM*%
%LPD*%
G01*
G04 APERTURE LIST*
%TA.AperFunction,Profile*%
%ADD10C,0.100000*%
%TD*%
%TA.AperFunction,Profile*%
%ADD11C,0.050000*%
%TD*%
G04 APERTURE END LIST*
D10*
X34345000Y-24000000D02*
X31000000Y-24000000D01*
X39845000Y-24000000D02*
X43000000Y-24000000D01*
X32000000Y-12000000D02*
X43000000Y-12000000D01*
X34345000Y-23000000D02*
X32000000Y-23000000D01*
X43000000Y-23000000D02*
X39845000Y-23000000D01*
X44000000Y-13000000D02*
X44000000Y-22000000D01*
X44000000Y-13000000D02*
G75*
G03*
X43000000Y-12000000I-1000000J0D01*
G01*
X43000000Y-23000000D02*
G75*
G03*
X44000000Y-22000000I0J1000000D01*
G01*
X32000000Y-12000000D02*
G75*
G03*
X31000000Y-13000000I0J-1000000D01*
G01*
X31000000Y-22000000D02*
X31000000Y-13000000D01*
X31000000Y-22000000D02*
G75*
G03*
X32000000Y-23000000I1000000J0D01*
G01*
X14000000Y-22000000D02*
X14000000Y-13000000D01*
X14000000Y-39000000D02*
X14000000Y-25000000D01*
X20750000Y-23000000D02*
X22250000Y-23000000D01*
X28000000Y-40000000D02*
G75*
G03*
X29000000Y-39000000I1J999999D01*
G01*
X15250000Y-24000000D02*
X15000000Y-24000000D01*
X29000000Y-25000000D02*
X29000000Y-25250000D01*
X14000000Y-22000000D02*
G75*
G03*
X15000000Y-23000000I999999J-1D01*
G01*
X28000000Y-40000000D02*
X15000000Y-40000000D01*
X29000000Y-30750000D02*
X29000000Y-33250000D01*
X30000000Y-33250000D02*
X30000000Y-30750000D01*
X44000000Y-25000000D02*
X44000000Y-39000000D01*
X30000000Y-39000000D02*
G75*
G03*
X31000000Y-40000000I999999J-1D01*
G01*
X44000000Y-25000000D02*
G75*
G03*
X43000000Y-24000000I-999999J1D01*
G01*
X14000000Y-39000000D02*
G75*
G03*
X15000000Y-40000000I999999J-1D01*
G01*
X15000000Y-24000000D02*
G75*
G03*
X14000000Y-25000000I-1J-999999D01*
G01*
X29000000Y-23000000D02*
G75*
G03*
X30000000Y-22000000I1J999999D01*
G01*
X29000000Y-39000000D02*
X29000000Y-38750000D01*
X31000000Y-40000000D02*
X43000000Y-40000000D01*
X22250000Y-24000000D02*
X20750000Y-24000000D01*
X29000000Y-12000000D02*
X15000000Y-12000000D01*
X30000000Y-13000000D02*
G75*
G03*
X29000000Y-12000000I-999999J1D01*
G01*
X43000000Y-40000000D02*
G75*
G03*
X44000000Y-39000000I1J999999D01*
G01*
X27750000Y-24000000D02*
X28000000Y-24000000D01*
X31000000Y-24000000D02*
G75*
G03*
X30000000Y-25000000I-1J-999999D01*
G01*
X30000000Y-25250000D02*
X30000000Y-25000000D01*
X30000000Y-38750000D02*
X30000000Y-39000000D01*
X30000000Y-22000000D02*
X30000000Y-13000000D01*
X29000000Y-25000000D02*
G75*
G03*
X28000000Y-24000000I-999999J1D01*
G01*
X15250000Y-23000000D02*
X15000000Y-23000000D01*
X29000000Y-23000000D02*
X27750000Y-23000000D01*
X15000000Y-12000000D02*
G75*
G03*
X14000000Y-13000000I-1J-999999D01*
G01*
D11*
%TO.C,REF\u002A\u002A*%
X39845000Y-23000000D02*
G75*
G03*
X39845000Y-24000000I0J-500000D01*
G01*
X34345000Y-24000000D02*
G75*
G03*
X34345000Y-23000000I0J500000D01*
G01*
X27750000Y-23000000D02*
G75*
G03*
X27750000Y-24000000I0J-500000D01*
G01*
X22250000Y-24000000D02*
G75*
G03*
X22250000Y-23000000I0J500000D01*
G01*
X29000000Y-25250000D02*
G75*
G03*
X30000000Y-25250000I500000J0D01*
G01*
X30000000Y-30750000D02*
G75*
G03*
X29000000Y-30750000I-500000J0D01*
G01*
X29000000Y-33250000D02*
G75*
G03*
X30000000Y-33250000I500000J0D01*
G01*
X30000000Y-38750000D02*
G75*
G03*
X29000000Y-38750000I-500000J0D01*
G01*
X20750000Y-23000000D02*
G75*
G03*
X20750000Y-24000000I0J-500000D01*
G01*
X15250000Y-24000000D02*
G75*
G03*
X15250000Y-23000000I0J500000D01*
G01*
%TD*%
M02*
