%TF.GenerationSoftware,KiCad,Pcbnew,(6.0.0)*%
%TF.CreationDate,2022-04-27T09:06:16-05:00*%
%TF.ProjectId,adapters,61646170-7465-4727-932e-6b696361645f,rev?*%
%TF.SameCoordinates,Original*%
%TF.FileFunction,Legend,Bot*%
%TF.FilePolarity,Positive*%
%FSLAX46Y46*%
G04 Gerber Fmt 4.6, Leading zero omitted, Abs format (unit mm)*
G04 Created by KiCad (PCBNEW (6.0.0)) date 2022-04-27 09:06:16*
%MOMM*%
%LPD*%
G01*
G04 APERTURE LIST*
%ADD10C,0.150000*%
%ADD11C,0.120000*%
G04 APERTURE END LIST*
D10*
%TO.C,J5*%
X40483333Y-29272380D02*
X40483333Y-29986666D01*
X40530952Y-30129523D01*
X40626190Y-30224761D01*
X40769047Y-30272380D01*
X40864285Y-30272380D01*
X39530952Y-29272380D02*
X40007142Y-29272380D01*
X40054761Y-29748571D01*
X40007142Y-29700952D01*
X39911904Y-29653333D01*
X39673809Y-29653333D01*
X39578571Y-29700952D01*
X39530952Y-29748571D01*
X39483333Y-29843809D01*
X39483333Y-30081904D01*
X39530952Y-30177142D01*
X39578571Y-30224761D01*
X39673809Y-30272380D01*
X39911904Y-30272380D01*
X40007142Y-30224761D01*
X40054761Y-30177142D01*
%TO.C,J3*%
X18697572Y-36201619D02*
X18697572Y-36915905D01*
X18745191Y-37058762D01*
X18840429Y-37154000D01*
X18983286Y-37201619D01*
X19078524Y-37201619D01*
X18316619Y-36201619D02*
X17697572Y-36201619D01*
X18030905Y-36582572D01*
X17888048Y-36582572D01*
X17792810Y-36630191D01*
X17745191Y-36677810D01*
X17697572Y-36773048D01*
X17697572Y-37011143D01*
X17745191Y-37106381D01*
X17792810Y-37154000D01*
X17888048Y-37201619D01*
X18173762Y-37201619D01*
X18269000Y-37154000D01*
X18316619Y-37106381D01*
%TO.C,J1*%
X21793333Y-16602380D02*
X21793333Y-17316666D01*
X21840952Y-17459523D01*
X21936190Y-17554761D01*
X22079047Y-17602380D01*
X22174285Y-17602380D01*
X20793333Y-17602380D02*
X21364761Y-17602380D01*
X21079047Y-17602380D02*
X21079047Y-16602380D01*
X21174285Y-16745238D01*
X21269523Y-16840476D01*
X21364761Y-16888095D01*
D11*
%TO.C,J5*%
X37536250Y-36048750D02*
X40136250Y-36048750D01*
X37536250Y-30908750D02*
X42736250Y-30908750D01*
X42736250Y-38648750D02*
X42736250Y-30908750D01*
X37536250Y-37318750D02*
X37536250Y-38648750D01*
X37536250Y-38648750D02*
X38866250Y-38648750D01*
X40136250Y-36048750D02*
X40136250Y-38648750D01*
X37536250Y-36048750D02*
X37536250Y-30908750D01*
X40136250Y-38648750D02*
X42736250Y-38648750D01*
%TO.C,J3*%
X18364239Y-35749239D02*
X20964239Y-35749239D01*
X15764239Y-34419239D02*
X15764239Y-35749239D01*
X15764239Y-35749239D02*
X17094239Y-35749239D01*
X15764239Y-33149239D02*
X15764239Y-28009239D01*
X15764239Y-28009239D02*
X20964239Y-28009239D01*
X18364239Y-33149239D02*
X18364239Y-35749239D01*
X15764239Y-33149239D02*
X18364239Y-33149239D01*
X20964239Y-35749239D02*
X20964239Y-28009239D01*
%TO.C,J1*%
X19671250Y-21017500D02*
X14471250Y-21017500D01*
X19671250Y-15877500D02*
X19671250Y-21017500D01*
X14471250Y-13277500D02*
X14471250Y-21017500D01*
X19671250Y-13277500D02*
X18341250Y-13277500D01*
X17071250Y-13277500D02*
X14471250Y-13277500D01*
X19671250Y-14607500D02*
X19671250Y-13277500D01*
X17071250Y-15877500D02*
X17071250Y-13277500D01*
X19671250Y-15877500D02*
X17071250Y-15877500D01*
%TD*%
M02*
